<?xml version="1.0" encoding="UTF-8" standalone="no"?>
<!-- Created with Inkscape (http://www.inkscape.org/) -->

<svg
   version="1.1"
   id="svg2"
   width="1333.3333"
   height="1333.3333"
   viewBox="0 0 1333.3333 1333.3333"
   sodipodi:docname="3384318_57622.eps"
   xmlns:inkscape="http://www.inkscape.org/namespaces/inkscape"
   xmlns:sodipodi="http://sodipodi.sourceforge.net/DTD/sodipodi-0.dtd"
   xmlns="http://www.w3.org/2000/svg"
   xmlns:svg="http://www.w3.org/2000/svg">
  <defs
     id="defs6">
    <pattern
       patternTransform="scale(10)"
       patternUnits="userSpaceOnUse"
       x="0"
       y="0"
       width="1000"
       height="1000"
       id="pattern238">
      <g
         transform="scale(0.1)"
         id="g236">
        <path
           d="m 513.926,99.0742 c -11.582,9.3788 -17.129,26.2968 -12.055,40.4848 2.16,6.039 5.895,11.386 9.863,16.433 13.61,17.317 30.442,31.625 44.727,48.582 43.406,51.516 125.996,67.61 185.184,35.457 24.339,-13.222 44.421,-34.617 54.71,-60.332 12.985,-32.453 9.801,-69.777 -2.867,-102.3552 C 767.813,11.332 710.023,-35.4414 662.195,-85.0313 615.336,-133.617 568.477,-182.207 521.617,-230.797 c -0.726,-0.754 -1.457,-1.508 -2.183,-2.262 -8.289,-10.859 -20.461,-18.742 -33.547,-22.656 -1.965,-0.586 -3.989,-1.086 -6.035,-0.988 -2.864,0.129 -5.543,1.406 -8.047,2.805 -27.992,15.628 -31.727,40.601 -12.157,64.824 77.954,96.4724 178.946,171.0232 247.938,275.0545 8.684,13.0976 16.141,27.5825 17.512,43.2345 2.519,28.703 -20.59,53.265 -48.66,55.89 -19.833,1.86 -39.653,-5.707 -55.934,-17.183 -20.621,-14.539 -38.621,-35.055 -52.598,-55.692 -10.218,-15.0933 -26.715,-25.7964 -45.754,-18.0464 -2.988,1.2148 -5.746,2.8789 -8.226,4.8906"
           style="fill:#ffffff;fill-opacity:1;fill-rule:nonzero;stroke:none"
           id="path12" />
        <path
           d="m 524.531,109.68 c -26.011,28.812 39.551,84.363 60.735,101.304 31.504,25.196 74.738,36.106 114.574,28.188 C 804.816,218.305 803.176,104.82 751.645,32.5313 709.699,-26.3164 650.496,-75.5547 600.473,-127.43 c -25.563,-26.5 -51.121,-53.004 -76.684,-79.508 -7.094,-7.351 -31.301,-35.257 -41.891,-34.312 -48.707,4.348 20.215,78.656 27.11,86.133 47.574,51.586 99.945,98.5623 146.711,150.90997 32.051,35.87893 86.117,87.52733 84.164,139.42203 -1.305,34.746 -29.168,61.633 -63.445,64.89 -22.606,2.153 -45.051,-6.937 -63.504,-19.234 -17.52,-11.672 -69.5,-81.8827 -91.438,-68.848 -16.637,9.887 -31.742,-16.0347 -15.141,-25.9019 54.723,-32.5234 77.614,33.7539 112.708,61.8009 37.171,29.707 113.707,30.957 79.617,-47.594 -7.137,-16.4491 -21.922,-32.2655 -32.895,-46.1639 -27.437,-34.7578 -58.203,-66.586 -89.414,-97.9375 -25.758,-25.8711 -51.949,-51.3164 -77.055,-77.8246 -20.679,-21.832 -50.332,-46.902 -61.972,-75.617 -12.266,-30.254 7.457,-74.89 44.504,-74.223 20.132,0.364 35.949,16.192 49.285,28.907 29.172,27.804 56.18,58.254 84.16,87.265 50.445,52.301 107.359,101.7972 152.094,159.15272 37.48,48.05078 64.758,110.19128 46.023,171.50428 -15.453,50.57 -61.043,85.257 -112.265,93.742 -58.891,9.758 -114.375,-11.988 -155.29,-53.953 -34.652,-35.539 -86.238,-78.309 -42.539,-126.7152 12.965,-14.3593 34.129,6.9102 21.215,21.2152"
           style="fill:#6780a7;fill-opacity:1;fill-rule:nonzero;stroke:none"
           id="path14" />
        <path
           d="m 661.145,259.309 c -3.688,-21.868 -5.762,-43.797 -5.86,-65.981 -0.082,-19.308 29.918,-19.332 30,0 0.086,19.481 1.547,38.789 4.785,58.008 3.184,18.883 -25.718,27 -28.925,7.973 l 0,0"
           style="fill:#6780a7;fill-opacity:1;fill-rule:nonzero;stroke:none"
           id="path16" />
        <path
           d="m 704.098,73.332 c 22.761,-3.9297 45.867,-7.039 68.375,-12.2343 18.789,-4.336 26.808,24.582 7.972,28.9296 -22.507,5.1915 -45.609,8.3008 -68.371,12.2307 -18.883,3.262 -26.996,-25.6447 -7.976,-28.926 l 0,0"
           style="fill:#6780a7;fill-opacity:1;fill-rule:nonzero;stroke:none"
           id="path18" />
        <path
           d="m 5776.23,-44.6523 c 10.77,38.78121 -6.51,82.3945 -50.09,88.0117 -38.51,4.9648 -79.78,-22.4922 -92.75,-58.4727 -14.13,-39.2226 9.22,-78.5664 49.19,-87.9687 43.67,-10.273 78.98,19.1836 93.65,58.4297 6.77,18.1054 -22.22,25.9257 -28.93,7.9765 -8.17,-21.8672 -27.04,-41.0586 -52.01,-38.3867 -27.2,2.9102 -43.47,27.7031 -32.21,53.2031 8.36,18.91799 28.88,33.168 49.37,35.4492 30.59,3.4102 41.95,-24.6914 34.85,-50.2656 -5.17,-18.6328 23.77,-26.582 28.93,-7.9765"
           style="fill:#9bc1e5;fill-opacity:1;fill-rule:nonzero;stroke:none"
           id="path20" />
        <path
           d="m 10112.7,4180.13 c 11.5,9.39 17.1,26.3 12,40.49 -2.1,6.04 -5.9,11.39 -9.8,16.43 -13.6,17.32 -30.5,31.63 -44.8,48.58 -43.4,51.52 -125.97,67.62 -185.15,35.46 -24.34,-13.22 -44.43,-34.61 -54.72,-60.33 -12.98,-32.45 -9.8,-69.78 2.87,-102.35 25.68,-66.02 83.47,-112.79 131.29,-162.38 46.91,-48.59 93.71,-97.18 140.61,-145.76 0.7,-0.76 1.4,-1.51 2.2,-2.27 8.2,-10.86 20.4,-18.74 33.5,-22.65 2,-0.59 4,-1.09 6,-0.99 2.9,0.13 5.6,1.4 8.1,2.8 28,15.63 31.7,40.61 12.1,64.83 -77.9,96.47 -178.9,171.02 -247.89,275.05 -8.69,13.1 -16.15,27.58 -17.52,43.24 -2.51,28.7 20.59,53.26 48.66,55.89 19.84,1.85 39.66,-5.71 55.95,-17.19 20.6,-14.54 38.6,-35.05 52.6,-55.69 10.2,-15.09 26.7,-25.8 45.7,-18.05 3,1.22 5.8,2.88 8.3,4.89"
           style="fill:#ffffff;fill-opacity:1;fill-rule:nonzero;stroke:none"
           id="path22" />
        <path
           d="m 10102.1,4190.74 c 26,28.81 -39.6,84.36 -60.8,101.31 -31.5,25.19 -74.71,36.1 -114.55,28.18 -104.98,-20.86 -103.33,-134.35 -51.8,-206.64 41.94,-58.85 101.14,-108.09 151.15,-159.96 25.6,-26.5 51.1,-53 76.7,-79.51 7.1,-7.35 31.3,-35.25 41.9,-34.31 48.7,4.35 -20.2,78.66 -27.1,86.13 -47.6,51.59 -100,98.56 -146.73,150.91 -32.05,35.88 -86.12,87.53 -84.16,139.42 1.3,34.75 29.16,61.64 63.44,64.9 22.61,2.15 45.06,-6.94 63.55,-19.24 17.5,-11.67 69.5,-81.88 91.4,-68.84 16.6,9.88 31.7,-16.04 15.1,-25.91 -54.7,-32.52 -77.6,33.75 -112.7,61.8 -37.15,29.71 -113.68,30.96 -79.59,-47.59 7.14,-16.45 21.92,-32.27 32.9,-46.16 27.44,-34.76 58.19,-66.59 89.39,-97.94 25.8,-25.88 52,-51.32 77.1,-77.83 20.7,-21.83 50.3,-46.9 61.9,-75.61 12.3,-30.26 -7.4,-74.89 -44.5,-74.23 -20.1,0.37 -35.9,16.2 -49.2,28.91 -29.2,27.8 -56.2,58.25 -84.2,87.26 -50.45,52.31 -107.36,101.8 -152.1,159.16 -37.48,48.05 -64.75,110.19 -46.02,171.5 15.46,50.57 61.04,85.26 112.27,93.75 58.89,9.75 114.35,-11.99 155.25,-53.96 34.7,-35.54 86.3,-78.31 42.6,-126.71 -13,-14.36 -34.2,6.91 -21.2,21.21"
           style="fill:#9bc1e5;fill-opacity:1;fill-rule:nonzero;stroke:none"
           id="path24" />
        <path
           d="m 9965.45,4340.37 c 3.68,-21.87 5.76,-43.8 5.85,-65.98 0.09,-19.31 -29.91,-19.33 -30,0 -0.08,19.48 -1.54,38.79 -4.78,58 -3.18,18.89 25.72,27.01 28.93,7.98 l 0,0"
           style="fill:#9bc1e5;fill-opacity:1;fill-rule:nonzero;stroke:none"
           id="path26" />
        <path
           d="m 9922.49,4154.39 c -22.76,-3.93 -45.86,-7.04 -68.37,-12.23 -18.79,-4.34 -26.81,24.58 -7.98,28.93 22.51,5.19 45.62,8.3 68.38,12.23 18.88,3.26 26.99,-25.65 7.97,-28.93 l 0,0"
           style="fill:#9bc1e5;fill-opacity:1;fill-rule:nonzero;stroke:none"
           id="path28" />
        <path
           d="m 10040.2,4000.35 c -20.1,-10.11 -39.5,-21.22 -58.41,-33.37 -16.28,-10.48 -31.34,15.48 -15.14,25.9 18.88,12.15 38.35,23.27 58.35,33.37 17.2,8.67 32.4,-17.2 15.2,-25.9 l 0,0"
           style="fill:#9bc1e5;fill-opacity:1;fill-rule:nonzero;stroke:none"
           id="path30" />
        <path
           d="m 10114.6,7517.82 c 10.8,38.78 -6.5,82.39 -50,88.01 -38.6,4.96 -79.82,-22.49 -92.79,-58.47 -14.14,-39.23 9.22,-78.57 49.19,-87.97 43.7,-10.27 79,19.18 93.6,58.43 6.8,18.1 -22.2,25.92 -28.9,7.97 -8.2,-21.86 -27,-41.05 -52,-38.38 -27.2,2.91 -43.46,27.7 -32.2,53.2 8.4,18.92 28.9,33.17 49.4,35.45 30.6,3.41 41.9,-24.69 34.8,-50.27 -5.2,-18.63 23.8,-26.58 28.9,-7.97"
           style="fill:#6780a7;fill-opacity:1;fill-rule:nonzero;stroke:none"
           id="path32" />
        <path
           d="m 10035.7,-44.207 -9999.9812,0 0,9999.997 9999.9812,0 0,-9999.997"
           style="fill:#e9f0f2;fill-opacity:1;fill-rule:nonzero;stroke:none"
           id="path34" />
        <path
           d="m 513.926,10099.1 c -11.582,9.4 -17.129,26.3 -12.055,40.5 2.16,6 5.895,11.3 9.863,16.4 13.61,17.3 30.442,31.6 44.727,48.6 43.406,51.5 125.996,67.6 185.184,35.4 24.339,-13.2 44.421,-34.6 54.71,-60.3 12.985,-32.5 9.801,-69.8 -2.867,-102.4 -25.675,-66 -83.465,-112.74 -131.293,-162.33 -46.859,-48.59 -93.718,-97.18 -140.578,-145.76 -0.726,-0.76 -1.457,-1.51 -2.183,-2.27 -8.289,-10.86 -20.461,-18.74 -33.547,-22.65 -1.965,-0.59 -3.989,-1.09 -6.035,-1 -2.864,0.14 -5.543,1.41 -8.047,2.81 -27.992,15.63 -31.727,40.6 -12.157,64.83 77.954,96.47 178.946,171.02 247.938,275.07 8.684,13.1 16.141,27.6 17.512,43.2 2.519,28.7 -20.59,53.3 -48.66,55.9 -19.833,1.9 -39.653,-5.7 -55.934,-17.2 -20.621,-14.5 -38.621,-35 -52.598,-55.7 -10.218,-15.1 -26.715,-25.8 -45.754,-18 -2.988,1.2 -5.746,2.9 -8.226,4.9"
           style="fill:#ffffff;fill-opacity:1;fill-rule:nonzero;stroke:none"
           id="path36" />
        <path
           d="m 524.531,10109.7 c -26.011,28.8 39.551,84.3 60.735,101.3 31.504,25.2 74.738,36.1 114.574,28.2 104.976,-20.9 103.336,-134.4 51.805,-206.7 -41.946,-58.82 -101.149,-108.06 -151.172,-159.93 -25.563,-26.5 -51.121,-53 -76.684,-79.51 -7.094,-7.35 -31.301,-35.26 -41.891,-34.31 -48.707,4.35 20.215,78.66 27.11,86.13 47.574,51.59 99.945,98.56 146.711,150.91 32.051,35.91 86.117,87.51 84.164,139.41 -1.305,34.8 -29.168,61.6 -63.445,64.9 -22.606,2.2 -45.051,-6.9 -63.504,-19.2 -17.52,-11.7 -69.5,-81.9 -91.438,-68.9 -16.637,9.9 -31.742,-16 -15.141,-25.9 54.723,-32.5 77.614,33.8 112.708,61.8 37.171,29.7 113.707,31 79.617,-47.6 -7.137,-16.4 -21.922,-32.2 -32.895,-46.1 -27.437,-34.8 -58.203,-66.62 -89.414,-97.98 -25.758,-25.87 -51.949,-51.31 -77.055,-77.82 -20.679,-21.83 -50.332,-46.9 -61.972,-75.61 -12.266,-30.26 7.457,-74.9 44.504,-74.23 20.132,0.37 35.949,16.2 49.285,28.91 29.172,27.8 56.18,58.25 84.16,87.26 50.445,52.31 107.359,101.8 152.094,159.17 37.48,48 64.758,110.2 46.023,171.5 -15.453,50.6 -61.043,85.2 -112.265,93.7 -58.891,9.8 -114.375,-12 -155.29,-53.9 -34.652,-35.6 -86.238,-78.3 -42.539,-126.7 12.965,-14.4 34.129,6.9 21.215,21.2"
           style="fill:#6780a7;fill-opacity:1;fill-rule:nonzero;stroke:none"
           id="path38" />
        <path
           d="m 586.434,9919.29 c 20.043,-10.11 39.488,-21.23 58.363,-33.37 16.285,-10.48 31.344,15.48 15.141,25.9 -18.875,12.15 -38.321,23.27 -58.364,33.37 -17.199,8.67 -32.402,-17.2 -15.14,-25.9 l 0,0"
           style="fill:#6780a7;fill-opacity:1;fill-rule:nonzero;stroke:none"
           id="path40" />
        <path
           d="m 513.926,99.0742 c -11.582,9.3788 -17.129,26.2968 -12.055,40.4848 2.16,6.039 5.895,11.386 9.863,16.433 13.61,17.317 30.442,31.625 44.727,48.582 43.406,51.516 125.996,67.61 185.184,35.457 24.339,-13.222 44.421,-34.617 54.71,-60.332 12.985,-32.453 9.801,-69.777 -2.867,-102.3552 C 767.813,11.332 710.023,-35.4414 662.195,-85.0313 615.336,-133.617 568.477,-182.207 521.617,-230.797 c -0.726,-0.754 -1.457,-1.508 -2.183,-2.262 -8.289,-10.859 -20.461,-18.742 -33.547,-22.656 -1.965,-0.586 -3.989,-1.086 -6.035,-0.988 -2.864,0.129 -5.543,1.406 -8.047,2.805 -27.992,15.628 -31.727,40.601 -12.157,64.824 77.954,96.4724 178.946,171.0232 247.938,275.0545 8.684,13.0976 16.141,27.5825 17.512,43.2345 2.519,28.703 -20.59,53.265 -48.66,55.89 -19.833,1.86 -39.653,-5.707 -55.934,-17.183 -20.621,-14.539 -38.621,-35.055 -52.598,-55.692 -10.218,-15.0933 -26.715,-25.7964 -45.754,-18.0464 -2.988,1.2148 -5.746,2.8789 -8.226,4.8906"
           style="fill:#ffffff;fill-opacity:1;fill-rule:nonzero;stroke:none"
           id="path42" />
        <path
           d="m 524.531,109.68 c -26.011,28.812 39.551,84.363 60.735,101.304 31.504,25.196 74.738,36.106 114.574,28.188 C 804.816,218.305 803.176,104.82 751.645,32.5313 709.699,-26.3164 650.496,-75.5547 600.473,-127.43 c -25.563,-26.5 -51.121,-53.004 -76.684,-79.508 -7.094,-7.351 -31.301,-35.257 -41.891,-34.312 -48.707,4.348 20.215,78.656 27.11,86.133 47.574,51.586 99.945,98.5623 146.711,150.90997 32.051,35.87893 86.117,87.52733 84.164,139.42203 -1.305,34.746 -29.168,61.633 -63.445,64.89 -22.606,2.153 -45.051,-6.937 -63.504,-19.234 -17.52,-11.672 -69.5,-81.8827 -91.438,-68.848 -16.637,9.887 -31.742,-16.0347 -15.141,-25.9019 54.723,-32.5234 77.614,33.7539 112.708,61.8009 37.171,29.707 113.707,30.957 79.617,-47.594 -7.137,-16.4491 -21.922,-32.2655 -32.895,-46.1639 -27.437,-34.7578 -58.203,-66.586 -89.414,-97.9375 -25.758,-25.8711 -51.949,-51.3164 -77.055,-77.8246 -20.679,-21.832 -50.332,-46.902 -61.972,-75.617 -12.266,-30.254 7.457,-74.89 44.504,-74.223 20.132,0.364 35.949,16.192 49.285,28.907 29.172,27.804 56.18,58.254 84.16,87.265 50.445,52.301 107.359,101.7972 152.094,159.15272 37.48,48.05078 64.758,110.19128 46.023,171.50428 -15.453,50.57 -61.043,85.257 -112.265,93.742 -58.891,9.758 -114.375,-11.988 -155.29,-53.953 -34.652,-35.539 -86.238,-78.309 -42.539,-126.7152 12.965,-14.3593 34.129,6.9102 21.215,21.2152"
           style="fill:#6780a7;fill-opacity:1;fill-rule:nonzero;stroke:none"
           id="path44" />
        <path
           d="m 661.145,259.309 c -3.688,-21.868 -5.762,-43.797 -5.86,-65.981 -0.082,-19.308 29.918,-19.332 30,0 0.086,19.481 1.547,38.789 4.785,58.008 3.184,18.883 -25.718,27 -28.925,7.973 l 0,0"
           style="fill:#6780a7;fill-opacity:1;fill-rule:nonzero;stroke:none"
           id="path46" />
        <path
           d="m 704.098,73.332 c 22.761,-3.9297 45.867,-7.039 68.375,-12.2343 18.789,-4.336 26.808,24.582 7.972,28.9296 -22.507,5.1915 -45.609,8.3008 -68.371,12.2307 -18.883,3.262 -26.996,-25.6447 -7.976,-28.926 l 0,0"
           style="fill:#6780a7;fill-opacity:1;fill-rule:nonzero;stroke:none"
           id="path48" />
        <path
           d="m 5642.26,8021.8 c -11.58,9.38 -17.13,26.3 -12.06,40.49 2.17,6.04 5.9,11.39 9.87,16.43 13.6,17.32 30.44,31.63 44.72,48.58 43.41,51.52 126,67.62 185.19,35.46 24.34,-13.22 44.42,-34.61 54.71,-60.33 12.98,-32.45 9.8,-69.78 -2.87,-102.35 -25.67,-66.02 -83.46,-112.79 -131.29,-162.38 -46.86,-48.59 -93.72,-97.18 -140.58,-145.76 -0.73,-0.76 -1.46,-1.51 -2.18,-2.27 -8.29,-10.86 -20.46,-18.74 -33.55,-22.65 -1.96,-0.59 -3.99,-1.09 -6.04,-1 -2.86,0.14 -5.54,1.41 -8.04,2.81 -28,15.63 -31.73,40.6 -12.16,64.82 77.95,96.48 178.95,171.03 247.94,275.06 8.68,13.1 16.14,27.58 17.51,43.24 2.52,28.7 -20.59,53.26 -48.66,55.89 -19.83,1.85 -39.65,-5.71 -55.93,-17.19 -20.62,-14.54 -38.62,-35.05 -52.6,-55.69 -10.22,-15.09 -26.72,-25.8 -45.75,-18.05 -2.99,1.22 -5.75,2.88 -8.23,4.89"
           style="fill:#ffffff;fill-opacity:1;fill-rule:nonzero;stroke:none"
           id="path50" />
        <path
           d="m 5652.86,8032.41 c -26.01,28.81 39.56,84.36 60.74,101.31 31.5,25.19 74.74,36.1 114.57,28.18 104.98,-20.86 103.34,-134.35 51.81,-206.64 -41.95,-58.85 -101.15,-108.09 -151.18,-159.96 -25.56,-26.5 -51.12,-53 -76.68,-79.51 -7.09,-7.35 -31.3,-35.26 -41.89,-34.31 -48.7,4.35 20.22,78.66 27.11,86.13 47.57,51.59 99.95,98.56 146.71,150.91 32.05,35.88 86.12,87.53 84.17,139.42 -1.31,34.75 -29.17,61.64 -63.45,64.9 -22.6,2.15 -45.05,-6.94 -63.5,-19.24 -17.52,-11.67 -69.5,-81.88 -91.44,-68.84 -16.64,9.88 -31.74,-16.04 -15.14,-25.91 54.72,-32.52 77.61,33.75 112.71,61.8 37.17,29.71 113.7,30.96 79.61,-47.59 -7.13,-16.45 -21.92,-32.27 -32.89,-46.16 -27.44,-34.76 -58.2,-66.59 -89.42,-97.94 -25.75,-25.88 -51.94,-51.32 -77.05,-77.83 -20.68,-21.83 -50.33,-46.9 -61.97,-75.61 -12.27,-30.26 7.45,-74.89 44.5,-74.23 20.13,0.37 35.95,16.2 49.28,28.91 29.18,27.8 56.19,58.25 84.17,87.26 50.44,52.31 107.36,101.8 152.09,159.16 37.48,48.05 64.76,110.19 46.02,171.5 -15.45,50.57 -61.04,85.26 -112.26,93.74 -58.89,9.76 -114.38,-11.98 -155.29,-53.95 -34.66,-35.54 -86.24,-78.31 -42.54,-126.71 12.97,-14.36 34.13,6.9 21.21,21.21"
           style="fill:#9bc1e5;fill-opacity:1;fill-rule:nonzero;stroke:none"
           id="path52" />
        <path
           d="m 5789.48,8182.04 c -3.69,-21.87 -5.77,-43.8 -5.86,-65.98 -0.08,-19.31 29.92,-19.33 30,0 0.08,19.48 1.55,38.79 4.78,58 3.19,18.89 -25.72,27.01 -28.92,7.98 l 0,0"
           style="fill:#9bc1e5;fill-opacity:1;fill-rule:nonzero;stroke:none"
           id="path54" />
        <path
           d="m 5832.43,7996.06 c 22.76,-3.93 45.87,-7.04 68.38,-12.23 18.78,-4.34 26.8,24.58 7.97,28.93 -22.51,5.19 -45.61,8.3 -68.37,12.23 -18.89,3.26 -27,-25.65 -7.98,-28.93 l 0,0"
           style="fill:#9bc1e5;fill-opacity:1;fill-rule:nonzero;stroke:none"
           id="path56" />
        <path
           d="m 5714.76,7842.02 c 20.05,-10.11 39.49,-21.23 58.37,-33.37 16.29,-10.48 31.34,15.48 15.14,25.9 -18.87,12.15 -38.32,23.27 -58.36,33.37 -17.2,8.67 -32.41,-17.2 -15.15,-25.9 l 0,0"
           style="fill:#9bc1e5;fill-opacity:1;fill-rule:nonzero;stroke:none"
           id="path58" />
        <path
           d="m 1732.26,3039.88 c -11.58,9.38 -17.13,26.3 -12.06,40.48 2.17,6.05 5.9,11.39 9.87,16.44 13.6,17.32 30.44,31.63 44.72,48.58 43.41,51.52 126,67.61 185.19,35.46 24.34,-13.22 44.42,-34.62 54.71,-60.33 12.98,-32.45 9.8,-69.78 -2.87,-102.36 -25.67,-66.01 -83.46,-112.78 -131.29,-162.37 -46.86,-48.59 -93.72,-97.18 -140.58,-145.77 -0.73,-0.75 -1.46,-1.51 -2.18,-2.26 -8.29,-10.86 -20.46,-18.74 -33.55,-22.66 -1.96,-0.58 -3.99,-1.08 -6.04,-0.99 -2.86,0.13 -5.54,1.41 -8.04,2.81 -28,15.63 -31.73,40.6 -12.16,64.82 77.95,96.47 178.95,171.03 247.94,275.06 8.68,13.09 16.14,27.58 17.51,43.23 2.52,28.7 -20.59,53.27 -48.66,55.89 -19.83,1.86 -39.65,-5.7 -55.93,-17.18 -20.62,-14.54 -38.62,-35.06 -52.6,-55.69 -10.22,-15.09 -26.72,-25.8 -45.75,-18.05 -2.99,1.22 -5.75,2.88 -8.23,4.89"
           style="fill:#cbd8e5;fill-opacity:1;fill-rule:nonzero;stroke:none"
           id="path60" />
        <path
           d="m 1742.86,3050.49 c -26.01,28.81 39.56,84.36 60.74,101.3 31.5,25.2 74.74,36.11 114.57,28.19 104.98,-20.87 103.34,-134.35 51.81,-206.64 -41.95,-58.85 -101.15,-108.09 -151.18,-159.96 -25.56,-26.5 -51.12,-53.01 -76.68,-79.51 -7.09,-7.35 -31.3,-35.26 -41.89,-34.31 -48.7,4.34 20.22,78.65 27.11,86.13 47.57,51.59 99.95,98.56 146.71,150.91 32.05,35.88 86.12,87.53 84.17,139.42 -1.31,34.75 -29.17,61.64 -63.45,64.89 -22.6,2.15 -45.05,-6.94 -63.5,-19.23 -17.52,-11.67 -69.5,-81.89 -91.44,-68.85 -16.64,9.89 -31.74,-16.04 -15.14,-25.9 54.72,-32.52 77.61,33.75 112.71,61.8 37.17,29.71 113.7,30.96 79.61,-47.6 -7.13,-16.44 -21.92,-32.26 -32.89,-46.16 -27.44,-34.76 -58.2,-66.59 -89.42,-97.94 -25.75,-25.87 -51.95,-51.31 -77.05,-77.82 -20.68,-21.83 -50.33,-46.9 -61.97,-75.62 -12.27,-30.25 7.45,-74.89 44.5,-74.22 20.13,0.36 35.95,16.19 49.28,28.9 29.18,27.81 56.19,58.26 84.17,87.27 50.44,52.3 107.36,101.8 152.09,159.15 37.48,48.06 64.76,110.2 46.02,171.51 -15.45,50.57 -61.04,85.26 -112.26,93.74 -58.89,9.76 -114.38,-11.99 -155.29,-53.95 -34.66,-35.54 -86.24,-78.31 -42.54,-126.72 12.97,-14.36 34.13,6.91 21.21,21.22"
           style="fill:#6780a7;fill-opacity:1;fill-rule:nonzero;stroke:none"
           id="path62" />
        <path
           d="m 1879.48,3200.12 c -3.69,-21.87 -5.77,-43.8 -5.86,-65.98 -0.08,-19.31 29.92,-19.34 30,0 0.08,19.48 1.55,38.78 4.78,58 3.19,18.89 -25.72,27 -28.92,7.98 l 0,0"
           style="fill:#6780a7;fill-opacity:1;fill-rule:nonzero;stroke:none"
           id="path64" />
        <path
           d="m 1922.43,3014.14 c 22.76,-3.93 45.87,-7.04 68.38,-12.23 18.78,-4.34 26.8,24.58 7.97,28.92 -22.51,5.2 -45.61,8.31 -68.37,12.24 -18.89,3.26 -27,-25.65 -7.98,-28.93 l 0,0"
           style="fill:#6780a7;fill-opacity:1;fill-rule:nonzero;stroke:none"
           id="path66" />
        <path
           d="m 1804.76,2860.1 c 20.05,-10.11 39.49,-21.23 58.37,-33.37 16.29,-10.48 31.34,15.48 15.14,25.9 -18.87,12.15 -38.32,23.26 -58.36,33.37 -17.2,8.67 -32.41,-17.2 -15.15,-25.9 l 0,0"
           style="fill:#6780a7;fill-opacity:1;fill-rule:nonzero;stroke:none"
           id="path68" />
        <path
           d="m 5129.2,5044.84 c -11.58,9.38 -17.13,26.3 -12.06,40.48 2.17,6.05 5.9,11.39 9.87,16.44 13.61,17.32 30.44,31.63 44.72,48.58 43.41,51.52 126,67.61 185.19,35.46 24.34,-13.22 44.42,-34.62 54.71,-60.33 12.98,-32.45 9.8,-69.78 -2.87,-102.36 -25.67,-66.01 -83.46,-112.78 -131.29,-162.37 -46.86,-48.59 -93.72,-97.18 -140.58,-145.77 -0.73,-0.75 -1.46,-1.51 -2.18,-2.26 -8.29,-10.86 -20.46,-18.74 -33.55,-22.66 -1.96,-0.58 -3.99,-1.08 -6.04,-0.99 -2.86,0.13 -5.54,1.41 -8.04,2.81 -28,15.63 -31.73,40.6 -12.16,64.82 77.95,96.47 178.95,171.03 247.94,275.06 8.68,13.09 16.14,27.58 17.51,43.23 2.52,28.7 -20.59,53.27 -48.66,55.89 -19.83,1.86 -39.65,-5.7 -55.93,-17.18 -20.62,-14.54 -38.62,-35.06 -52.6,-55.69 -10.22,-15.09 -26.72,-25.8 -45.75,-18.05 -2.99,1.22 -5.75,2.88 -8.23,4.89"
           style="fill:#cbd8e5;fill-opacity:1;fill-rule:nonzero;stroke:none"
           id="path70" />
        <path
           d="m 5139.8,5055.45 c -26.01,28.81 39.56,84.36 60.74,101.3 31.5,25.2 74.74,36.11 114.57,28.19 104.98,-20.87 103.34,-134.35 51.81,-206.64 -41.95,-58.85 -101.15,-108.09 -151.18,-159.96 -25.56,-26.5 -51.12,-53.01 -76.68,-79.51 -7.09,-7.35 -31.3,-35.26 -41.89,-34.31 -48.7,4.34 20.22,78.65 27.11,86.13 47.57,51.59 99.95,98.56 146.71,150.91 32.05,35.88 86.12,87.53 84.17,139.42 -1.31,34.75 -29.17,61.64 -63.45,64.89 -22.6,2.15 -45.05,-6.94 -63.5,-19.23 -17.52,-11.67 -69.5,-81.89 -91.44,-68.85 -16.64,9.89 -31.74,-16.04 -15.14,-25.9 54.72,-32.52 77.61,33.75 112.71,61.8 37.17,29.7 113.7,30.96 79.61,-47.6 -7.13,-16.44 -21.92,-32.26 -32.89,-46.16 -27.44,-34.76 -58.2,-66.59 -89.42,-97.94 -25.75,-25.87 -51.94,-51.31 -77.05,-77.82 -20.68,-21.83 -50.33,-46.9 -61.97,-75.62 -12.27,-30.25 7.45,-74.89 44.5,-74.22 20.13,0.36 35.95,16.19 49.28,28.9 29.17,27.81 56.19,58.26 84.17,87.27 50.44,52.3 107.36,101.8 152.09,159.15 37.48,48.06 64.76,110.2 46.02,171.51 -15.45,50.57 -61.04,85.26 -112.26,93.74 -58.89,9.76 -114.38,-11.99 -155.29,-53.95 -34.66,-35.54 -86.24,-78.31 -42.54,-126.72 12.97,-14.36 34.13,6.91 21.21,21.22"
           style="fill:#6780a7;fill-opacity:1;fill-rule:nonzero;stroke:none"
           id="path72" />
        <path
           d="m 5276.42,5205.08 c -3.69,-21.87 -5.77,-43.8 -5.86,-65.98 -0.08,-19.31 29.92,-19.34 30,0 0.08,19.48 1.55,38.78 4.78,58 3.19,18.89 -25.72,27 -28.92,7.98 l 0,0"
           style="fill:#6780a7;fill-opacity:1;fill-rule:nonzero;stroke:none"
           id="path74" />
        <path
           d="m 5319.37,5019.1 c 22.76,-3.93 45.87,-7.04 68.38,-12.23 18.78,-4.34 26.8,24.58 7.97,28.92 -22.51,5.2 -45.61,8.31 -68.37,12.24 -18.89,3.26 -27,-25.65 -7.98,-28.93 l 0,0"
           style="fill:#6780a7;fill-opacity:1;fill-rule:nonzero;stroke:none"
           id="path76" />
        <path
           d="m 5201.7,4865.05 c 20.05,-10.1 39.49,-21.22 58.37,-33.36 16.28,-10.48 31.34,15.48 15.14,25.9 -18.87,12.15 -38.32,23.26 -58.36,33.37 -17.2,8.67 -32.41,-17.2 -15.15,-25.91 l 0,0"
           style="fill:#6780a7;fill-opacity:1;fill-rule:nonzero;stroke:none"
           id="path78" />
        <path
           d="m 3969.2,1204.84 c -11.58,9.38 -17.13,26.3 -12.06,40.48 2.17,6.05 5.9,11.39 9.87,16.44 13.61,17.31 30.44,31.63 44.72,48.58 43.41,51.52 126,67.61 185.19,35.46 24.34,-13.22 44.42,-34.62 54.71,-60.33 12.98,-32.45 9.8,-69.78 -2.87,-102.36 -25.67,-66.01 -83.46,-112.78 -131.29,-162.37 -46.86,-48.592 -93.72,-97.177 -140.58,-145.767 -0.73,-0.754 -1.46,-1.508 -2.18,-2.262 -8.29,-10.863 -20.46,-18.746 -33.55,-22.656 -1.96,-0.59 -3.99,-1.086 -6.04,-0.992 -2.86,0.128 -5.54,1.406 -8.04,2.804 -28,15.629 -31.73,40.606 -12.16,64.824 77.95,96.469 178.95,171.029 247.94,275.059 8.68,13.09 16.14,27.58 17.51,43.23 2.52,28.7 -20.59,53.27 -48.66,55.89 -19.83,1.86 -39.65,-5.7 -55.93,-17.18 -20.62,-14.54 -38.62,-35.06 -52.6,-55.69 -10.22,-15.09 -26.72,-25.8 -45.75,-18.05 -2.99,1.22 -5.75,2.88 -8.23,4.89"
           style="fill:#ffffff;fill-opacity:1;fill-rule:nonzero;stroke:none"
           id="path80" />
        <path
           d="m 3979.8,1215.45 c -26.01,28.81 39.56,84.36 60.74,101.3 31.5,25.2 74.74,36.11 114.57,28.19 104.98,-20.87 103.34,-134.35 51.81,-206.64 -41.95,-58.85 -101.15,-108.09 -151.18,-159.96 -25.56,-26.504 -51.12,-53.008 -76.68,-79.508 -7.09,-7.355 -31.3,-35.262 -41.89,-34.316 -48.7,4.347 20.22,78.66 27.11,86.132 47.57,51.592 99.95,98.562 146.71,150.912 32.05,35.88 86.12,87.53 84.17,139.42 -1.31,34.75 -29.17,61.64 -63.45,64.89 -22.6,2.15 -45.05,-6.94 -63.5,-19.23 -17.52,-11.67 -69.5,-81.89 -91.44,-68.85 -16.64,9.89 -31.74,-16.04 -15.14,-25.9 54.72,-32.52 77.61,33.75 112.71,61.8 37.17,29.7 113.7,30.96 79.61,-47.6 -7.13,-16.44 -21.92,-32.26 -32.89,-46.16 -27.44,-34.76 -58.2,-66.59 -89.42,-97.94 -25.75,-25.87 -51.94,-51.31 -77.05,-77.822 -20.68,-21.832 -50.33,-46.902 -61.97,-75.613 -12.27,-30.258 7.45,-74.895 44.5,-74.227 20.13,0.363 35.95,16.195 49.28,28.906 29.17,27.809 56.19,58.254 84.17,87.266 50.44,52.3 107.36,101.8 152.09,159.15 37.48,48.06 64.76,110.2 46.02,171.51 -15.45,50.57 -61.04,85.26 -112.26,93.74 -58.89,9.76 -114.38,-11.99 -155.29,-53.95 -34.66,-35.54 -86.24,-78.31 -42.54,-126.72 12.97,-14.36 34.13,6.91 21.21,21.22"
           style="fill:#9bc1e5;fill-opacity:1;fill-rule:nonzero;stroke:none"
           id="path82" />
        <path
           d="m 4116.42,1365.08 c -3.69,-21.87 -5.77,-43.8 -5.86,-65.98 -0.08,-19.31 29.92,-19.34 30,0 0.08,19.48 1.55,38.78 4.78,58 3.19,18.89 -25.72,27 -28.92,7.98 l 0,0"
           style="fill:#9bc1e5;fill-opacity:1;fill-rule:nonzero;stroke:none"
           id="path84" />
        <path
           d="m 4159.37,1179.1 c 22.76,-3.93 45.87,-7.04 68.38,-12.23 18.78,-4.34 26.8,24.58 7.97,28.92 -22.51,5.2 -45.61,8.31 -68.37,12.24 -18.89,3.26 -27,-25.65 -7.98,-28.93 l 0,0"
           style="fill:#9bc1e5;fill-opacity:1;fill-rule:nonzero;stroke:none"
           id="path86" />
        <path
           d="m 4041.7,1025.06 c 20.05,-10.11 39.49,-21.23 58.37,-33.372 16.28,-10.477 31.34,15.482 15.14,25.902 -18.87,12.15 -38.32,23.26 -58.36,33.37 -17.2,8.67 -32.41,-17.2 -15.15,-25.9 l 0,0"
           style="fill:#9bc1e5;fill-opacity:1;fill-rule:nonzero;stroke:none"
           id="path88" />
        <path
           d="m 8463.21,5893.04 c -11.58,9.38 -17.12,26.3 -12.05,40.49 2.16,6.04 5.9,11.39 9.86,16.43 13.61,17.32 30.44,31.63 44.73,48.58 43.41,51.52 126,67.61 185.18,35.46 24.34,-13.22 44.43,-34.62 54.72,-60.33 12.98,-32.45 9.8,-69.78 -2.87,-102.36 -25.68,-66.01 -83.47,-112.78 -131.29,-162.37 -46.86,-48.59 -93.72,-97.18 -140.58,-145.76 -0.73,-0.76 -1.46,-1.51 -2.19,-2.27 -8.29,-10.86 -20.46,-18.74 -33.55,-22.65 -1.96,-0.59 -3.98,-1.09 -6.03,-1 -2.86,0.14 -5.54,1.41 -8.05,2.81 -27.99,15.63 -31.72,40.6 -12.15,64.82 77.95,96.48 178.94,171.03 247.93,275.06 8.69,13.1 16.15,27.58 17.52,43.24 2.51,28.7 -20.59,53.26 -48.66,55.89 -19.84,1.85 -39.66,-5.71 -55.94,-17.19 -20.62,-14.54 -38.62,-35.05 -52.59,-55.69 -10.22,-15.09 -26.72,-25.8 -45.76,-18.05 -2.99,1.22 -5.75,2.88 -8.23,4.89"
           style="fill:#cbd8e5;fill-opacity:1;fill-rule:nonzero;stroke:none"
           id="path90" />
        <path
           d="m 8473.82,5903.65 c -26.01,28.81 39.55,84.36 60.73,101.3 31.51,25.2 74.74,36.11 114.58,28.19 104.98,-20.86 103.33,-134.35 51.81,-206.64 -41.95,-58.85 -101.15,-108.09 -151.18,-159.96 -25.56,-26.5 -51.12,-53 -76.68,-79.51 -7.09,-7.35 -31.3,-35.26 -41.89,-34.31 -48.71,4.35 20.21,78.66 27.11,86.13 47.57,51.59 99.94,98.56 146.71,150.91 32.05,35.88 86.12,87.53 84.16,139.42 -1.3,34.75 -29.16,61.64 -63.44,64.9 -22.61,2.15 -45.05,-6.94 -63.51,-19.24 -17.52,-11.67 -69.5,-81.88 -91.44,-68.85 -16.63,9.89 -31.74,-16.03 -15.14,-25.9 54.73,-32.52 77.62,33.75 112.71,61.8 37.18,29.71 113.71,30.96 79.62,-47.59 -7.14,-16.45 -21.92,-32.27 -32.9,-46.17 -27.44,-34.75 -58.2,-66.58 -89.41,-97.94 -25.76,-25.87 -51.95,-51.31 -77.06,-77.82 -20.67,-21.83 -50.33,-46.9 -61.97,-75.61 -12.26,-30.26 7.46,-74.9 44.5,-74.23 20.14,0.36 35.95,16.19 49.29,28.91 29.17,27.8 56.18,58.25 84.16,87.26 50.45,52.31 107.36,101.8 152.1,159.16 37.48,48.05 64.75,110.19 46.02,171.5 -15.46,50.57 -61.04,85.26 -112.27,93.74 -58.89,9.76 -114.37,-11.99 -155.29,-53.95 -34.65,-35.54 -86.23,-78.31 -42.53,-126.71 12.96,-14.37 34.12,6.9 21.21,21.21"
           style="fill:#ffffff;fill-opacity:1;fill-rule:nonzero;stroke:none"
           id="path92" />
        <path
           d="m 8610.43,6053.28 c -3.68,-21.87 -5.76,-43.8 -5.85,-65.98 -0.09,-19.31 29.91,-19.33 30,0 0.08,19.48 1.54,38.79 4.78,58 3.18,18.89 -25.72,27 -28.93,7.98 l 0,0"
           style="fill:#ffffff;fill-opacity:1;fill-rule:nonzero;stroke:none"
           id="path94" />
        <path
           d="m 8653.39,5867.3 c 22.76,-3.93 45.86,-7.04 68.37,-12.23 18.79,-4.34 26.81,24.58 7.98,28.93 -22.51,5.19 -45.62,8.3 -68.38,12.23 -18.88,3.26 -26.99,-25.65 -7.97,-28.93 l 0,0"
           style="fill:#ffffff;fill-opacity:1;fill-rule:nonzero;stroke:none"
           id="path96" />
        <path
           d="m 8535.72,5713.26 c 20.04,-10.11 39.49,-21.23 58.37,-33.37 16.28,-10.48 31.34,15.48 15.14,25.9 -18.88,12.15 -38.33,23.27 -58.37,33.37 -17.19,8.67 -32.4,-17.2 -15.14,-25.9 l 0,0"
           style="fill:#ffffff;fill-opacity:1;fill-rule:nonzero;stroke:none"
           id="path98" />
        <path
           d="m 753.215,6521.47 c -11.582,9.38 -17.129,26.29 -12.055,40.48 2.16,6.04 5.895,11.39 9.863,16.43 13.606,17.32 30.438,31.63 44.727,48.59 43.406,51.51 125.996,67.61 185.184,35.45 24.336,-13.22 44.426,-34.61 54.716,-60.33 12.98,-32.45 9.8,-69.78 -2.87,-102.35 -25.68,-66.02 -83.467,-112.79 -131.292,-162.38 -46.863,-48.59 -93.722,-97.17 -140.582,-145.76 -0.73,-0.76 -1.457,-1.51 -2.183,-2.27 -8.289,-10.86 -20.461,-18.74 -33.551,-22.65 -1.961,-0.59 -3.984,-1.09 -6.031,-0.99 -2.864,0.13 -5.543,1.4 -8.047,2.8 -27.996,15.63 -31.727,40.61 -12.156,64.83 77.949,96.47 178.945,171.02 247.937,275.05 8.684,13.1 16.141,27.58 17.512,43.24 2.515,28.7 -20.59,53.26 -48.66,55.89 -19.832,1.85 -39.653,-5.71 -55.934,-17.19 -20.621,-14.54 -38.621,-35.05 -52.598,-55.69 -10.218,-15.09 -26.715,-25.79 -45.754,-18.05 -2.988,1.22 -5.746,2.89 -8.226,4.9"
           style="fill:#ffffff;fill-opacity:1;fill-rule:nonzero;stroke:none"
           id="path100" />
        <path
           d="m 763.82,6532.07 c -26.015,28.82 39.551,84.37 60.735,101.31 31.5,25.19 74.738,36.1 114.574,28.18 104.981,-20.86 103.331,-134.35 51.805,-206.64 -41.946,-58.84 -101.145,-108.08 -151.176,-159.96 -25.559,-26.5 -51.117,-53 -76.68,-79.5 -7.094,-7.36 -31.301,-35.26 -41.89,-34.32 -48.708,4.35 20.214,78.66 27.109,86.14 47.574,51.58 99.945,98.56 146.711,150.91 32.051,35.87 86.117,87.52 84.168,139.42 -1.309,34.74 -29.168,61.63 -63.449,64.89 -22.606,2.15 -45.051,-6.94 -63.504,-19.24 -17.52,-11.67 -69.5,-81.88 -91.438,-68.84 -16.637,9.88 -31.742,-16.04 -15.144,-25.91 54.726,-32.52 77.617,33.76 112.711,61.8 37.175,29.71 113.707,30.96 79.617,-47.59 -7.137,-16.45 -21.922,-32.26 -32.895,-46.16 -27.441,-34.76 -58.203,-66.59 -89.414,-97.94 -25.758,-25.87 -51.949,-51.32 -77.058,-77.83 -20.676,-21.83 -50.329,-46.9 -61.969,-75.61 -12.266,-30.26 7.457,-74.89 44.5,-74.23 20.137,0.37 35.953,16.2 49.289,28.91 29.168,27.81 56.183,58.25 84.16,87.26 50.445,52.31 107.359,101.81 152.098,159.16 37.48,48.05 64.75,110.19 46.02,171.5 -15.46,50.57 -61.044,85.26 -112.266,93.75 -58.891,9.75 -114.375,-11.99 -155.289,-53.96 -34.653,-35.54 -86.239,-78.3 -42.54,-126.71 12.965,-14.36 34.129,6.91 21.215,21.21"
           style="fill:#9bc1e5;fill-opacity:1;fill-rule:nonzero;stroke:none"
           id="path102" />
        <path
           d="m 900.434,6681.7 c -3.688,-21.86 -5.762,-43.8 -5.86,-65.98 -0.082,-19.31 29.918,-19.33 30,0 0.082,19.48 1.547,38.79 4.785,58.01 3.184,18.88 -25.718,27 -28.925,7.97 l 0,0"
           style="fill:#9bc1e5;fill-opacity:1;fill-rule:nonzero;stroke:none"
           id="path104" />
        <path
           d="m 943.387,6495.72 c 22.758,-3.93 45.867,-7.04 68.373,-12.23 18.79,-4.34 26.81,24.58 7.98,28.93 -22.513,5.19 -45.619,8.3 -68.377,12.23 -18.883,3.26 -26.996,-25.64 -7.976,-28.93 l 0,0"
           style="fill:#9bc1e5;fill-opacity:1;fill-rule:nonzero;stroke:none"
           id="path106" />
        <path
           d="m 825.719,6341.68 c 20.043,-10.11 39.492,-21.22 58.367,-33.37 16.285,-10.47 31.344,15.48 15.141,25.91 -18.875,12.14 -38.325,23.26 -58.364,33.36 -17.195,8.67 -32.402,-17.2 -15.144,-25.9 l 0,0"
           style="fill:#9bc1e5;fill-opacity:1;fill-rule:nonzero;stroke:none"
           id="path108" />
        <path
           d="m 4929.07,7764.14 c 11.58,9.38 17.13,26.3 12.05,40.48 -2.16,6.05 -5.89,11.39 -9.86,16.44 -13.61,17.31 -30.44,31.62 -44.73,48.58 -43.4,51.51 -125.99,67.61 -185.18,35.46 -24.34,-13.23 -44.42,-34.62 -54.71,-60.34 -12.99,-32.45 -9.8,-69.77 2.87,-102.35 25.67,-66.01 83.46,-112.78 131.29,-162.37 46.86,-48.59 93.72,-97.18 140.58,-145.77 0.73,-0.75 1.45,-1.51 2.18,-2.26 8.29,-10.86 20.46,-18.75 33.55,-22.66 1.96,-0.59 3.99,-1.08 6.03,-0.99 2.87,0.13 5.55,1.41 8.05,2.81 27.99,15.63 31.73,40.6 12.16,64.82 -77.96,96.47 -178.95,171.03 -247.94,275.06 -8.69,13.09 -16.14,27.58 -17.52,43.23 -2.51,28.7 20.6,53.27 48.67,55.89 19.83,1.86 39.65,-5.71 55.93,-17.18 20.62,-14.54 38.62,-35.06 52.6,-55.7 10.22,-15.09 26.71,-25.79 45.75,-18.04 2.99,1.21 5.75,2.88 8.23,4.89"
           style="fill:#cbd8e5;fill-opacity:1;fill-rule:nonzero;stroke:none"
           id="path110" />
        <path
           d="m 4918.46,7774.75 c 26.02,28.81 -39.55,84.36 -60.73,101.3 -31.5,25.2 -74.74,36.11 -114.57,28.19 -104.98,-20.87 -103.34,-134.35 -51.81,-206.64 41.95,-58.85 101.15,-108.09 151.17,-159.96 25.56,-26.51 51.12,-53.01 76.68,-79.51 7.1,-7.36 31.31,-35.26 41.9,-34.31 48.7,4.34 -20.22,78.65 -27.11,86.13 -47.58,51.59 -99.95,98.56 -146.72,150.91 -32.05,35.88 -86.11,87.53 -84.16,139.42 1.31,34.75 29.17,61.63 63.45,64.89 22.6,2.15 45.05,-6.94 63.5,-19.23 17.52,-11.67 69.5,-81.89 91.44,-68.85 16.63,9.89 31.74,-16.04 15.14,-25.9 -54.72,-32.53 -77.61,33.75 -112.71,61.8 -37.17,29.7 -113.71,30.96 -79.62,-47.6 7.14,-16.45 21.93,-32.26 32.9,-46.16 27.44,-34.76 58.2,-66.59 89.41,-97.94 25.76,-25.87 51.95,-51.31 77.06,-77.82 20.68,-21.84 50.33,-46.91 61.97,-75.62 12.27,-30.25 -7.46,-74.89 -44.5,-74.22 -20.14,0.36 -35.95,16.19 -49.29,28.9 -29.17,27.81 -56.18,58.26 -84.16,87.27 -50.44,52.3 -107.36,101.8 -152.09,159.15 -37.48,48.05 -64.76,110.19 -46.03,171.51 15.46,50.57 61.05,85.25 112.27,93.74 58.89,9.76 114.37,-11.99 155.29,-53.95 34.65,-35.54 86.24,-78.31 42.54,-126.72 -12.97,-14.36 -34.13,6.91 -21.22,21.22"
           style="fill:#ffffff;fill-opacity:1;fill-rule:nonzero;stroke:none"
           id="path112" />
        <path
           d="m 4781.85,7924.37 c 3.69,-21.86 5.76,-43.8 5.86,-65.98 0.08,-19.3 -29.92,-19.33 -30,0 -0.09,19.48 -1.55,38.79 -4.79,58.01 -3.18,18.88 25.72,27 28.93,7.97 l 0,0"
           style="fill:#ffffff;fill-opacity:1;fill-rule:nonzero;stroke:none"
           id="path114" />
        <path
           d="m 4738.9,7738.4 c -22.76,-3.93 -45.87,-7.04 -68.38,-12.24 -18.79,-4.33 -26.81,24.59 -7.97,28.93 22.51,5.2 45.61,8.31 68.37,12.23 18.88,3.26 27,-25.64 7.98,-28.92 l 0,0"
           style="fill:#ffffff;fill-opacity:1;fill-rule:nonzero;stroke:none"
           id="path116" />
        <path
           d="m 4856.56,7584.35 c -20.04,-10.1 -39.49,-21.22 -58.36,-33.36 -16.29,-10.48 -31.35,15.48 -15.15,25.9 18.88,12.14 38.33,23.26 58.37,33.37 17.2,8.67 32.4,-17.2 15.14,-25.91 l 0,0"
           style="fill:#ffffff;fill-opacity:1;fill-rule:nonzero;stroke:none"
           id="path118" />
        <path
           d="m 2812.68,3633.04 c 11.58,9.38 17.12,26.3 12.05,40.49 -2.16,6.04 -5.9,11.39 -9.86,16.43 -13.61,17.32 -30.44,31.63 -44.73,48.58 -43.41,51.52 -126,67.61 -185.18,35.46 -24.34,-13.22 -44.43,-34.62 -54.72,-60.33 -12.98,-32.45 -9.8,-69.78 2.87,-102.36 25.68,-66.01 83.47,-112.78 131.29,-162.37 46.86,-48.59 93.72,-97.18 140.58,-145.77 0.73,-0.75 1.46,-1.5 2.19,-2.26 8.29,-10.86 20.46,-18.74 33.55,-22.66 1.96,-0.58 3.98,-1.08 6.03,-0.99 2.86,0.14 5.54,1.41 8.05,2.81 27.99,15.63 31.72,40.6 12.15,64.82 -77.95,96.48 -178.94,171.03 -247.93,275.06 -8.69,13.1 -16.15,27.58 -17.52,43.24 -2.51,28.7 20.59,53.26 48.66,55.89 19.84,1.85 39.66,-5.71 55.94,-17.19 20.62,-14.54 38.62,-35.05 52.59,-55.69 10.22,-15.09 26.72,-25.8 45.76,-18.05 2.99,1.22 5.75,2.88 8.23,4.89"
           style="fill:#ffffff;fill-opacity:1;fill-rule:nonzero;stroke:none"
           id="path120" />
        <path
           d="m 2802.07,3643.65 c 26.01,28.81 -39.55,84.36 -60.73,101.3 -31.51,25.2 -74.74,36.11 -114.58,28.19 -104.98,-20.86 -103.33,-134.35 -51.81,-206.64 41.95,-58.85 101.15,-108.09 151.18,-159.96 25.56,-26.5 51.12,-53 76.68,-79.51 7.09,-7.35 31.3,-35.26 41.89,-34.31 48.71,4.35 -20.21,78.66 -27.11,86.13 -47.57,51.59 -99.94,98.56 -146.71,150.91 -32.05,35.88 -86.12,87.53 -84.16,139.42 1.3,34.75 29.16,61.64 63.44,64.9 22.61,2.15 45.05,-6.94 63.51,-19.24 17.52,-11.67 69.5,-81.88 91.44,-68.85 16.63,9.89 31.74,-16.03 15.14,-25.9 -54.73,-32.52 -77.62,33.75 -112.71,61.8 -37.18,29.71 -113.71,30.96 -79.62,-47.59 7.14,-16.45 21.92,-32.27 32.9,-46.17 27.44,-34.75 58.2,-66.58 89.41,-97.94 25.76,-25.87 51.95,-51.31 77.06,-77.82 20.67,-21.83 50.33,-46.9 61.97,-75.61 12.26,-30.26 -7.46,-74.9 -44.5,-74.23 -20.14,0.36 -35.96,16.19 -49.29,28.91 -29.17,27.8 -56.18,58.25 -84.16,87.26 -50.45,52.31 -107.36,101.8 -152.1,159.16 -37.48,48.05 -64.75,110.19 -46.02,171.5 15.45,50.57 61.04,85.26 112.27,93.74 58.89,9.76 114.37,-11.99 155.29,-53.95 34.65,-35.54 86.23,-78.31 42.53,-126.71 -12.96,-14.37 -34.12,6.9 -21.21,21.21"
           style="fill:#9bc1e5;fill-opacity:1;fill-rule:nonzero;stroke:none"
           id="path122" />
        <path
           d="m 2665.46,3793.28 c 3.68,-21.87 5.76,-43.8 5.85,-65.98 0.09,-19.31 -29.91,-19.33 -30,0 -0.08,19.48 -1.54,38.79 -4.78,58 -3.18,18.89 25.72,27 28.93,7.98 l 0,0"
           style="fill:#9bc1e5;fill-opacity:1;fill-rule:nonzero;stroke:none"
           id="path124" />
        <path
           d="m 2622.5,3607.3 c -22.76,-3.93 -45.86,-7.04 -68.37,-12.23 -18.79,-4.34 -26.81,24.58 -7.98,28.93 22.51,5.19 45.62,8.3 68.38,12.23 18.88,3.26 26.99,-25.65 7.97,-28.93 l 0,0"
           style="fill:#9bc1e5;fill-opacity:1;fill-rule:nonzero;stroke:none"
           id="path126" />
        <path
           d="m 2740.17,3453.26 c -20.04,-10.11 -39.49,-21.23 -58.37,-33.37 -16.28,-10.48 -31.34,15.48 -15.14,25.9 18.88,12.15 38.33,23.27 58.37,33.37 17.19,8.67 32.4,-17.2 15.14,-25.9 l 0,0"
           style="fill:#9bc1e5;fill-opacity:1;fill-rule:nonzero;stroke:none"
           id="path128" />
        <path
           d="m 7732.93,8706.95 c 11.58,9.38 17.12,26.29 12.05,40.48 -2.16,6.04 -5.9,11.39 -9.86,16.44 -13.61,17.31 -30.44,31.62 -44.73,48.58 -43.41,51.51 -126,67.61 -185.18,35.45 -24.34,-13.22 -44.43,-34.61 -54.72,-60.33 -12.98,-32.45 -9.8,-69.78 2.87,-102.35 25.68,-66.01 83.47,-112.79 131.29,-162.38 46.86,-48.59 93.72,-97.17 140.58,-145.76 0.73,-0.76 1.46,-1.51 2.19,-2.27 8.29,-10.85 20.46,-18.74 33.55,-22.65 1.96,-0.59 3.98,-1.09 6.03,-0.99 2.86,0.13 5.54,1.41 8.05,2.8 27.99,15.63 31.72,40.61 12.15,64.83 -77.95,96.47 -178.94,171.02 -247.93,275.05 -8.69,13.1 -16.14,27.58 -17.52,43.24 -2.51,28.7 20.59,53.26 48.66,55.89 19.84,1.86 39.66,-5.71 55.94,-17.19 20.62,-14.54 38.62,-35.05 52.59,-55.69 10.22,-15.09 26.72,-25.79 45.76,-18.04 2.99,1.21 5.75,2.88 8.23,4.89"
           style="fill:#cbd8e5;fill-opacity:1;fill-rule:nonzero;stroke:none"
           id="path130" />
        <path
           d="m 7722.32,8717.55 c 26.01,28.82 -39.55,84.37 -60.73,101.31 -31.51,25.19 -74.74,36.1 -114.58,28.18 -104.98,-20.86 -103.33,-134.35 -51.8,-206.64 41.94,-58.84 101.14,-108.08 151.17,-159.96 25.56,-26.5 51.12,-53 76.68,-79.5 7.1,-7.36 31.3,-35.26 41.89,-34.32 48.71,4.35 -20.21,78.66 -27.11,86.14 -47.57,51.58 -99.94,98.56 -146.71,150.91 -32.05,35.87 -86.12,87.52 -84.16,139.42 1.3,34.74 29.16,61.63 63.44,64.89 22.61,2.15 45.06,-6.94 63.51,-19.23 17.52,-11.68 69.5,-81.89 91.44,-68.85 16.63,9.89 31.74,-16.04 15.14,-25.91 -54.73,-32.52 -77.62,33.76 -112.71,61.8 -37.17,29.71 -113.71,30.96 -79.62,-47.59 7.14,-16.45 21.92,-32.26 32.9,-46.16 27.44,-34.76 58.2,-66.59 89.41,-97.94 25.76,-25.87 51.95,-51.32 77.06,-77.83 20.67,-21.83 50.33,-46.9 61.97,-75.61 12.26,-30.26 -7.46,-74.89 -44.5,-74.22 -20.14,0.36 -35.95,16.19 -49.29,28.9 -29.17,27.81 -56.18,58.25 -84.16,87.27 -50.45,52.3 -107.36,101.8 -152.1,159.15 -37.48,48.05 -64.75,110.19 -46.02,171.51 15.46,50.56 61.04,85.25 112.27,93.74 58.89,9.75 114.37,-11.99 155.29,-53.96 34.65,-35.54 86.23,-78.3 42.53,-126.71 -12.96,-14.36 -34.12,6.91 -21.21,21.21"
           style="fill:#6780a7;fill-opacity:1;fill-rule:nonzero;stroke:none"
           id="path132" />
        <path
           d="m 7585.71,8867.18 c 3.68,-21.86 5.76,-43.8 5.85,-65.98 0.09,-19.31 -29.91,-19.33 -30,0 -0.08,19.48 -1.54,38.79 -4.78,58.01 -3.18,18.88 25.72,27 28.93,7.97 l 0,0"
           style="fill:#6780a7;fill-opacity:1;fill-rule:nonzero;stroke:none"
           id="path134" />
        <path
           d="m 7542.75,8681.2 c -22.76,-3.93 -45.86,-7.04 -68.37,-12.23 -18.79,-4.33 -26.81,24.58 -7.98,28.93 22.51,5.19 45.62,8.3 68.38,12.23 18.88,3.26 26.99,-25.64 7.97,-28.93 l 0,0"
           style="fill:#6780a7;fill-opacity:1;fill-rule:nonzero;stroke:none"
           id="path136" />
        <path
           d="m 7660.42,8527.16 c -20.04,-10.1 -39.49,-21.22 -58.37,-33.37 -16.28,-10.47 -31.34,15.48 -15.14,25.91 18.88,12.14 38.33,23.26 58.37,33.36 17.2,8.68 32.4,-17.2 15.14,-25.9 l 0,0"
           style="fill:#6780a7;fill-opacity:1;fill-rule:nonzero;stroke:none"
           id="path138" />
        <path
           d="m 2485.59,8561.8 c 11.58,9.38 17.12,26.3 12.05,40.49 -2.16,6.04 -5.9,11.39 -9.86,16.43 -13.61,17.32 -30.44,31.63 -44.73,48.58 -43.41,51.52 -126,67.62 -185.19,35.46 -24.33,-13.22 -44.42,-34.61 -54.71,-60.33 -12.98,-32.45 -9.8,-69.78 2.87,-102.35 25.68,-66.02 83.47,-112.79 131.29,-162.38 46.86,-48.59 93.72,-97.18 140.58,-145.76 0.73,-0.76 1.46,-1.51 2.19,-2.27 8.29,-10.86 20.46,-18.74 33.55,-22.65 1.96,-0.59 3.98,-1.09 6.03,-1 2.86,0.14 5.54,1.41 8.05,2.81 27.99,15.63 31.72,40.6 12.15,64.82 -77.95,96.48 -178.94,171.03 -247.94,275.06 -8.68,13.1 -16.14,27.58 -17.51,43.24 -2.52,28.7 20.59,53.26 48.66,55.89 19.84,1.85 39.65,-5.71 55.94,-17.19 20.62,-14.54 38.62,-35.05 52.59,-55.69 10.22,-15.09 26.72,-25.8 45.76,-18.05 2.99,1.22 5.74,2.88 8.23,4.89"
           style="fill:#ffffff;fill-opacity:1;fill-rule:nonzero;stroke:none"
           id="path140" />
        <path
           d="m 2474.98,8572.41 c 26.01,28.81 -39.55,84.36 -60.73,101.31 -31.51,25.19 -74.74,36.1 -114.58,28.18 -104.98,-20.86 -103.34,-134.35 -51.81,-206.64 41.95,-58.85 101.15,-108.09 151.18,-159.96 25.56,-26.5 51.12,-53 76.68,-79.51 7.09,-7.35 31.3,-35.26 41.89,-34.31 48.71,4.35 -20.21,78.66 -27.11,86.13 -47.57,51.59 -99.94,98.56 -146.71,150.91 -32.05,35.88 -86.12,87.53 -84.16,139.42 1.3,34.75 29.16,61.64 63.44,64.9 22.61,2.15 45.05,-6.94 63.51,-19.24 17.52,-11.67 69.5,-81.88 91.43,-68.84 16.64,9.88 31.75,-16.04 15.15,-25.91 -54.73,-32.52 -77.62,33.75 -112.71,61.8 -37.18,29.71 -113.71,30.96 -79.62,-47.59 7.14,-16.45 21.92,-32.27 32.9,-46.16 27.43,-34.76 58.2,-66.59 89.41,-97.94 25.76,-25.88 51.95,-51.32 77.06,-77.83 20.67,-21.83 50.32,-46.9 61.97,-75.61 12.26,-30.26 -7.46,-74.89 -44.51,-74.23 -20.13,0.37 -35.95,16.2 -49.28,28.91 -29.17,27.8 -56.18,58.25 -84.16,87.26 -50.45,52.31 -107.36,101.8 -152.1,159.16 -37.48,48.05 -64.76,110.19 -46.02,171.5 15.45,50.57 61.04,85.26 112.26,93.74 58.9,9.76 114.38,-11.98 155.3,-53.95 34.65,-35.54 86.23,-78.31 42.53,-126.71 -12.96,-14.36 -34.12,6.9 -21.21,21.21"
           style="fill:#6780a7;fill-opacity:1;fill-rule:nonzero;stroke:none"
           id="path142" />
        <path
           d="m 2338.37,8722.04 c 3.68,-21.87 5.76,-43.8 5.85,-65.98 0.09,-19.31 -29.91,-19.33 -30,0 -0.08,19.48 -1.54,38.79 -4.78,58 -3.18,18.89 25.72,27.01 28.93,7.98 l 0,0"
           style="fill:#6780a7;fill-opacity:1;fill-rule:nonzero;stroke:none"
           id="path144" />
        <path
           d="m 2295.41,8536.06 c -22.76,-3.93 -45.86,-7.04 -68.37,-12.23 -18.79,-4.34 -26.81,24.58 -7.98,28.93 22.51,5.19 45.62,8.3 68.38,12.23 18.88,3.26 26.99,-25.65 7.97,-28.93 l 0,0"
           style="fill:#6780a7;fill-opacity:1;fill-rule:nonzero;stroke:none"
           id="path146" />
        <path
           d="m 2413.08,8382.02 c -20.04,-10.11 -39.49,-21.23 -58.37,-33.37 -16.28,-10.48 -31.34,15.48 -15.14,25.9 18.88,12.15 38.32,23.27 58.37,33.37 17.19,8.67 32.4,-17.2 15.14,-25.9 l 0,0"
           style="fill:#6780a7;fill-opacity:1;fill-rule:nonzero;stroke:none"
           id="path148" />
        <path
           d="m 6591.68,2602.98 c 11.58,9.38 17.12,26.3 12.05,40.49 -2.16,6.04 -5.9,11.39 -9.86,16.43 -13.61,17.32 -30.44,31.63 -44.73,48.58 -43.41,51.52 -126,67.61 -185.19,35.46 -24.34,-13.22 -44.42,-34.62 -54.71,-60.33 -12.98,-32.45 -9.8,-69.78 2.87,-102.36 25.68,-66.01 83.46,-112.78 131.29,-162.37 46.86,-48.59 93.72,-97.18 140.58,-145.77 0.73,-0.75 1.46,-1.5 2.19,-2.26 8.28,-10.86 20.46,-18.74 33.54,-22.66 1.97,-0.58 3.99,-1.08 6.04,-0.99 2.86,0.14 5.54,1.41 8.05,2.81 27.99,15.63 31.72,40.6 12.15,64.82 -77.95,96.48 -178.95,171.03 -247.93,275.06 -8.69,13.1 -16.15,27.58 -17.52,43.24 -2.52,28.7 20.59,53.26 48.66,55.89 19.83,1.85 39.65,-5.71 55.94,-17.19 20.62,-14.54 38.62,-35.05 52.59,-55.69 10.22,-15.09 26.72,-25.8 45.75,-18.05 3,1.22 5.75,2.88 8.24,4.89"
           style="fill:#ffffff;fill-opacity:1;fill-rule:nonzero;stroke:none"
           id="path150" />
        <path
           d="m 6581.07,2613.59 c 26.01,28.81 -39.55,84.36 -60.74,101.3 -31.5,25.2 -74.73,36.11 -114.57,28.19 -104.98,-20.86 -103.34,-134.35 -51.81,-206.64 41.95,-58.85 101.15,-108.09 151.18,-159.96 25.56,-26.5 51.12,-53 76.68,-79.51 7.09,-7.35 31.3,-35.26 41.89,-34.31 48.71,4.35 -20.21,78.66 -27.11,86.13 -47.57,51.59 -99.95,98.56 -146.71,150.91 -32.05,35.88 -86.12,87.53 -84.16,139.42 1.3,34.75 29.16,61.64 63.44,64.9 22.61,2.15 45.05,-6.94 63.51,-19.24 17.52,-11.67 69.5,-81.88 91.44,-68.85 16.63,9.89 31.74,-16.03 15.14,-25.9 -54.73,-32.52 -77.62,33.75 -112.71,61.8 -37.18,29.71 -113.71,30.96 -79.62,-47.59 7.14,-16.45 21.92,-32.27 32.89,-46.17 27.44,-34.75 58.21,-66.58 89.42,-97.94 25.76,-25.87 51.95,-51.31 77.05,-77.82 20.68,-21.83 50.33,-46.9 61.97,-75.61 12.27,-30.26 -7.45,-74.9 -44.5,-74.23 -20.13,0.36 -35.95,16.19 -49.28,28.91 -29.17,27.8 -56.19,58.25 -84.16,87.26 -50.45,52.3 -107.36,101.8 -152.1,159.16 -37.48,48.05 -64.76,110.19 -46.02,171.5 15.45,50.57 61.04,85.26 112.26,93.74 58.9,9.76 114.38,-11.99 155.3,-53.95 34.65,-35.54 86.23,-78.31 42.53,-126.71 -12.96,-14.37 -34.13,6.9 -21.21,21.21"
           style="fill:#6780a7;fill-opacity:1;fill-rule:nonzero;stroke:none"
           id="path152" />
        <path
           d="m 6444.46,2763.22 c 3.68,-21.87 5.76,-43.8 5.85,-65.98 0.09,-19.31 -29.91,-19.33 -30,0 -0.08,19.48 -1.54,38.79 -4.78,58 -3.19,18.89 25.72,27 28.93,7.98 l 0,0"
           style="fill:#6780a7;fill-opacity:1;fill-rule:nonzero;stroke:none"
           id="path154" />
        <path
           d="m 6401.5,2577.24 c -22.76,-3.93 -45.86,-7.04 -68.37,-12.23 -18.79,-4.34 -26.81,24.58 -7.98,28.93 22.51,5.19 45.62,8.3 68.38,12.23 18.88,3.26 26.99,-25.65 7.97,-28.93 l 0,0"
           style="fill:#6780a7;fill-opacity:1;fill-rule:nonzero;stroke:none"
           id="path156" />
        <path
           d="m 6519.17,2423.2 c -20.04,-10.11 -39.49,-21.23 -58.37,-33.37 -16.28,-10.48 -31.34,15.48 -15.14,25.9 18.88,12.15 38.32,23.27 58.37,33.37 17.19,8.67 32.4,-17.2 15.14,-25.9 l 0,0"
           style="fill:#6780a7;fill-opacity:1;fill-rule:nonzero;stroke:none"
           id="path158" />
        <path
           d="m 8878.23,1125.58 c 11.58,9.38 17.13,26.3 12.05,40.48 -2.16,6.05 -5.9,11.39 -9.86,16.44 -13.61,17.31 -30.44,31.62 -44.73,48.58 -43.41,51.51 -126,67.61 -185.18,35.46 -24.34,-13.23 -44.43,-34.62 -54.72,-60.34 -12.98,-32.45 -9.8,-69.77 2.87,-102.35 25.68,-66.01 83.47,-112.784 131.29,-162.373 46.86,-48.59 93.72,-97.176 140.58,-145.766 0.73,-0.754 1.46,-1.508 2.19,-2.266 8.29,-10.855 20.46,-18.742 33.55,-22.652 1.96,-0.59 3.98,-1.086 6.03,-0.992 2.86,0.133 5.54,1.406 8.05,2.804 27.99,15.629 31.72,40.606 12.15,64.825 -77.95,96.472 -178.94,171.03 -247.93,275.06 -8.69,13.09 -16.14,27.58 -17.52,43.23 -2.51,28.7 20.59,53.27 48.66,55.89 19.84,1.86 39.66,-5.71 55.94,-17.18 20.62,-14.54 38.62,-35.06 52.59,-55.7 10.22,-15.09 26.72,-25.79 45.76,-18.04 2.99,1.21 5.75,2.88 8.23,4.89"
           style="fill:#cbd8e5;fill-opacity:1;fill-rule:nonzero;stroke:none"
           id="path160" />
        <path
           d="m 8867.62,1136.19 c 26.01,28.81 -39.55,84.36 -60.73,101.3 -31.51,25.2 -74.74,36.11 -114.58,28.19 -104.97,-20.87 -103.33,-134.35 -51.8,-206.64 41.94,-58.85 101.14,-108.091 151.17,-159.962 25.56,-26.504 51.12,-53.008 76.68,-79.508 7.1,-7.355 31.3,-35.261 41.89,-34.316 48.71,4.348 -20.21,78.656 -27.11,86.137 -47.57,51.586 -99.94,98.558 -146.71,150.909 -32.05,35.88 -86.12,87.52 -84.16,139.42 1.3,34.75 29.16,61.63 63.44,64.89 22.61,2.15 45.06,-6.94 63.51,-19.23 17.52,-11.67 69.5,-81.89 91.44,-68.85 16.63,9.89 31.74,-16.04 15.14,-25.9 -54.73,-32.53 -77.62,33.75 -112.71,61.8 -37.18,29.7 -113.71,30.96 -79.62,-47.6 7.14,-16.45 21.92,-32.26 32.9,-46.16 27.44,-34.76 58.2,-66.59 89.41,-97.94 25.76,-25.871 51.95,-51.312 77.06,-77.824 20.67,-21.832 50.33,-46.902 61.97,-75.613 12.26,-30.258 -7.46,-74.891 -44.5,-74.227 -20.14,0.364 -35.95,16.196 -49.29,28.907 -29.17,27.808 -56.18,58.254 -84.16,87.265 -50.45,52.305 -107.36,101.801 -152.1,159.152 -37.47,48.05 -64.75,110.19 -46.02,171.51 15.46,50.57 61.05,85.25 112.27,93.74 58.89,9.76 114.37,-11.99 155.29,-53.95 34.65,-35.54 86.23,-78.31 42.53,-126.72 -12.96,-14.36 -34.12,6.91 -21.21,21.22"
           style="fill:#9bc1e5;fill-opacity:1;fill-rule:nonzero;stroke:none"
           id="path162" />
        <path
           d="m 8731.01,1285.81 c 3.68,-21.86 5.76,-43.79 5.86,-65.98 0.08,-19.3 -29.92,-19.33 -30,0 -0.09,19.48 -1.55,38.79 -4.79,58.01 -3.18,18.88 25.72,27 28.93,7.97 l 0,0"
           style="fill:#9bc1e5;fill-opacity:1;fill-rule:nonzero;stroke:none"
           id="path164" />
        <path
           d="m 8688.05,1099.84 c -22.76,-3.93 -45.86,-7.04 -68.37,-12.24 -18.79,-4.33 -26.81,24.59 -7.98,28.93 22.51,5.2 45.62,8.31 68.38,12.23 18.88,3.26 26.99,-25.64 7.97,-28.92 l 0,0"
           style="fill:#9bc1e5;fill-opacity:1;fill-rule:nonzero;stroke:none"
           id="path166" />
        <path
           d="m 8805.72,945.793 c -20.04,-10.105 -39.49,-21.223 -58.37,-33.367 -16.28,-10.477 -31.34,15.48 -15.14,25.902 18.88,12.145 38.33,23.266 58.37,33.371 17.19,8.668 32.4,-17.203 15.14,-25.906 l 0,0"
           style="fill:#9bc1e5;fill-opacity:1;fill-rule:nonzero;stroke:none"
           id="path168" />
        <path
           d="m 10112.7,4180.13 c 11.5,9.39 17.1,26.3 12,40.49 -2.1,6.04 -5.9,11.39 -9.8,16.43 -13.6,17.32 -30.5,31.63 -44.8,48.58 -43.4,51.52 -125.97,67.62 -185.15,35.46 -24.34,-13.22 -44.43,-34.61 -54.72,-60.33 -12.98,-32.45 -9.8,-69.78 2.87,-102.35 25.68,-66.02 83.47,-112.79 131.29,-162.38 46.91,-48.59 93.71,-97.18 140.61,-145.76 0.7,-0.76 1.4,-1.51 2.2,-2.27 8.2,-10.86 20.4,-18.74 33.5,-22.65 2,-0.59 4,-1.09 6,-0.99 2.9,0.13 5.6,1.4 8.1,2.8 28,15.63 31.7,40.61 12.1,64.83 -77.9,96.47 -178.9,171.02 -247.89,275.05 -8.69,13.1 -16.15,27.58 -17.52,43.24 -2.51,28.7 20.59,53.26 48.66,55.89 19.84,1.85 39.66,-5.71 55.95,-17.19 20.6,-14.54 38.6,-35.05 52.6,-55.69 10.2,-15.09 26.7,-25.8 45.7,-18.05 3,1.22 5.8,2.88 8.3,4.89"
           style="fill:#ffffff;fill-opacity:1;fill-rule:nonzero;stroke:none"
           id="path170" />
        <path
           d="m 10102.1,4190.74 c 26,28.81 -39.6,84.36 -60.8,101.31 -31.5,25.19 -74.71,36.1 -114.55,28.18 -104.98,-20.86 -103.33,-134.35 -51.8,-206.64 41.94,-58.85 101.14,-108.09 151.15,-159.96 25.6,-26.5 51.1,-53 76.7,-79.51 7.1,-7.35 31.3,-35.25 41.9,-34.31 48.7,4.35 -20.2,78.66 -27.1,86.13 -47.6,51.59 -100,98.56 -146.73,150.91 -32.05,35.88 -86.12,87.53 -84.16,139.42 1.3,34.75 29.16,61.64 63.44,64.9 22.61,2.15 45.06,-6.94 63.55,-19.24 17.5,-11.67 69.5,-81.88 91.4,-68.84 16.6,9.88 31.7,-16.04 15.1,-25.91 -54.7,-32.52 -77.6,33.75 -112.7,61.8 -37.15,29.71 -113.68,30.96 -79.59,-47.59 7.14,-16.45 21.92,-32.27 32.9,-46.16 27.44,-34.76 58.19,-66.59 89.39,-97.94 25.8,-25.88 52,-51.32 77.1,-77.83 20.7,-21.83 50.3,-46.9 61.9,-75.61 12.3,-30.26 -7.4,-74.89 -44.5,-74.23 -20.1,0.37 -35.9,16.2 -49.2,28.91 -29.2,27.8 -56.2,58.25 -84.2,87.26 -50.45,52.31 -107.36,101.8 -152.1,159.16 -37.48,48.05 -64.75,110.19 -46.02,171.5 15.46,50.57 61.04,85.26 112.27,93.75 58.89,9.75 114.35,-11.99 155.25,-53.96 34.7,-35.54 86.3,-78.31 42.6,-126.71 -13,-14.36 -34.2,6.91 -21.2,21.21"
           style="fill:#9bc1e5;fill-opacity:1;fill-rule:nonzero;stroke:none"
           id="path172" />
        <path
           d="m 9965.45,4340.37 c 3.68,-21.87 5.76,-43.8 5.85,-65.98 0.09,-19.31 -29.91,-19.33 -30,0 -0.08,19.48 -1.54,38.79 -4.78,58 -3.18,18.89 25.72,27.01 28.93,7.98 l 0,0"
           style="fill:#9bc1e5;fill-opacity:1;fill-rule:nonzero;stroke:none"
           id="path174" />
        <path
           d="m 9922.49,4154.39 c -22.76,-3.93 -45.86,-7.04 -68.37,-12.23 -18.79,-4.34 -26.81,24.58 -7.98,28.93 22.51,5.19 45.62,8.3 68.38,12.23 18.88,3.26 26.99,-25.65 7.97,-28.93 l 0,0"
           style="fill:#9bc1e5;fill-opacity:1;fill-rule:nonzero;stroke:none"
           id="path176" />
        <path
           d="m 10040.2,4000.35 c -20.1,-10.11 -39.5,-21.22 -58.41,-33.37 -16.28,-10.48 -31.34,15.48 -15.14,25.9 18.88,12.15 38.35,23.27 58.35,33.37 17.2,8.67 32.4,-17.2 15.2,-25.9 l 0,0"
           style="fill:#9bc1e5;fill-opacity:1;fill-rule:nonzero;stroke:none"
           id="path178" />
        <path
           d="m 112.668,4180.13 c 11.578,9.39 17.129,26.3 12.051,40.49 -2.16,6.04 -5.895,11.39 -9.86,16.43 -13.609,17.32 -30.441,31.63 -44.7301,48.58 -43.4062,51.52 -125.9961,67.62 -185.1839,35.46 -24.34,-13.22 -44.422,-34.61 -54.711,-60.33 -12.984,-32.45 -9.8,-69.78 2.871,-102.35 25.672,-66.02 83.4614,-112.79 131.2895,-162.38 46.8594,-48.59 93.7188,-97.18 140.5825,-145.76 0.726,-0.76 1.453,-1.51 2.179,-2.27 8.289,-10.86 20.461,-18.74 33.551,-22.65 1.961,-0.59 3.988,-1.09 6.031,-0.99 2.867,0.13 5.543,1.4 8.047,2.8 27.996,15.63 31.731,40.61 12.156,64.83 -77.9488,96.47 -178.9449,171.02 -247.9332,275.05 -8.6875,13.1 -16.1445,27.58 -17.5156,43.24 -2.5152,28.7 20.5898,53.26 48.6601,55.89 19.8321,1.85 39.6524,-5.71 55.93364,-17.19 20.62496,-14.54 38.62106,-35.05 52.59766,-55.69 10.2187,-15.09 26.7148,-25.8 45.7544,-18.05 2.988,1.22 5.746,2.88 8.23,4.89"
           style="fill:#ffffff;fill-opacity:1;fill-rule:nonzero;stroke:none"
           id="path180" />
        <path
           d="m 102.059,4190.74 c 26.015,28.81 -39.5512,84.36 -60.7309,101.31 -31.50388,25.19 -74.7383,36.1 -114.5742,28.18 -104.9809,-20.86 -103.3399,-134.35 -51.8089,-206.64 41.9495,-58.85 101.1487,-108.09 151.1761,-159.96 25.5586,-26.5 51.1211,-53 76.6799,-79.51 7.094,-7.35 31.304,-35.25 41.894,-34.31 48.703,4.35 -20.218,78.66 -27.113,86.13 -47.5742,51.59 -99.9453,98.56 -146.7109,150.91 -32.0508,35.88 -86.1171,87.53 -84.1641,139.42 1.309,34.75 29.168,61.64 63.4453,64.9 22.6055,2.15 45.05082,-6.94 63.504,-19.24 17.5234,-11.67 69.5,-81.88 91.4417,-68.84 16.632,9.88 31.742,-16.04 15.14,-25.91 -54.7224,-32.52 -77.613,33.75 -112.71066,61.8 -37.17184,29.71 -113.70734,30.96 -79.61714,-47.59 7.1367,-16.45 21.9218,-32.27 32.8984,-46.16 27.4375,-34.76 58.1992,-66.59 89.4141,-97.94 25.7539,-25.88 51.9453,-51.32 77.0543,-77.83 20.676,-21.83 50.328,-46.9 61.969,-75.61 12.266,-30.26 -7.457,-74.89 -44.5,-74.23 -20.137,0.37 -35.949,16.2 -49.2851,28.91 -29.1718,27.8 -56.1836,58.25 -84.164,87.26 -50.4414,52.31 -107.3594,101.8 -152.0939,159.16 -37.476,48.05 -64.758,110.19 -46.019,171.5 15.453,50.57 61.043,85.26 112.2613,93.75 58.8906,9.75 114.375,-11.99 155.293,-53.96 34.6527,-35.54 86.2347,-78.31 42.5347,-126.71 -12.964,-14.36 -34.1285,6.91 -21.214,21.21"
           style="fill:#9bc1e5;fill-opacity:1;fill-rule:nonzero;stroke:none"
           id="path182" />
        <path
           d="m 40.1602,4000.35 c -20.043,-10.11 -39.488325,-21.22 -58.3672,-33.37 -16.2852,-10.48 -31.3438,15.48 -15.1407,25.9 18.875,12.15 38.32426,23.27 58.3672,33.37 17.1953,8.67 32.4024,-17.2 15.1407,-25.9 l 0,0"
           style="fill:#9bc1e5;fill-opacity:1;fill-rule:nonzero;stroke:none"
           id="path184" />
        <path
           d="m 6703.04,6603.48 c 10.76,38.78 -6.52,82.39 -50.09,88.01 -38.51,4.96 -79.78,-22.49 -92.75,-58.47 -14.13,-39.23 9.22,-78.57 49.19,-87.97 43.67,-10.28 78.98,19.18 93.65,58.43 6.77,18.1 -22.22,25.92 -28.93,7.97 -8.17,-21.87 -27.04,-41.06 -52.01,-38.38 -27.2,2.9 -43.47,27.7 -32.21,53.2 8.35,18.92 28.88,33.17 49.37,35.45 30.59,3.41 41.95,-24.69 34.85,-50.27 -5.17,-18.63 23.77,-26.58 28.93,-7.97"
           style="fill:#6780a7;fill-opacity:1;fill-rule:nonzero;stroke:none"
           id="path186" />
        <path
           d="m 7541.91,4200.03 c 10.77,38.77 -6.52,82.39 -50.09,88.01 -38.51,4.96 -79.78,-22.49 -92.75,-58.48 -14.13,-39.22 9.22,-78.56 49.19,-87.97 43.67,-10.27 78.98,19.19 93.65,58.44 6.77,18.1 -22.22,25.92 -28.93,7.97 -8.17,-21.87 -27.04,-41.06 -52.01,-38.39 -27.2,2.91 -43.47,27.71 -32.21,53.21 8.36,18.92 28.88,33.16 49.37,35.45 30.59,3.41 41.95,-24.69 34.85,-50.27 -5.17,-18.63 23.77,-26.58 28.93,-7.97"
           style="fill:#6780a7;fill-opacity:1;fill-rule:nonzero;stroke:none"
           id="path188" />
        <path
           d="m 4742.5,2988.59 c 10.76,38.77 -6.52,82.39 -50.1,88.01 -38.5,4.96 -79.77,-22.5 -92.74,-58.48 -14.14,-39.22 9.22,-78.56 49.19,-87.97 43.67,-10.27 78.98,19.19 93.65,58.44 6.77,18.1 -22.22,25.92 -28.93,7.97 -8.17,-21.87 -27.04,-41.06 -52.01,-38.39 -27.2,2.91 -43.47,27.71 -32.21,53.21 8.35,18.92 28.88,33.16 49.36,35.45 30.6,3.41 41.96,-24.69 34.86,-50.27 -5.17,-18.63 23.76,-26.58 28.93,-7.97"
           style="fill:#6780a7;fill-opacity:1;fill-rule:nonzero;stroke:none"
           id="path190" />
        <path
           d="m 9783.04,243.477 c 10.76,38.777 -6.52,82.394 -50.09,88.011 -38.51,4.965 -79.78,-22.492 -92.75,-58.472 -14.13,-39.223 9.22,-78.571 49.19,-87.969 43.67,-10.274 78.98,19.183 93.65,58.43 6.77,18.105 -22.22,25.925 -28.93,7.972 -8.17,-21.863 -27.04,-41.054 -52.01,-38.383 -27.2,2.907 -43.47,27.704 -32.21,53.204 8.35,18.918 28.88,33.168 49.37,35.449 30.59,3.41 41.95,-24.692 34.85,-50.27 -5.17,-18.629 23.77,-26.582 28.93,-7.972"
           style="fill:#6780a7;fill-opacity:1;fill-rule:nonzero;stroke:none"
           id="path192" />
        <path
           d="m 5776.23,-44.6523 c 10.77,38.78121 -6.51,82.3945 -50.09,88.0117 -38.51,4.9648 -79.78,-22.4922 -92.75,-58.4727 -14.13,-39.2226 9.22,-78.5664 49.19,-87.9687 43.67,-10.273 78.98,19.1836 93.65,58.4297 6.77,18.1054 -22.22,25.9257 -28.93,7.9765 -8.17,-21.8672 -27.04,-41.0586 -52.01,-38.3867 -27.2,2.9102 -43.47,27.7031 -32.21,53.2031 8.36,18.91799 28.88,33.168 49.37,35.4492 30.59,3.4102 41.95,-24.6914 34.85,-50.2656 -5.17,-18.6328 23.77,-26.582 28.93,-7.9765"
           style="fill:#6780a7;fill-opacity:1;fill-rule:nonzero;stroke:none"
           id="path194" />
        <path
           d="m 5776.23,9955.35 c 10.77,38.78 -6.51,82.35 -50.09,88.05 -38.51,4.9 -79.78,-22.5 -92.75,-58.51 -14.13,-39.23 9.22,-78.57 49.19,-87.97 43.67,-10.27 78.98,19.18 93.65,58.43 6.77,18.11 -22.22,25.92 -28.93,7.97 -8.17,-21.86 -27.04,-41.05 -52.01,-38.38 -27.2,2.91 -43.47,27.7 -32.21,53.2 8.36,18.92 28.88,33.16 49.37,35.46 30.59,3.4 41.95,-24.7 34.85,-50.28 -5.17,-18.63 23.77,-26.58 28.93,-7.97"
           style="fill:#9bc1e5;fill-opacity:1;fill-rule:nonzero;stroke:none"
           id="path196" />
        <path
           d="m 1740.18,1721.81 c 10.77,38.77 -6.51,82.39 -50.09,88.01 -38.51,4.96 -79.78,-22.49 -92.74,-58.48 -14.14,-39.22 9.21,-78.56 49.18,-87.96 43.67,-10.28 78.98,19.18 93.65,58.43 6.77,18.1 -22.21,25.92 -28.92,7.97 -8.18,-21.87 -27.04,-41.06 -52.02,-38.39 -27.2,2.91 -43.47,27.71 -32.21,53.21 8.36,18.92 28.88,33.17 49.37,35.45 30.6,3.41 41.96,-24.69 34.86,-50.27 -5.18,-18.63 23.76,-26.58 28.92,-7.97"
           style="fill:#6780a7;fill-opacity:1;fill-rule:nonzero;stroke:none"
           id="path198" />
        <path
           d="m 3258.44,5683.59 c 10.77,38.77 -6.52,82.39 -50.09,88.01 -38.51,4.96 -79.78,-22.5 -92.75,-58.48 -14.13,-39.22 9.22,-78.56 49.19,-87.97 43.67,-10.27 78.98,19.19 93.65,58.44 6.77,18.1 -22.22,25.92 -28.93,7.97 -8.17,-21.87 -27.04,-41.06 -52.01,-38.39 -27.2,2.91 -43.47,27.71 -32.21,53.21 8.36,18.92 28.88,33.16 49.37,35.45 30.59,3.41 41.95,-24.69 34.85,-50.27 -5.17,-18.63 23.77,-26.58 28.93,-7.97"
           style="fill:#6780a7;fill-opacity:1;fill-rule:nonzero;stroke:none"
           id="path200" />
        <path
           d="m 10114.6,7517.82 c 10.8,38.78 -6.5,82.39 -50,88.01 -38.6,4.96 -79.82,-22.49 -92.79,-58.47 -14.14,-39.23 9.22,-78.57 49.19,-87.97 43.7,-10.27 79,19.18 93.6,58.43 6.8,18.1 -22.2,25.92 -28.9,7.97 -8.2,-21.86 -27,-41.05 -52,-38.38 -27.2,2.91 -43.46,27.7 -32.2,53.2 8.4,18.92 28.9,33.17 49.4,35.45 30.6,3.41 41.9,-24.69 34.8,-50.27 -5.2,-18.63 23.8,-26.58 28.9,-7.97"
           style="fill:#6780a7;fill-opacity:1;fill-rule:nonzero;stroke:none"
           id="path202" />
        <path
           d="m 114.648,7517.82 c 10.766,38.78 -6.515,82.39 -50.0933,88.01 -38.5078,4.96 -79.7774,-22.49 -92.7461,-58.47 -14.1328,-39.23 9.2226,-78.57 49.1875,-87.97 43.6719,-10.27 78.9805,19.18 93.6519,58.43 6.77,18.1 -22.2183,25.92 -28.9292,7.97 -8.1719,-21.86 -27.0391,-41.05 -52.0157,-38.38 -27.19529,2.91 -43.46482,27.7 -32.2031,53.2 8.35156,18.92 28.8789,33.17 49.3633,35.45 30.5976,3.41 41.957,-24.69 34.8555,-50.27 -5.1719,-18.63 23.7652,-26.58 28.9292,-7.97"
           style="fill:#6780a7;fill-opacity:1;fill-rule:nonzero;stroke:none"
           id="path204" />
        <path
           d="m 2953.44,5968.59 c 10.77,38.77 -6.52,82.39 -50.09,88.01 -38.51,4.96 -79.78,-22.5 -92.75,-58.48 -14.13,-39.22 9.22,-78.56 49.19,-87.97 43.67,-10.27 78.98,19.19 93.65,58.44 6.77,18.1 -22.22,25.92 -28.93,7.97 -8.17,-21.87 -27.04,-41.06 -52.01,-38.39 -27.2,2.91 -43.47,27.71 -32.21,53.21 8.36,18.92 28.88,33.16 49.37,35.45 30.59,3.41 41.95,-24.69 34.85,-50.27 -5.17,-18.63 23.77,-26.58 28.93,-7.97"
           style="fill:#6780a7;fill-opacity:1;fill-rule:nonzero;stroke:none"
           id="path206" />
        <path
           d="m 9440.18,9471.81 c 10.77,38.77 -6.51,82.39 -50.09,88.01 -38.51,4.96 -79.78,-22.49 -92.74,-58.48 -14.14,-39.22 9.21,-78.56 49.18,-87.96 43.67,-10.28 78.98,19.18 93.65,58.43 6.77,18.1 -22.21,25.92 -28.92,7.97 -8.18,-21.87 -27.04,-41.06 -52.02,-38.39 -27.2,2.91 -43.46,27.71 -32.21,53.21 8.36,18.92 28.88,33.16 49.37,35.45 30.6,3.41 41.96,-24.69 34.86,-50.27 -5.18,-18.63 23.76,-26.58 28.92,-7.97"
           style="fill:#6780a7;fill-opacity:1;fill-rule:nonzero;stroke:none"
           id="path208" />
        <path
           d="m 9135.18,9238.59 c 10.77,38.77 -6.51,82.39 -50.09,88.01 -38.51,4.96 -79.78,-22.5 -92.74,-58.48 -14.14,-39.22 9.21,-78.56 49.18,-87.97 43.67,-10.27 78.98,19.19 93.65,58.44 6.77,18.1 -22.21,25.92 -28.92,7.97 -8.18,-21.87 -27.04,-41.06 -52.02,-38.39 -27.2,2.91 -43.46,27.71 -32.21,53.21 8.36,18.92 28.88,33.16 49.37,35.45 30.6,3.41 41.96,-24.69 34.86,-50.27 -5.18,-18.63 23.76,-26.58 28.92,-7.97"
           style="fill:#6780a7;fill-opacity:1;fill-rule:nonzero;stroke:none"
           id="path210" />
        <path
           d="m 543.441,4371.81 c 10.762,38.78 -6.515,82.39 -50.093,88.01 -38.508,4.96 -79.778,-22.49 -92.746,-58.48 -14.133,-39.22 9.218,-78.56 49.187,-87.96 43.672,-10.28 78.981,19.18 93.652,58.43 6.77,18.1 -22.218,25.92 -28.929,7.97 -8.172,-21.87 -27.039,-41.06 -52.016,-38.39 -27.195,2.91 -43.465,27.71 -32.203,53.21 8.352,18.92 28.879,33.17 49.363,35.45 30.598,3.41 41.953,-24.69 34.856,-50.27 -5.172,-18.63 23.765,-26.58 28.929,-7.97"
           style="fill:#6780a7;fill-opacity:1;fill-rule:nonzero;stroke:none"
           id="path212" />
        <path
           d="m 35.7188,-44.207 -9999.9988,0 0,9999.997 9999.9988,0 0,-9999.997"
           style="fill:#e9f0f2;fill-opacity:1;fill-rule:nonzero;stroke:none"
           id="path214" />
        <path
           d="m 112.668,4180.13 c 11.578,9.39 17.129,26.3 12.051,40.49 -2.16,6.04 -5.895,11.39 -9.86,16.43 -13.609,17.32 -30.441,31.63 -44.7301,48.58 -43.4062,51.52 -125.9961,67.62 -185.1839,35.46 -24.34,-13.22 -44.422,-34.61 -54.711,-60.33 -12.984,-32.45 -9.8,-69.78 2.871,-102.35 25.672,-66.02 83.4614,-112.79 131.2895,-162.38 46.8594,-48.59 93.7188,-97.18 140.5825,-145.76 0.726,-0.76 1.453,-1.51 2.179,-2.27 8.289,-10.86 20.461,-18.74 33.551,-22.65 1.961,-0.59 3.988,-1.09 6.031,-0.99 2.867,0.13 5.543,1.4 8.047,2.8 27.996,15.63 31.731,40.61 12.156,64.83 -77.9488,96.47 -178.9449,171.02 -247.9332,275.05 -8.6875,13.1 -16.1445,27.58 -17.5156,43.24 -2.5152,28.7 20.5898,53.26 48.6601,55.89 19.8321,1.85 39.6524,-5.71 55.93364,-17.19 20.62496,-14.54 38.62106,-35.05 52.59766,-55.69 10.2187,-15.09 26.7148,-25.8 45.7544,-18.05 2.988,1.22 5.746,2.88 8.23,4.89"
           style="fill:#ffffff;fill-opacity:1;fill-rule:nonzero;stroke:none"
           id="path216" />
        <path
           d="m 102.059,4190.74 c 26.015,28.81 -39.5512,84.36 -60.7309,101.31 -31.50388,25.19 -74.7383,36.1 -114.5742,28.18 -104.9809,-20.86 -103.3399,-134.35 -51.8089,-206.64 41.9495,-58.85 101.1487,-108.09 151.1761,-159.96 25.5586,-26.5 51.1211,-53 76.6799,-79.51 7.094,-7.35 31.304,-35.25 41.894,-34.31 48.703,4.35 -20.218,78.66 -27.113,86.13 -47.5742,51.59 -99.9453,98.56 -146.7109,150.91 -32.0508,35.88 -86.1171,87.53 -84.1641,139.42 1.309,34.75 29.168,61.64 63.4453,64.9 22.6055,2.15 45.05082,-6.94 63.504,-19.24 17.5234,-11.67 69.5,-81.88 91.4417,-68.84 16.632,9.88 31.742,-16.04 15.14,-25.91 -54.7224,-32.52 -77.613,33.75 -112.71066,61.8 -37.17184,29.71 -113.70734,30.96 -79.61714,-47.59 7.1367,-16.45 21.9218,-32.27 32.8984,-46.16 27.4375,-34.76 58.1992,-66.59 89.4141,-97.94 25.7539,-25.88 51.9453,-51.32 77.0543,-77.83 20.676,-21.83 50.328,-46.9 61.969,-75.61 12.266,-30.26 -7.457,-74.89 -44.5,-74.23 -20.137,0.37 -35.949,16.2 -49.2851,28.91 -29.1718,27.8 -56.1836,58.25 -84.164,87.26 -50.4414,52.31 -107.3594,101.8 -152.0939,159.16 -37.476,48.05 -64.758,110.19 -46.019,171.5 15.453,50.57 61.043,85.26 112.2613,93.75 58.8906,9.75 114.375,-11.99 155.293,-53.96 34.6527,-35.54 86.2347,-78.31 42.5347,-126.71 -12.964,-14.36 -34.1285,6.91 -21.214,21.21"
           style="fill:#9bc1e5;fill-opacity:1;fill-rule:nonzero;stroke:none"
           id="path218" />
        <path
           d="m 40.1602,4000.35 c -20.043,-10.11 -39.488325,-21.22 -58.3672,-33.37 -16.2852,-10.48 -31.3438,15.48 -15.1407,25.9 18.875,12.15 38.32426,23.27 58.3672,33.37 17.1953,8.67 32.4024,-17.2 15.1407,-25.9 l 0,0"
           style="fill:#9bc1e5;fill-opacity:1;fill-rule:nonzero;stroke:none"
           id="path220" />
        <path
           d="m 114.648,7517.82 c 10.766,38.78 -6.515,82.39 -50.0933,88.01 -38.5078,4.96 -79.7774,-22.49 -92.7461,-58.47 -14.1328,-39.23 9.2226,-78.57 49.1875,-87.97 43.6719,-10.27 78.9805,19.18 93.6519,58.43 6.77,18.1 -22.2183,25.92 -28.9292,7.97 -8.1719,-21.86 -27.0391,-41.05 -52.0157,-38.38 -27.19529,2.91 -43.46482,27.7 -32.2031,53.2 8.35156,18.92 28.8789,33.17 49.3633,35.45 30.5976,3.41 41.957,-24.69 34.8555,-50.27 -5.1719,-18.63 23.7652,-26.58 28.9292,-7.97"
           style="fill:#6780a7;fill-opacity:1;fill-rule:nonzero;stroke:none"
           id="path222" />
        <path
           d="m 10035.7,9955.79 -9999.9812,0 0,10000.01 9999.9812,0 0,-10000.01"
           style="fill:#e9f0f2;fill-opacity:1;fill-rule:nonzero;stroke:none"
           id="path224" />
        <path
           d="m 513.926,10099.1 c -11.582,9.4 -17.129,26.3 -12.055,40.5 2.16,6 5.895,11.3 9.863,16.4 13.61,17.3 30.442,31.6 44.727,48.6 43.406,51.5 125.996,67.6 185.184,35.4 24.339,-13.2 44.421,-34.6 54.71,-60.3 12.985,-32.5 9.801,-69.8 -2.867,-102.4 -25.675,-66 -83.465,-112.74 -131.293,-162.33 -46.859,-48.59 -93.718,-97.18 -140.578,-145.76 -0.726,-0.76 -1.457,-1.51 -2.183,-2.27 -8.289,-10.86 -20.461,-18.74 -33.547,-22.65 -1.965,-0.59 -3.989,-1.09 -6.035,-1 -2.864,0.14 -5.543,1.41 -8.047,2.81 -27.992,15.63 -31.727,40.6 -12.157,64.83 77.954,96.47 178.946,171.02 247.938,275.07 8.684,13.1 16.141,27.6 17.512,43.2 2.519,28.7 -20.59,53.3 -48.66,55.9 -19.833,1.9 -39.653,-5.7 -55.934,-17.2 -20.621,-14.5 -38.621,-35 -52.598,-55.7 -10.218,-15.1 -26.715,-25.8 -45.754,-18 -2.988,1.2 -5.746,2.9 -8.226,4.9"
           style="fill:#ffffff;fill-opacity:1;fill-rule:nonzero;stroke:none"
           id="path226" />
        <path
           d="m 524.531,10109.7 c -26.011,28.8 39.551,84.3 60.735,101.3 31.504,25.2 74.738,36.1 114.574,28.2 104.976,-20.9 103.336,-134.4 51.805,-206.7 -41.946,-58.82 -101.149,-108.06 -151.172,-159.93 -25.563,-26.5 -51.121,-53 -76.684,-79.51 -7.094,-7.35 -31.301,-35.26 -41.891,-34.31 -48.707,4.35 20.215,78.66 27.11,86.13 47.574,51.59 99.945,98.56 146.711,150.91 32.051,35.91 86.117,87.51 84.164,139.41 -1.305,34.8 -29.168,61.6 -63.445,64.9 -22.606,2.2 -45.051,-6.9 -63.504,-19.2 -17.52,-11.7 -69.5,-81.9 -91.438,-68.9 -16.637,9.9 -31.742,-16 -15.141,-25.9 54.723,-32.5 77.614,33.8 112.708,61.8 37.171,29.7 113.707,31 79.617,-47.6 -7.137,-16.4 -21.922,-32.2 -32.895,-46.1 -27.437,-34.8 -58.203,-66.62 -89.414,-97.98 -25.758,-25.87 -51.949,-51.31 -77.055,-77.82 -20.679,-21.83 -50.332,-46.9 -61.972,-75.61 -12.266,-30.26 7.457,-74.9 44.504,-74.23 20.132,0.37 35.949,16.2 49.285,28.91 29.172,27.8 56.18,58.25 84.16,87.26 50.445,52.31 107.359,101.8 152.094,159.17 37.48,48 64.758,110.2 46.023,171.5 -15.453,50.6 -61.043,85.2 -112.265,93.7 -58.891,9.8 -114.375,-12 -155.29,-53.9 -34.652,-35.6 -86.238,-78.3 -42.539,-126.7 12.965,-14.4 34.129,6.9 21.215,21.2"
           style="fill:#6780a7;fill-opacity:1;fill-rule:nonzero;stroke:none"
           id="path228" />
        <path
           d="m 586.434,9919.29 c 20.043,-10.11 39.488,-21.23 58.363,-33.37 16.285,-10.48 31.344,15.48 15.141,25.9 -18.875,12.15 -38.321,23.27 -58.364,33.37 -17.199,8.67 -32.402,-17.2 -15.14,-25.9 l 0,0"
           style="fill:#6780a7;fill-opacity:1;fill-rule:nonzero;stroke:none"
           id="path230" />
        <path
           d="m 5776.23,9955.35 c 10.77,38.78 -6.51,82.35 -50.09,88.05 -38.51,4.9 -79.78,-22.5 -92.75,-58.51 -14.13,-39.23 9.22,-78.57 49.19,-87.97 43.67,-10.27 78.98,19.18 93.65,58.43 6.77,18.11 -22.22,25.92 -28.93,7.97 -8.17,-21.86 -27.04,-41.05 -52.01,-38.38 -27.2,2.91 -43.47,27.7 -32.21,53.2 8.36,18.92 28.88,33.16 49.37,35.46 30.59,3.4 41.95,-24.7 34.85,-50.28 -5.17,-18.63 23.77,-26.58 28.93,-7.97"
           style="fill:#6780a7;fill-opacity:1;fill-rule:nonzero;stroke:none"
           id="path232" />
        <path
           d="m 35.7188,9955.79 -9999.9988,0 0,10000.01 9999.9988,0 0,-10000.01"
           style="fill:#e9f0f2;fill-opacity:1;fill-rule:nonzero;stroke:none"
           id="path234" />
      </g>
    </pattern>
  </defs>
  <sodipodi:namedview
     id="namedview4"
     pagecolor="#ffffff"
     bordercolor="#000000"
     borderopacity="0.25"
     inkscape:showpageshadow="2"
     inkscape:pageopacity="0.0"
     inkscape:pagecheckerboard="0"
     inkscape:deskcolor="#d1d1d1" />
  <g
     id="g8"
     inkscape:groupmode="layer"
     inkscape:label="ink_ext_XXXXXX"
     transform="matrix(1.3333333,0,0,-1.3333333,0,1333.3333)">
    <g
       id="g10"
       transform="scale(0.1)">
      <path
         d="M 10000,0 H 0 V 10000 H 10000 V 0"
         style="fill:url(#pattern238);fill-opacity:1;fill-rule:nonzero;stroke:none"
         id="path240" />
    </g>
  </g>
</svg>
