 <svg xmlns="http://www.w3.org/2000/svg" version="1.0" width="100%" height="100%" viewBox="0 0 832.000000 535.000000" preserveAspectRatio="xMidYMid meet">
<g transform="translate(0.000000,535.000000) scale(0.100000,-0.100000)" fill="#000000" stroke="none">
<path d="M3657 5159 c-20 -20 -24 -29 -13 -29 8 0 22 -12 30 -27 10 -19 15 -23 16 -11 0 9 10 24 22 32 20 14 20 16 4 22 -10 4 -21 15 -24 24 -6 15 -10 14 -35 -11z"/>
<path d="M4750 5015 c0 -2 9 -27 20 -55 11 -28 20 -57 20 -64 0 -8 -33 -33 -72 -57 -83 -50 -75 -58 35 -36 l67 15 0 -24 c0 -12 4 -25 9 -28 8 -5 204 84 218 98 4 4 -281 156 -292 156 -3 0 -5 -2 -5 -5z m223 -134 c-9 -1 -49 0 -89 4 l-72 7 -17 41 c-10 23 -20 48 -23 56 -3 8 45 -13 106 -45 62 -33 104 -61 95 -63z m-48 -12 c38 0 45 -2 30 -9 -19 -9 -223 -50 -248 -50 -6 0 13 16 43 35 44 29 62 35 90 30 19 -2 58 -5 85 -6z m-15 -59 c-66 -35 -66 -35 -73 -10 -4 16 1 21 32 26 20 3 41 7 46 9 6 2 19 4 30 4 12 0 -3 -12 -35 -29z"/>
<path d="M5643 4749 c-64 -24 -131 -88 -162 -152 -13 -26 -29 -89 -37 -140 -24 -161 -69 -331 -92 -346 -11 -8 -42 -71 -35 -71 3 0 11 8 18 17 11 14 11 8 3 -32 -7 -39 -6 -60 5 -93 l15 -43 -38 -19 c-82 -42 -94 -67 -188 -380 l-20 -65 -493 -5 c-272 -3 -500 -9 -506 -13 -7 -5 -13 -19 -13 -32 0 -24 135 -549 146 -566 3 -5 -162 -9 -405 -9 l-410 0 47 49 c26 27 101 112 167 189 l120 140 63 7 c36 4 86 19 115 34 56 28 102 84 91 110 -9 21 -9 40 0 73 6 20 3 31 -16 49 -12 13 -28 33 -33 44 -6 11 -18 21 -27 23 -18 3 -29 -7 -78 -76 -52 -73 -120 -80 -91 -9 21 52 24 76 11 92 -32 38 -78 0 -130 -110 -30 -64 -32 -65 -193 -171 -89 -58 -167 -108 -172 -111 -15 -5 -57 86 -60 129 -5 53 -167 439 -209 496 -52 72 -138 126 -258 163 -56 17 -108 33 -117 36 -11 4 -13 3 -6 -5 6 -5 53 -23 105 -40 125 -38 173 -64 230 -122 59 -58 69 -77 170 -331 l82 -204 -39 -32 c-45 -38 -148 -92 -183 -95 l-25 -3 -6 187 c-3 103 -9 191 -13 195 -5 5 -6 -59 -2 -142 3 -82 9 -302 12 -487 l7 -338 -520 0 -520 0 -7 46 c-9 72 -7 102 8 111 8 4 45 37 83 73 37 35 106 100 153 145 150 141 180 166 191 159 7 -4 8 -9 1 -13 -6 -3 60 -5 146 -3 87 2 161 7 165 11 11 11 89 491 83 508 -8 19 -304 19 -312 0 -2 -7 -10 -47 -17 -88 l-13 -74 -17 30 c-9 17 -16 24 -17 18 0 -7 -6 -13 -14 -13 -19 0 -75 -64 -120 -138 -36 -58 -48 -68 -178 -147 -77 -48 -141 -85 -143 -83 -1 2 35 80 80 173 46 94 81 172 79 174 -6 7 -7 5 -87 -162 l-76 -159 -34 26 c-54 41 -139 75 -209 83 l-67 8 88 230 c105 275 110 285 171 346 63 63 121 91 273 130 70 19 127 38 127 42 0 5 -6 7 -14 4 -7 -3 -67 -20 -132 -37 -131 -35 -157 -46 -225 -96 -75 -55 -111 -120 -214 -389 -126 -328 -155 -423 -155 -502 0 -193 168 -340 333 -290 l47 15 0 -34 0 -34 -101 0 c-98 0 -101 -1 -130 -29 -16 -16 -29 -38 -29 -48 0 -10 29 -144 65 -298 74 -318 95 -370 168 -426 65 -48 103 -60 225 -66 l102 -6 0 -38 c0 -35 3 -39 25 -39 l25 0 0 -399 0 -400 -33 -3 c-26 -2 -33 -8 -35 -30 -3 -27 -3 -27 -95 -30 l-92 -3 0 -60 0 -60 677 -3 676 -2 21 26 c43 55 24 82 -115 163 l-106 62 6 67 c3 37 13 216 21 397 9 182 19 365 23 408 l7 79 120 -473 119 -473 -3 -107 c-2 -98 -1 -109 18 -128 l21 -21 1370 0 1370 0 0 65 0 65 -89 0 -88 0 -6 30 c-6 27 -11 30 -42 30 l-35 0 0 415 0 415 25 0 c23 0 25 4 25 45 l0 45 100 0 c77 0 112 5 156 21 65 25 130 83 158 143 22 47 147 566 147 614 1 22 -7 42 -22 58 -20 22 -31 24 -106 24 l-83 0 0 40 0 41 38 -8 c166 -34 322 87 322 252 0 80 -69 311 -171 571 -55 143 -112 278 -125 301 -31 54 -90 89 -185 109 l-76 17 -6 180 c-4 99 -7 221 -7 271 0 109 -12 157 -49 198 -24 27 -36 32 -87 36 -54 4 -62 8 -93 45 -19 22 -53 48 -75 58 -56 25 -164 24 -233 -2z m236 -16 c34 -16 61 -38 73 -60 18 -30 25 -33 65 -33 92 0 136 -44 147 -145 10 -95 16 -500 8 -513 -7 -11 -22 -11 -73 -3 -35 6 -79 14 -96 17 l-33 5 0 72 c0 89 40 187 77 187 26 0 63 44 63 74 0 50 -56 62 -89 19 -12 -14 -23 -24 -25 -22 -6 7 -44 162 -51 207 -4 23 -8 42 -11 42 -2 0 -25 -14 -51 -30 -58 -37 -183 -86 -243 -94 -107 -16 -103 -14 -96 -57 5 -30 3 -41 -8 -45 -35 -14 -36 -91 -1 -118 7 -6 18 -29 24 -52 15 -57 50 -106 89 -124 28 -13 32 -19 30 -49 l-3 -33 -150 -43 c-82 -24 -150 -43 -151 -42 -36 49 -31 123 16 273 22 69 47 167 55 218 26 157 35 192 64 238 78 123 246 173 370 111z m81 -325 l18 -68 -76 0 c-52 1 -83 5 -96 15 -27 21 -58 19 -84 -5 -24 -23 -42 -26 -43 -7 0 10 -2 10 -6 0 -7 -18 -21 -16 -50 7 -14 11 -35 20 -46 20 -16 0 -18 3 -9 12 6 6 28 11 49 10 30 -1 34 1 20 9 -9 6 -31 9 -49 7 -17 -2 -33 2 -35 8 -2 7 24 16 68 23 79 13 202 58 264 96 l40 25 9 -42 c4 -24 16 -73 26 -110z m128 -50 c7 -7 12 -19 12 -28 0 -23 -46 -64 -64 -57 -10 4 -22 -11 -41 -48 -51 -105 -149 -165 -270 -165 -86 0 -128 36 -156 132 -6 23 -5 28 11 28 10 0 28 8 41 19 19 16 25 16 37 5 7 -8 19 -14 25 -14 7 0 4 7 -6 14 -13 10 -16 21 -11 40 8 33 34 34 34 2 0 -27 42 -66 70 -66 31 0 70 39 70 71 l0 29 75 0 c60 0 75 -3 75 -15 0 -8 5 -15 10 -15 6 0 10 6 10 14 0 18 39 66 54 66 6 0 17 -5 24 -12z m-474 -19 c14 -11 26 -30 26 -41 0 -29 -28 -58 -57 -58 -21 0 -23 4 -23 53 0 73 9 81 54 46z m190 0 c48 -38 23 -99 -41 -99 -74 0 -67 112 8 119 4 1 18 -8 33 -20z m-256 -44 c0 -25 -4 -45 -9 -45 -12 0 -21 39 -15 66 10 40 25 27 24 -21z m387 -332 c-53 -46 -184 -55 -226 -17 -27 24 -24 31 15 38 55 10 148 62 191 106 l40 41 3 -73 c3 -68 1 -75 -23 -95z m248 -13 c154 -30 220 -57 252 -103 13 -19 200 -481 219 -543 6 -20 2 -22 -58 -26 -37 -3 -87 -16 -118 -30 -61 -28 -132 -93 -122 -110 11 -17 -15 -5 -153 68 l-122 65 -38 71 c-51 98 -121 173 -174 186 -43 11 -89 2 -89 -18 0 -5 -9 -10 -21 -10 -28 0 -59 -18 -59 -35 0 -7 -10 -15 -21 -17 -27 -4 -44 -30 -36 -52 3 -8 38 -30 78 -48 l71 -32 43 -91 c26 -57 53 -100 70 -111 43 -30 166 -129 215 -173 l45 -40 -412 -1 -413 0 0 43 c0 23 -10 84 -21 136 l-22 94 -62 28 -62 28 -12 58 c-7 32 -19 72 -26 89 -12 29 -9 47 39 206 60 199 63 205 110 246 35 30 88 50 309 113 l77 22 25 -23 c51 -48 210 -35 260 20 24 26 52 25 228 -10z m-3663 -428 c0 -35 -22 -68 -39 -58 -11 7 -7 56 6 79 11 19 33 5 33 -21z m1276 -7 c4 -9 -3 -37 -14 -62 -21 -50 -16 -83 14 -83 31 0 75 32 100 73 14 23 33 47 41 54 21 16 43 5 43 -22 0 -29 -80 -115 -108 -115 -11 0 -24 -4 -27 -10 -8 -13 4 -13 43 1 17 6 47 30 67 55 39 47 52 53 61 29 10 -25 -5 -85 -21 -85 -8 0 -30 -14 -49 -31 -20 -17 -48 -35 -63 -40 -26 -8 -26 -9 6 -4 18 3 49 18 68 35 69 61 91 13 23 -51 -39 -37 -65 -46 -183 -64 -33 -5 -51 -22 -164 -153 -70 -81 -149 -168 -175 -194 l-48 -48 -138 0 -138 0 -40 34 c-60 51 -92 117 -96 200 l-3 68 61 22 c34 13 87 41 119 64 l58 41 24 -51 c12 -27 23 -53 23 -58 0 -4 -25 -24 -55 -44 -30 -20 -55 -39 -55 -42 0 -7 -3 -9 253 159 l228 150 28 61 c46 100 101 153 117 111z m2121 -24 c35 -28 86 -100 123 -172 29 -57 29 -57 187 -141 184 -97 249 -128 266 -127 6 0 -17 15 -53 32 -36 18 -66 39 -68 48 -9 49 120 125 230 136 l66 6 10 -34 c5 -19 22 -86 37 -150 26 -108 28 -121 16 -173 -16 -74 -62 -133 -131 -169 -50 -26 -62 -28 -127 -24 -87 5 -105 15 -248 144 -100 89 -260 222 -310 257 -16 11 -43 54 -69 110 -40 85 -47 94 -87 113 -24 11 -54 23 -66 27 -62 19 -48 71 16 60 70 -13 127 -53 174 -124 12 -17 17 -19 17 -9 0 9 -18 36 -39 61 -35 39 -73 63 -134 82 -30 10 -14 31 26 34 58 5 133 -42 181 -113 15 -22 26 -31 26 -21 0 24 -67 93 -119 123 -25 15 -48 28 -50 29 -1 2 0 8 4 14 12 19 89 6 122 -19z m-3510 -88 c-3 -21 -9 -48 -13 -60 -6 -22 -3 -23 43 -23 36 0 68 9 112 31 64 32 91 33 91 2 0 -38 -31 -58 -130 -85 -63 -17 -64 -18 -17 -13 27 3 69 14 95 25 50 22 71 15 53 -18 -19 -36 -62 -61 -112 -68 -27 -4 -52 -11 -55 -15 -3 -5 -1 -9 3 -9 22 0 128 32 140 42 20 16 28 2 15 -27 -22 -47 -67 -65 -228 -92 -49 -8 -60 -16 -248 -193 -108 -102 -215 -195 -238 -207 -55 -30 -145 -31 -204 -2 -84 40 -143 135 -152 245 -4 51 1 80 28 164 l32 102 76 -4 c116 -7 249 -79 225 -122 -5 -9 -46 -34 -92 -56 -46 -22 -81 -43 -79 -46 9 -9 197 90 343 180 137 85 141 88 197 172 59 88 82 113 107 114 10 0 12 -9 8 -37z m2703 -7 c16 -20 151 -535 148 -566 l-3 -25 -500 0 -499 0 -75 289 c-73 278 -74 289 -56 302 29 21 967 21 985 0z m-2684 -41 c-4 -14 -10 -25 -15 -25 -5 0 -4 16 2 36 12 39 23 29 13 -11z m2875 -265 c17 -71 16 -76 -1 -101 -11 -14 -26 -31 -34 -38 -16 -14 -12 -24 -51 124 -15 55 -29 108 -31 118 -5 15 0 15 48 -6 l53 -23 16 -74z m25 -174 c-7 -50 -10 -56 -31 -56 -43 0 -47 47 -8 95 35 44 47 32 39 -39z m-2242 -93 c26 -21 26 -22 6 -28 -19 -6 -21 -13 -18 -78 l3 -72 658 -3 657 -2 0 -35 c0 -31 3 -35 25 -35 l25 0 0 -456 0 -456 -100 -342 c-56 -187 -104 -350 -109 -361 -5 -12 -33 -30 -65 -44 -54 -22 -83 -23 -114 -3 -7 5 -80 258 -162 563 -81 305 -158 580 -170 611 -29 79 -113 193 -185 251 -86 69 -158 100 -355 155 l-175 48 -3 199 -2 200 28 -46 c16 -25 41 -55 56 -66z m3168 2 c40 -36 86 -74 101 -83 l28 -17 -6 -120 c-4 -66 -11 -149 -16 -184 -23 -155 -120 -299 -263 -393 -86 -56 -170 -80 -303 -85 l-112 -5 -5 -72 c-8 -91 -46 -833 -46 -886 l0 -40 -242 2 -243 3 -48 565 c-53 623 -53 624 3 713 16 26 48 60 71 77 38 27 82 43 307 110 40 12 71 24 68 27 -11 11 -323 -90 -368 -119 -57 -36 -102 -94 -124 -161 -14 -41 -16 -71 -10 -156 l6 -105 -96 -306 c-53 -168 -120 -383 -150 -477 l-55 -173 -70 0 -69 0 0 633 0 632 24 57 c13 31 39 79 59 106 64 87 119 116 377 198 l233 74 307 0 c272 0 309 2 314 16 11 28 6 120 -6 132 -8 8 -51 12 -129 12 l-118 0 -3 28 -3 27 -162 3 c-136 2 -163 5 -163 17 0 13 56 15 420 15 l419 0 73 -65z m-602 -5 c0 -19 -7 -20 -190 -20 -104 0 -190 2 -190 4 0 2 3 11 6 20 5 14 32 16 190 16 177 0 184 -1 184 -20z m-1462 -102 l-3 -63 -552 -3 -553 -2 0 65 0 65 555 0 556 0 -3 -62z m1722 -3 l0 -65 -855 0 -855 0 0 65 0 65 855 0 855 0 0 -65z m-1270 -105 l0 -30 -115 0 -115 0 0 30 0 30 115 0 115 0 0 -30z m400 -39 c-113 -37 -223 -79 -245 -93 -58 -37 -132 -121 -160 -181 l-25 -52 0 163 0 162 25 0 c22 0 25 4 25 35 l0 35 293 -1 292 -1 -205 -67z m1417 41 c-9 -9 -38 -116 -67 -242 -58 -253 -71 -291 -125 -345 -59 -58 -114 -78 -225 -82 -78 -3 -91 -1 -70 9 142 66 159 77 231 148 112 112 178 256 179 391 0 25 3 67 6 93 l7 46 40 0 c38 0 39 -1 24 -18z m113 -2 c11 -11 20 -32 20 -47 0 -16 -31 -157 -68 -315 -74 -312 -87 -342 -164 -398 -74 -54 -114 -60 -404 -60 -145 0 -264 3 -266 8 -2 4 -2 35 0 70 l4 62 207 0 c156 0 220 4 258 15 62 19 143 88 172 148 11 23 43 143 71 266 52 229 60 255 82 264 29 12 69 6 88 -13z m-4765 -40 c12 -13 37 -101 71 -250 29 -126 62 -246 73 -267 27 -53 86 -108 146 -135 47 -22 65 -23 288 -26 l237 -4 0 -64 0 -64 -293 0 c-323 0 -351 4 -420 61 -67 55 -83 97 -158 414 -38 163 -66 302 -63 308 29 51 86 64 119 27z m125 -107 c0 -71 5 -162 10 -203 18 -141 101 -259 224 -320 l59 -30 -40 0 c-52 0 -156 52 -187 93 -44 59 -56 96 -107 320 -28 122 -57 232 -65 245 -14 22 -14 22 46 22 l60 0 0 -127z m2665 -748 l0 -850 -67 -3 -68 -3 0 856 0 856 68 -3 67 -3 0 -850z m500 -324 c19 -228 35 -424 35 -436 0 -19 -18 -27 -150 -68 -104 -33 -154 -54 -163 -67 -15 -25 -34 -26 -40 -2 -25 87 -23 92 123 559 77 246 143 455 147 463 9 19 7 40 48 -449z m687 347 c2 -36 7 -44 26 -46 l22 -3 0 -414 0 -414 -32 -3 c-28 -2 -34 -8 -36 -31 -3 -27 -5 -28 -55 -25 l-52 3 -8 68 c-6 45 -1 202 12 455 12 213 21 402 21 420 0 32 0 32 49 32 l50 0 3 -42z m248 7 l0 -35 -120 0 -120 0 0 35 0 35 120 0 120 0 0 -35z m-3550 -40 l0 -35 -115 0 -115 0 0 35 0 35 115 0 115 0 0 -35z m140 -358 c0 -217 -3 -428 -6 -470 l-7 -77 -43 0 c-39 0 -43 2 -46 28 -2 22 -8 28 -35 30 l-33 3 0 399 0 399 23 3 c18 2 23 10 25 41 l3 37 60 0 59 0 0 -393z m3360 -72 l0 -415 -70 0 -70 0 0 415 0 415 70 0 70 0 0 -415z m-3550 -15 l0 -401 -67 3 -68 3 -3 385 c-1 212 0 391 3 397 3 9 27 13 70 13 l65 0 0 -400z m2006 -317 c-2 -2 -46 -2 -98 -1 l-95 3 96 327 96 327 3 -326 c1 -179 1 -328 -2 -330z m-1266 37 l0 -60 -270 0 -270 0 0 60 0 60 270 0 270 0 0 -60z m837 5 c7 -27 13 -53 13 -58 0 -4 -120 -6 -267 -5 l-267 3 -13 50 c-7 28 -13 53 -13 58 0 4 120 6 267 5 l267 -3 13 -50z m153 -135 c21 -11 42 -25 45 -31 7 -10 -51 17 -85 40 -25 18 -1 12 40 -9z m-1655 -25 c0 -19 -8 -20 -142 -23 -134 -2 -143 -1 -143 16 0 10 3 22 7 26 4 3 68 5 142 4 128 -3 136 -4 136 -23z m2163 -2 c3 -23 3 -23 -137 -23 -140 0 -159 5 -147 36 5 12 29 14 143 12 135 -3 138 -4 141 -25z m1382 2 l0 -25 -140 0 -140 0 0 25 0 25 140 0 140 0 0 -25z m-3440 -71 c0 -19 5 -44 10 -55 11 -19 6 -19 -287 -17 l-298 3 -3 39 c-6 70 -23 66 293 66 l285 0 0 -36z m2245 -19 l0 -50 -330 0 -330 0 -3 39 c-6 71 -27 67 335 64 l328 -3 0 -50z m1385 0 l0 -55 -311 0 -310 0 20 26 c12 15 21 40 21 55 l0 29 290 0 290 0 0 -55z"/>
<path d="M5751 4401 c-10 -6 2 -9 35 -9 35 0 43 3 29 8 -27 11 -47 12 -64 1z"/>
<path d="M6036 4324 c-9 -23 -4 -24 17 -2 13 14 14 18 3 18 -8 0 -17 -7 -20 -16z"/>
<path d="M5730 4183 c-38 -7 -44 -19 -21 -42 26 -26 55 -27 81 -1 42 42 20 57 -60 43z m55 -33 c-3 -5 -10 -10 -16 -10 -5 0 -9 5 -9 10 0 6 7 10 16 10 8 0 12 -4 9 -10z"/>
<path d="M5596 4331 c-4 -7 -5 -15 -2 -18 9 -9 19 4 14 18 -4 11 -6 11 -12 0z"/>
<path d="M5766 4332 c-3 -6 -1 -14 5 -17 15 -10 25 3 12 16 -7 7 -13 7 -17 1z"/>
<path d="M6190 3561 c0 -5 24 -72 54 -148 30 -76 60 -151 66 -167 6 -16 13 -26 16 -23 6 6 -124 347 -132 347 -2 0 -4 -4 -4 -9z"/>
<path d="M5353 3515 c-6 -22 -25 -78 -42 -125 -18 -51 -30 -103 -30 -130 1 -44 1 -44 14 20 7 36 27 103 45 149 17 47 29 94 28 105 -2 15 -7 9 -15 -19z"/>
<path d="M3761 3350 c0 -14 -8 -36 -17 -48 -8 -12 -11 -22 -5 -22 17 0 33 39 28 68 -4 27 -4 27 -6 2z"/>
<path d="M4610 3100 c0 -17 7 -20 40 -20 33 0 40 3 40 20 0 17 -7 20 -40 20 -33 0 -40 -3 -40 -20z"/>
<path d="M5340 2820 c0 -5 5 -10 10 -10 6 0 10 5 10 10 0 6 -4 10 -10 10 -5 0 -10 -4 -10 -10z"/>
<path d="M5380 2819 c0 -5 5 -7 10 -4 6 3 10 8 10 11 0 2 -4 4 -10 4 -5 0 -10 -5 -10 -11z"/>
<path d="M3605 4750 c-3 -5 -1 -10 4 -10 6 0 11 5 11 10 0 6 -2 10 -4 10 -3 0 -8 -4 -11 -10z"/>
<path d="M3630 4750 c0 -6 11 -8 28 -4 39 10 40 14 4 14 -18 0 -32 -5 -32 -10z"/>
<path d="M3705 4750 c3 -5 8 -10 11 -10 2 0 4 5 4 10 0 6 -5 10 -11 10 -5 0 -7 -4 -4 -10z"/>
<path d="M3730 4750 c0 -5 14 -10 32 -10 36 0 35 4 -4 14 -17 4 -28 2 -28 -4z"/>
<path d="M4515 4750 c-13 -6 -15 -9 -5 -9 8 0 22 4 30 9 18 12 2 12 -25 0z"/>
<path d="M3520 4740 l-25 -8 25 0 c14 0 36 4 50 8 l25 8 -25 0 c-14 0 -36 -4 -50 -8z"/>
<path d="M3940 4729 c0 -5 5 -7 10 -4 6 3 10 8 10 11 0 2 -4 4 -10 4 -5 0 -10 -5 -10 -11z"/>
<path d="M4005 4730 c4 -6 11 -8 16 -5 14 9 11 15 -7 15 -8 0 -12 -5 -9 -10z"/>
<path d="M4040 4730 c0 -5 5 -10 11 -10 5 0 7 5 4 10 -3 6 -8 10 -11 10 -2 0 -4 -4 -4 -10z"/>
<path d="M4425 4730 l-30 -8 33 -1 c17 0 32 4 32 9 0 6 -1 9 -2 9 -2 -1 -16 -5 -33 -9z"/>
<path d="M3435 4723 c-35 -9 -68 -23 -63 -28 2 -2 31 4 63 15 53 17 53 26 0 13z"/>
<path d="M3835 4720 c7 -11 45 -19 45 -10 0 5 12 11 28 13 15 2 3 4 -25 4 -29 0 -50 -3 -48 -7z"/>
<path d="M4100 4718 c0 -4 14 -8 30 -8 17 0 30 2 30 4 0 2 -13 6 -30 8 -16 3 -30 1 -30 -4z"/>
<path d="M4170 4710 c0 -5 5 -10 11 -10 5 0 7 5 4 10 -3 6 -8 10 -11 10 -2 0 -4 -4 -4 -10z"/>
<path d="M4305 4710 c-3 -5 1 -10 10 -10 9 0 13 5 10 10 -3 6 -8 10 -10 10 -2 0 -7 -4 -10 -10z"/>
<path d="M3790 4700 c-18 -12 -2 -12 25 0 13 6 15 9 5 9 -8 0 -22 -4 -30 -9z"/>
<path d="M4213 4703 c9 -2 25 -2 35 0 9 3 1 5 -18 5 -19 0 -27 -2 -17 -5z"/>
<path d="M2399 4691 c-84 -18 -139 -79 -139 -153 0 -27 -5 -37 -24 -46 -30 -13 -44 -63 -41 -142 3 -78 9 -89 71 -140 l55 -45 -6 -101 c-5 -91 -4 -103 15 -127 28 -36 80 -51 158 -44 87 7 116 28 120 90 3 38 7 46 26 51 34 8 83 69 97 118 7 24 22 54 34 68 12 14 25 33 28 43 8 21 -8 68 -28 83 -12 9 -13 21 -5 64 5 29 10 83 10 120 0 82 -17 107 -90 139 -56 24 -215 37 -281 22z m354 -185 c3 -8 4 -22 2 -33 -2 -10 -7 -39 -10 -64 -5 -43 -7 -46 -37 -46 -23 0 -39 -9 -60 -32 -28 -31 -30 -32 -43 -14 -14 17 -14 17 -15 -2 0 -16 -5 -13 -28 15 -34 40 -77 45 -122 12 -33 -25 -110 -31 -110 -9 1 6 7 37 14 67 l13 55 44 -3 c39 -3 105 11 249 54 60 17 97 17 103 0z m-483 -166 c10 -5 23 -24 30 -42 10 -25 14 -28 17 -15 3 13 15 17 47 17 40 0 44 -2 49 -30 9 -43 41 -70 82 -70 41 0 85 36 85 70 0 28 18 25 32 -5 8 -19 8 -28 -2 -40 -8 -9 -9 -15 -2 -15 6 0 15 7 20 15 7 14 11 13 27 -5 10 -11 31 -20 47 -20 33 0 34 -10 9 -65 -33 -72 -86 -105 -168 -105 -91 0 -176 65 -231 176 -23 47 -30 54 -49 49 -44 -11 -74 61 -35 84 21 13 20 13 42 1z m279 -16 c12 -15 21 -34 21 -44 0 -30 -39 -70 -69 -70 -44 0 -71 26 -71 67 0 47 24 73 66 73 23 0 38 -7 53 -26z m189 -41 c-3 -63 -5 -68 -26 -71 -32 -5 -72 34 -72 68 0 36 34 70 71 70 l30 0 -3 -67z m42 -3 c0 -14 -7 -35 -15 -46 -13 -17 -14 -13 -14 46 0 59 1 63 14 46 8 -11 15 -32 15 -46z m-322 -284 c18 -9 58 -22 89 -30 l58 -13 -35 -21 c-101 -62 -263 -16 -246 70 3 17 6 48 6 70 l0 39 48 -49 c27 -27 63 -57 80 -66z"/>
<path d="M2651 4399 c-32 -13 -24 -17 23 -11 26 3 34 7 25 13 -17 10 -17 10 -48 -2z"/>
<path d="M2456 4387 c-15 -11 -11 -12 25 -9 28 3 37 7 28 13 -19 12 -32 11 -53 -4z"/>
<path d="M2230 4325 c0 -3 9 -14 20 -25 13 -13 20 -15 20 -7 0 7 -5 18 -12 25 -12 12 -28 16 -28 7z"/>
<path d="M2500 4153 c0 -25 30 -53 57 -53 21 0 53 29 53 48 0 7 -14 12 -32 12 -18 0 -43 3 -55 6 -18 5 -23 2 -23 -13z m48 -31 c2 -7 -2 -10 -12 -6 -9 3 -16 11 -16 16 0 13 23 5 28 -10z"/>
<path d="M2482 4299 c2 -6 8 -10 13 -10 5 0 11 4 13 10 2 6 -4 11 -13 11 -9 0 -15 -5 -13 -11z"/>
<path d="M2670 4310 c0 -5 7 -10 15 -10 8 0 15 5 15 10 0 6 -7 10 -15 10 -8 0 -15 -4 -15 -10z"/>
<path d="M3345 4690 c-3 -5 -1 -10 4 -10 6 0 11 5 11 10 0 6 -2 10 -4 10 -3 0 -8 -4 -11 -10z"/>
<path d="M3919 4664 c18 -20 34 -49 38 -65 3 -16 9 -29 13 -29 19 0 -18 78 -56 118 -28 28 -24 9 5 -24z"/>
<path d="M3315 4680 c-3 -5 -1 -10 4 -10 6 0 11 5 11 10 0 6 -2 10 -4 10 -3 0 -8 -4 -11 -10z"/>
<path d="M3719 4652 c-21 -22 -39 -43 -39 -48 0 -5 15 8 33 29 19 20 39 37 45 37 7 0 12 5 12 10 0 17 -10 11 -51 -28z"/>
<path d="M3250 4649 c0 -5 5 -7 10 -4 6 3 10 8 10 11 0 2 -4 4 -10 4 -5 0 -10 -5 -10 -11z"/>
<path d="M3225 4640 c-3 -5 -1 -10 4 -10 6 0 11 5 11 10 0 6 -2 10 -4 10 -3 0 -8 -4 -11 -10z"/>
<path d="M3190 4619 c0 -5 5 -7 10 -4 6 3 10 8 10 11 0 2 -4 4 -10 4 -5 0 -10 -5 -10 -11z"/>
<path d="M3165 4610 c-3 -5 -1 -10 4 -10 6 0 11 5 11 10 0 6 -2 10 -4 10 -3 0 -8 -4 -11 -10z"/>
<path d="M3113 4576 c-67 -46 -95 -71 -115 -101 -18 -26 -16 -25 18 8 21 22 59 53 84 70 56 38 54 36 49 41 -2 2 -18 -6 -36 -18z"/>
<path d="M3665 4580 c-3 -5 -1 -10 4 -10 6 0 11 5 11 10 0 6 -2 10 -4 10 -3 0 -8 -4 -11 -10z"/>
<path d="M3970 4529 c0 -16 4 -28 9 -25 8 5 3 56 -5 56 -2 0 -4 -14 -4 -31z"/>
<path d="M3651 4514 c0 -11 3 -14 6 -6 3 7 2 16 -1 19 -3 4 -6 -2 -5 -13z"/>
<path d="M3970 4480 c0 -5 5 -10 10 -10 6 0 10 5 10 10 0 6 -4 10 -10 10 -5 0 -10 -4 -10 -10z"/>
<path d="M3666 4423 c15 -36 70 -100 79 -91 3 2 -11 19 -29 36 -19 18 -37 46 -41 62 -4 17 -11 30 -15 30 -5 0 -2 -17 6 -37z"/>
<path d="M3971 4444 c0 -11 3 -14 6 -6 3 7 2 16 -1 19 -3 4 -6 -2 -5 -13z"/>
<path d="M2965 4430 c-3 -5 -1 -10 4 -10 6 0 11 5 11 10 0 6 -2 10 -4 10 -3 0 -8 -4 -11 -10z"/>
<path d="M3960 4409 c0 -5 5 -7 10 -4 6 3 10 8 10 11 0 2 -4 4 -10 4 -5 0 -10 -5 -10 -11z"/>
<path d="M5117 4379 c-20 -20 -24 -29 -13 -29 8 0 21 -10 27 -22 l12 -22 8 22 c5 12 16 22 26 22 16 0 16 2 -3 18 -12 9 -23 22 -25 28 -2 7 -16 -1 -32 -17z"/>
<path d="M3927 4360 c-15 -16 -23 -30 -19 -30 11 0 55 50 49 56 -2 2 -16 -9 -30 -26z"/>
<path d="M4711 4336 c12 -10 59 -15 59 -6 0 5 -14 10 -32 10 -17 0 -29 -2 -27 -4z"/>
<path d="M3865 4320 c-3 -5 -2 -10 4 -10 5 0 13 5 16 10 3 6 2 10 -4 10 -5 0 -13 -4 -16 -10z"/>
<path d="M4648 4323 c7 -3 16 -2 19 1 4 3 -2 6 -13 5 -11 0 -14 -3 -6 -6z"/>
<path d="M4785 4320 c3 -5 8 -10 11 -10 2 0 4 5 4 10 0 6 -5 10 -11 10 -5 0 -7 -4 -4 -10z"/>
<path d="M3798 4313 c7 -3 16 -2 19 1 4 3 -2 6 -13 5 -11 0 -14 -3 -6 -6z"/>
<path d="M4610 4309 c0 -5 5 -7 10 -4 6 3 10 8 10 11 0 2 -4 4 -10 4 -5 0 -10 -5 -10 -11z"/>
<path d="M4810 4310 c0 -5 5 -10 11 -10 5 0 7 5 4 10 -3 6 -8 10 -11 10 -2 0 -4 -4 -4 -10z"/>
<path d="M4571 4284 c-7 -8 -11 -17 -9 -20 3 -2 13 5 23 16 10 11 14 20 9 20 -5 -1 -15 -8 -23 -16z"/>
<path d="M4840 4292 c0 -4 10 -13 23 -21 22 -14 22 -14 3 8 -20 22 -26 25 -26 13z"/>
<path d="M1750 4278 c0 -9 -10 -24 -22 -32 l-22 -16 22 -16 c12 -8 22 -23 22 -32 1 -14 2 -14 12 3 6 11 18 26 26 33 14 11 14 13 0 25 -8 6 -20 21 -26 32 -10 17 -11 17 -12 3z"/>
<path d="M4540 4239 c0 -5 5 -7 10 -4 6 3 10 8 10 11 0 2 -4 4 -10 4 -5 0 -10 -5 -10 -11z"/>
<path d="M4885 4240 c3 -5 8 -10 11 -10 2 0 4 5 4 10 0 6 -5 10 -11 10 -5 0 -7 -4 -4 -10z"/>
<path d="M4525 4210 c-3 -5 -1 -10 4 -10 6 0 11 5 11 10 0 6 -2 10 -4 10 -3 0 -8 -4 -11 -10z"/>
<path d="M4900 4220 c0 -3 7 -25 15 -50 l15 -45 -4 39 c-3 22 -10 44 -16 50 -5 5 -10 8 -10 6z"/>
<path d="M6788 4159 c-10 -16 -25 -29 -35 -29 -14 -1 -13 -3 6 -14 13 -7 30 -24 37 -37 11 -19 13 -20 14 -6 0 10 13 25 29 35 28 16 29 16 8 27 -12 6 -26 20 -32 32 -11 21 -11 20 -27 -8z"/>
<path d="M4510 4140 c0 -5 5 -10 10 -10 6 0 10 5 10 10 0 6 -4 10 -10 10 -5 0 -10 -4 -10 -10z"/>
<path d="M4515 4110 c3 -5 8 -10 11 -10 2 0 4 5 4 10 0 6 -5 10 -11 10 -5 0 -7 -4 -4 -10z"/>
<path d="M4920 4091 c0 -17 2 -31 4 -31 8 0 13 51 5 56 -5 3 -9 -9 -9 -25z"/>
<path d="M3818 4037 c-76 -39 -138 -75 -138 -78 0 -3 48 -29 108 -57 l107 -50 3 29 c4 34 -1 33 97 13 42 -9 79 -14 82 -11 2 3 -27 24 -66 47 -39 24 -74 46 -76 51 -3 4 4 31 15 59 22 55 24 70 13 70 -5 0 -70 -33 -145 -73z m113 -9 l-19 -45 -88 -6 c-48 -4 -89 -5 -91 -3 -2 1 45 28 104 59 60 31 109 52 111 48 1 -4 -6 -28 -17 -53z m49 -94 c37 -24 47 -34 30 -30 -14 3 -79 15 -145 28 -113 22 -117 23 -75 29 106 14 132 10 190 -27z m-155 -7 c50 -11 61 -17 63 -35 4 -28 0 -28 -78 13 -72 38 -71 40 15 22z"/>
<path d="M4521 4074 c0 -11 3 -14 6 -6 3 7 2 16 -1 19 -3 4 -6 -2 -5 -13z"/>
<path d="M4536 4030 c7 -28 12 -35 18 -29 2 2 -2 15 -10 29 l-15 25 7 -25z"/>
<path d="M4915 4040 c-3 -5 -1 -10 4 -10 6 0 11 5 11 10 0 6 -2 10 -4 10 -3 0 -8 -4 -11 -10z"/>
<path d="M5290 4022 c0 -4 -18 -18 -40 -32 -22 -14 -40 -28 -40 -33 0 -9 86 48 95 63 3 6 1 10 -4 10 -6 0 -11 -3 -11 -8z"/>
<path d="M4893 3981 c-11 -22 -16 -38 -12 -35 12 7 41 65 36 70 -2 3 -13 -13 -24 -35z"/>
<path d="M4560 3986 c0 -10 50 -59 56 -54 2 3 -10 17 -26 33 -17 16 -30 25 -30 21z"/>
<path d="M5150 3929 c0 -5 5 -7 10 -4 6 3 10 8 10 11 0 2 -4 4 -10 4 -5 0 -10 -5 -10 -11z"/>
<path d="M4630 3920 c0 -5 5 -10 11 -10 5 0 7 5 4 10 -3 6 -8 10 -11 10 -2 0 -4 -4 -4 -10z"/>
<path d="M4828 3909 c-32 -24 -88 -42 -88 -28 0 5 -4 9 -10 9 -5 0 -7 -7 -4 -15 4 -10 0 -15 -15 -15 -12 0 -21 -4 -21 -10 0 -5 20 -3 46 5 25 7 52 11 60 8 8 -3 14 1 14 11 0 9 3 16 8 16 11 1 58 40 47 39 -5 0 -22 -9 -37 -20z"/>
<path d="M5090 3910 c-51 -22 -46 -26 11 -8 22 6 39 15 39 20 0 4 -1 8 -2 7 -2 -1 -23 -9 -48 -19z"/>
<path d="M4665 3900 c3 -5 8 -10 11 -10 2 0 4 5 4 10 0 6 -5 10 -11 10 -5 0 -7 -4 -4 -10z"/>
<path d="M4695 3890 c3 -5 8 -10 11 -10 2 0 4 5 4 10 0 6 -5 10 -11 10 -5 0 -7 -4 -4 -10z"/>
<path d="M4265 3880 c11 -5 27 -9 35 -9 9 0 8 4 -5 9 -11 5 -27 9 -35 9 -9 0 -8 -4 5 -9z"/>
<path d="M4990 3879 c0 -5 5 -7 10 -4 6 3 10 8 10 11 0 2 -4 4 -10 4 -5 0 -10 -5 -10 -11z"/>
<path d="M4920 3870 c0 -6 11 -8 28 -4 39 10 40 14 4 14 -18 0 -32 -5 -32 -10z"/>
<path d="M4350 3860 c0 -5 14 -10 32 -10 36 0 35 4 -4 14 -17 4 -28 2 -28 -4z"/>
<path d="M4833 3863 c9 -2 25 -2 35 0 9 3 1 5 -18 5 -19 0 -27 -2 -17 -5z"/>
<path d="M4420 3850 c0 -5 5 -10 11 -10 5 0 7 5 4 10 -3 6 -8 10 -11 10 -2 0 -4 -4 -4 -10z"/>
<path d="M4451 3846 c12 -10 59 -15 59 -6 0 5 -14 10 -32 10 -17 0 -29 -2 -27 -4z"/>
<path d="M4520 3840 c0 -5 5 -10 10 -10 6 0 10 5 10 10 0 6 -4 10 -10 10 -5 0 -10 -4 -10 -10z"/>
<path d="M4590 3840 c0 -5 5 -10 10 -10 6 0 10 5 10 10 0 6 -4 10 -10 10 -5 0 -10 -4 -10 -10z"/>
<path d="M4620 3840 c0 -6 11 -8 28 -4 39 10 40 14 4 14 -18 0 -32 -5 -32 -10z"/>
<path d="M4558 3833 c7 -3 16 -2 19 1 4 3 -2 6 -13 5 -11 0 -14 -3 -6 -6z"/>
<path d="M2412 3505 c0 -16 2 -22 5 -12 2 9 2 23 0 30 -3 6 -5 -1 -5 -18z"/>
<path d="M775 977 c-6 -12 -21 -27 -34 -33 l-23 -12 22 -7 c11 -4 26 -18 33 -31 l11 -25 13 25 c7 13 22 28 34 31 21 7 21 7 -2 19 -13 6 -28 21 -34 33 l-11 21 -9 -21z"/>
<path d="M7776 883 c-4 -12 -19 -26 -34 -32 -16 -5 -20 -10 -10 -10 9 -1 26 -13 37 -27 16 -20 21 -22 21 -10 0 9 12 22 26 28 25 12 25 12 5 20 -12 4 -25 18 -30 30 l-8 23 -7 -22z"/>
</g>
</svg>