<svg xmlns="http://www.w3.org/2000/svg" version="1.1" xmlns:xlink="http://www.w3.org/1999/xlink" xmlns:svgjs="http://svgjs.com/svgjs" width="1440" height="560" preserveAspectRatio="none" viewBox="0 0 1440 560">
    <g mask="url(&quot;#SvgjsMask1407&quot;)" fill="none">
        <rect width="1440" height="560" x="0" y="0" fill="url(#SvgjsLinearGradient1408)"></rect>
        <path d="M-86.6 363.95L-86.6 363.95" stroke="rgba(204, 211, 225, 1)" stroke-width="1.5"></path>
        <path d="M-86.6 363.95L-109.78 508.31" stroke="rgba(204, 211, 225, 1)" stroke-width="1.5"></path>
        <path d="M-86.6 363.95L110.35 407.44" stroke="rgba(204, 211, 225, 1)" stroke-width="1.5"></path>
        <path d="M-86.6 363.95L66.51 654.48" stroke="rgba(204, 211, 225, 1)" stroke-width="1.5"></path>
        <path d="M-109.78 508.31L-109.78 508.31" stroke="rgba(204, 211, 225, 1)" stroke-width="1.5"></path>
        <path d="M-109.78 508.31L-108.86 700.13" stroke="rgba(204, 211, 225, 1)" stroke-width="1.5"></path>
        <path d="M-109.78 508.31L66.51 654.48" stroke="rgba(204, 211, 225, 1)" stroke-width="1.5"></path>
        <path d="M-109.78 508.31L110.35 407.44" stroke="rgba(204, 211, 225, 1)" stroke-width="1.5"></path>
        <path d="M-109.78 508.31L207.55 538.88" stroke="rgba(204, 211, 225, 1)" stroke-width="1.5"></path>
        <path d="M-108.86 700.13L-108.86 700.13" stroke="rgba(204, 211, 225, 1)" stroke-width="1.5"></path>
        <path d="M-108.86 700.13L66.51 654.48" stroke="rgba(204, 211, 225, 1)" stroke-width="1.5"></path>
        <path d="M-108.86 700.13L197.87 670.19" stroke="rgba(204, 211, 225, 1)" stroke-width="1.5"></path>
        <path d="M-108.86 700.13L-86.6 363.95" stroke="rgba(204, 211, 225, 1)" stroke-width="1.5"></path>
        <path d="M-108.86 700.13L207.55 538.88" stroke="rgba(204, 211, 225, 1)" stroke-width="1.5"></path>
        <path d="M-108.86 700.13L110.35 407.44" stroke="rgba(204, 211, 225, 1)" stroke-width="1.5"></path>
        <path d="M110.35 407.44L110.35 407.44" stroke="rgba(204, 211, 225, 1)" stroke-width="1.5"></path>
        <path d="M110.35 407.44L247.09 399.69" stroke="rgba(204, 211, 225, 1)" stroke-width="1.5"></path>
        <path d="M110.35 407.44L207.55 538.88" stroke="rgba(204, 211, 225, 1)" stroke-width="1.5"></path>
        <path d="M66.51 654.48L66.51 654.48" stroke="rgba(204, 211, 225, 1)" stroke-width="1.5"></path>
        <path d="M66.51 654.48L197.87 670.19" stroke="rgba(204, 211, 225, 1)" stroke-width="1.5"></path>
        <path d="M66.51 654.48L207.55 538.88" stroke="rgba(204, 211, 225, 1)" stroke-width="1.5"></path>
        <path d="M66.51 654.48L110.35 407.44" stroke="rgba(204, 211, 225, 1)" stroke-width="1.5"></path>
        <path d="M247.09 399.69L247.09 399.69" stroke="rgba(204, 211, 225, 1)" stroke-width="1.5"></path>
        <path d="M247.09 399.69L382.21 410.13" stroke="rgba(204, 211, 225, 1)" stroke-width="1.5"></path>
        <path d="M247.09 399.69L207.55 538.88" stroke="rgba(204, 211, 225, 1)" stroke-width="1.5"></path>
        <path d="M247.09 399.69L378.05 519.18" stroke="rgba(204, 211, 225, 1)" stroke-width="1.5"></path>
        <path d="M247.09 399.69L197.87 670.19" stroke="rgba(204, 211, 225, 1)" stroke-width="1.5"></path>
        <path d="M247.09 399.69L515.62 495.62" stroke="rgba(204, 211, 225, 1)" stroke-width="1.5"></path>
        <path d="M207.55 538.88L207.55 538.88" stroke="rgba(204, 211, 225, 1)" stroke-width="1.5"></path>
        <path d="M207.55 538.88L197.87 670.19" stroke="rgba(204, 211, 225, 1)" stroke-width="1.5"></path>
        <path d="M207.55 538.88L378.05 519.18" stroke="rgba(204, 211, 225, 1)" stroke-width="1.5"></path>
        <path d="M197.87 670.19L197.87 670.19" stroke="rgba(204, 211, 225, 1)" stroke-width="1.5"></path>
        <path d="M197.87 670.19L378.05 519.18" stroke="rgba(204, 211, 225, 1)" stroke-width="1.5"></path>
        <path d="M197.87 670.19L110.35 407.44" stroke="rgba(204, 211, 225, 1)" stroke-width="1.5"></path>
        <path d="M382.21 410.13L382.21 410.13" stroke="rgba(204, 211, 225, 1)" stroke-width="1.5"></path>
        <path d="M382.21 410.13L378.05 519.18" stroke="rgba(204, 211, 225, 1)" stroke-width="1.5"></path>
        <path d="M382.21 410.13L515.62 495.62" stroke="rgba(204, 211, 225, 1)" stroke-width="1.5"></path>
        <path d="M382.21 410.13L549.28 345.57" stroke="rgba(204, 211, 225, 1)" stroke-width="1.5"></path>
        <path d="M382.21 410.13L207.55 538.88" stroke="rgba(204, 211, 225, 1)" stroke-width="1.5"></path>
        <path d="M378.05 519.18L378.05 519.18" stroke="rgba(204, 211, 225, 1)" stroke-width="1.5"></path>
        <path d="M378.05 519.18L515.62 495.62" stroke="rgba(204, 211, 225, 1)" stroke-width="1.5"></path>
        <path d="M549.28 345.57L549.28 345.57" stroke="rgba(204, 211, 225, 1)" stroke-width="1.5"></path>
        <path d="M549.28 345.57L515.62 495.62" stroke="rgba(204, 211, 225, 1)" stroke-width="1.5"></path>
        <path d="M549.28 345.57L705.28 374.66" stroke="rgba(204, 211, 225, 1)" stroke-width="1.5"></path>
        <path d="M515.62 495.62L515.62 495.62" stroke="rgba(204, 211, 225, 1)" stroke-width="1.5"></path>
        <path d="M515.62 495.62L647.08 523.41" stroke="rgba(204, 211, 225, 1)" stroke-width="1.5"></path>
        <path d="M560.93 664.42L560.93 664.42" stroke="rgba(204, 211, 225, 1)" stroke-width="1.5"></path>
        <path d="M560.93 664.42L646.63 701.13" stroke="rgba(204, 211, 225, 1)" stroke-width="1.5"></path>
        <path d="M560.93 664.42L647.08 523.41" stroke="rgba(204, 211, 225, 1)" stroke-width="1.5"></path>
        <path d="M674.8 246.69L674.8 246.69" stroke="rgba(204, 211, 225, 1)" stroke-width="1.5"></path>
        <path d="M674.8 246.69L705.28 374.66" stroke="rgba(204, 211, 225, 1)" stroke-width="1.5"></path>
        <path d="M674.8 246.69L808.61 253.42" stroke="rgba(204, 211, 225, 1)" stroke-width="1.5"></path>
        <path d="M674.8 246.69L549.28 345.57" stroke="rgba(204, 211, 225, 1)" stroke-width="1.5"></path>
        <path d="M674.8 246.69L844.41 377.33" stroke="rgba(204, 211, 225, 1)" stroke-width="1.5"></path>
        <path d="M674.8 246.69L647.08 523.41" stroke="rgba(204, 211, 225, 1)" stroke-width="1.5"></path>
        <path d="M674.8 246.69L951.54 196.96" stroke="rgba(204, 211, 225, 1)" stroke-width="1.5"></path>
        <path d="M705.28 374.66L705.28 374.66" stroke="rgba(204, 211, 225, 1)" stroke-width="1.5"></path>
        <path d="M705.28 374.66L844.41 377.33" stroke="rgba(204, 211, 225, 1)" stroke-width="1.5"></path>
        <path d="M705.28 374.66L808.61 253.42" stroke="rgba(204, 211, 225, 1)" stroke-width="1.5"></path>
        <path d="M647.08 523.41L647.08 523.41" stroke="rgba(204, 211, 225, 1)" stroke-width="1.5"></path>
        <path d="M647.08 523.41L705.28 374.66" stroke="rgba(204, 211, 225, 1)" stroke-width="1.5"></path>
        <path d="M647.08 523.41L814.44 532.17" stroke="rgba(204, 211, 225, 1)" stroke-width="1.5"></path>
        <path d="M647.08 523.41L646.63 701.13" stroke="rgba(204, 211, 225, 1)" stroke-width="1.5"></path>
        <path d="M647.08 523.41L549.28 345.57" stroke="rgba(204, 211, 225, 1)" stroke-width="1.5"></path>
        <path d="M646.63 701.13L646.63 701.13" stroke="rgba(204, 211, 225, 1)" stroke-width="1.5"></path>
        <path d="M646.63 701.13L816.21 679.09" stroke="rgba(204, 211, 225, 1)" stroke-width="1.5"></path>
        <path d="M808.61 253.42L808.61 253.42" stroke="rgba(204, 211, 225, 1)" stroke-width="1.5"></path>
        <path d="M808.61 253.42L844.41 377.33" stroke="rgba(204, 211, 225, 1)" stroke-width="1.5"></path>
        <path d="M808.61 253.42L951.54 196.96" stroke="rgba(204, 211, 225, 1)" stroke-width="1.5"></path>
        <path d="M808.61 253.42L990.92 411.28" stroke="rgba(204, 211, 225, 1)" stroke-width="1.5"></path>
        <path d="M844.41 377.33L844.41 377.33" stroke="rgba(204, 211, 225, 1)" stroke-width="1.5"></path>
        <path d="M844.41 377.33L990.92 411.28" stroke="rgba(204, 211, 225, 1)" stroke-width="1.5"></path>
        <path d="M844.41 377.33L814.44 532.17" stroke="rgba(204, 211, 225, 1)" stroke-width="1.5"></path>
        <path d="M814.44 532.17L814.44 532.17" stroke="rgba(204, 211, 225, 1)" stroke-width="1.5"></path>
        <path d="M814.44 532.17L816.21 679.09" stroke="rgba(204, 211, 225, 1)" stroke-width="1.5"></path>
        <path d="M814.44 532.17L969.99 490.14" stroke="rgba(204, 211, 225, 1)" stroke-width="1.5"></path>
        <path d="M816.21 679.09L816.21 679.09" stroke="rgba(204, 211, 225, 1)" stroke-width="1.5"></path>
        <path d="M816.21 679.09L984.79 707.47" stroke="rgba(204, 211, 225, 1)" stroke-width="1.5"></path>
        <path d="M816.21 679.09L647.08 523.41" stroke="rgba(204, 211, 225, 1)" stroke-width="1.5"></path>
        <path d="M816.21 679.09L969.99 490.14" stroke="rgba(204, 211, 225, 1)" stroke-width="1.5"></path>
        <path d="M816.21 679.09L560.93 664.42" stroke="rgba(204, 211, 225, 1)" stroke-width="1.5"></path>
        <path d="M959.4 -81.21L959.4 -81.21" stroke="rgba(204, 211, 225, 1)" stroke-width="1.5"></path>
        <path d="M959.4 -81.21L967.8 52.37" stroke="rgba(204, 211, 225, 1)" stroke-width="1.5"></path>
        <path d="M959.4 -81.21L1120.81 -81.04" stroke="rgba(204, 211, 225, 1)" stroke-width="1.5"></path>
        <path d="M967.8 52.37L967.8 52.37" stroke="rgba(204, 211, 225, 1)" stroke-width="1.5"></path>
        <path d="M967.8 52.37L951.54 196.96" stroke="rgba(204, 211, 225, 1)" stroke-width="1.5"></path>
        <path d="M967.8 52.37L1120.81 -81.04" stroke="rgba(204, 211, 225, 1)" stroke-width="1.5"></path>
        <path d="M967.8 52.37L808.61 253.42" stroke="rgba(204, 211, 225, 1)" stroke-width="1.5"></path>
        <path d="M967.8 52.37L1162.49 262.12" stroke="rgba(204, 211, 225, 1)" stroke-width="1.5"></path>
        <path d="M951.54 196.96L951.54 196.96" stroke="rgba(204, 211, 225, 1)" stroke-width="1.5"></path>
        <path d="M951.54 196.96L844.41 377.33" stroke="rgba(204, 211, 225, 1)" stroke-width="1.5"></path>
        <path d="M990.92 411.28L990.92 411.28" stroke="rgba(204, 211, 225, 1)" stroke-width="1.5"></path>
        <path d="M990.92 411.28L969.99 490.14" stroke="rgba(204, 211, 225, 1)" stroke-width="1.5"></path>
        <path d="M990.92 411.28L1106.95 338.66" stroke="rgba(204, 211, 225, 1)" stroke-width="1.5"></path>
        <path d="M969.99 490.14L969.99 490.14" stroke="rgba(204, 211, 225, 1)" stroke-width="1.5"></path>
        <path d="M984.79 707.47L984.79 707.47" stroke="rgba(204, 211, 225, 1)" stroke-width="1.5"></path>
        <path d="M984.79 707.47L1112.28 660.19" stroke="rgba(204, 211, 225, 1)" stroke-width="1.5"></path>
        <path d="M984.79 707.47L969.99 490.14" stroke="rgba(204, 211, 225, 1)" stroke-width="1.5"></path>
        <path d="M984.79 707.47L1131.89 522.33" stroke="rgba(204, 211, 225, 1)" stroke-width="1.5"></path>
        <path d="M1120.81 -81.04L1120.81 -81.04" stroke="rgba(204, 211, 225, 1)" stroke-width="1.5"></path>
        <path d="M1120.81 -81.04L1269.46 -83.99" stroke="rgba(204, 211, 225, 1)" stroke-width="1.5"></path>
        <path d="M1162.49 262.12L1162.49 262.12" stroke="rgba(204, 211, 225, 1)" stroke-width="1.5"></path>
        <path d="M1162.49 262.12L1106.95 338.66" stroke="rgba(204, 211, 225, 1)" stroke-width="1.5"></path>
        <path d="M1162.49 262.12L1311.48 221.45" stroke="rgba(204, 211, 225, 1)" stroke-width="1.5"></path>
        <path d="M1162.49 262.12L1284.71 367.54" stroke="rgba(204, 211, 225, 1)" stroke-width="1.5"></path>
        <path d="M1162.49 262.12L951.54 196.96" stroke="rgba(204, 211, 225, 1)" stroke-width="1.5"></path>
        <path d="M1106.95 338.66L1106.95 338.66" stroke="rgba(204, 211, 225, 1)" stroke-width="1.5"></path>
        <path d="M1131.89 522.33L1131.89 522.33" stroke="rgba(204, 211, 225, 1)" stroke-width="1.5"></path>
        <path d="M1131.89 522.33L1255.83 510.45" stroke="rgba(204, 211, 225, 1)" stroke-width="1.5"></path>
        <path d="M1131.89 522.33L1112.28 660.19" stroke="rgba(204, 211, 225, 1)" stroke-width="1.5"></path>
        <path d="M1131.89 522.33L969.99 490.14" stroke="rgba(204, 211, 225, 1)" stroke-width="1.5"></path>
        <path d="M1131.89 522.33L990.92 411.28" stroke="rgba(204, 211, 225, 1)" stroke-width="1.5"></path>
        <path d="M1112.28 660.19L1112.28 660.19" stroke="rgba(204, 211, 225, 1)" stroke-width="1.5"></path>
        <path d="M1112.28 660.19L1247.21 683.7" stroke="rgba(204, 211, 225, 1)" stroke-width="1.5"></path>
        <path d="M1112.28 660.19L1255.83 510.45" stroke="rgba(204, 211, 225, 1)" stroke-width="1.5"></path>
        <path d="M1112.28 660.19L969.99 490.14" stroke="rgba(204, 211, 225, 1)" stroke-width="1.5"></path>
        <path d="M1269.46 -83.99L1269.46 -83.99" stroke="rgba(204, 211, 225, 1)" stroke-width="1.5"></path>
        <path d="M1269.46 -83.99L1408.21 -54.4" stroke="rgba(204, 211, 225, 1)" stroke-width="1.5"></path>
        <path d="M1269.46 -83.99L1286.52 62.49" stroke="rgba(204, 211, 225, 1)" stroke-width="1.5"></path>
        <path d="M1269.46 -83.99L1416.13 94.54" stroke="rgba(204, 211, 225, 1)" stroke-width="1.5"></path>
        <path d="M1269.46 -83.99L1559.38 -103.79" stroke="rgba(204, 211, 225, 1)" stroke-width="1.5"></path>
        <path d="M1286.52 62.49L1286.52 62.49" stroke="rgba(204, 211, 225, 1)" stroke-width="1.5"></path>
        <path d="M1286.52 62.49L1416.13 94.54" stroke="rgba(204, 211, 225, 1)" stroke-width="1.5"></path>
        <path d="M1286.52 62.49L1311.48 221.45" stroke="rgba(204, 211, 225, 1)" stroke-width="1.5"></path>
        <path d="M1286.52 62.49L1408.21 -54.4" stroke="rgba(204, 211, 225, 1)" stroke-width="1.5"></path>
        <path d="M1286.52 62.49L1395.11 225.47" stroke="rgba(204, 211, 225, 1)" stroke-width="1.5"></path>
        <path d="M1311.48 221.45L1311.48 221.45" stroke="rgba(204, 211, 225, 1)" stroke-width="1.5"></path>
        <path d="M1311.48 221.45L1395.11 225.47" stroke="rgba(204, 211, 225, 1)" stroke-width="1.5"></path>
        <path d="M1311.48 221.45L1284.71 367.54" stroke="rgba(204, 211, 225, 1)" stroke-width="1.5"></path>
        <path d="M1284.71 367.54L1284.71 367.54" stroke="rgba(204, 211, 225, 1)" stroke-width="1.5"></path>
        <path d="M1284.71 367.54L1255.83 510.45" stroke="rgba(204, 211, 225, 1)" stroke-width="1.5"></path>
        <path d="M1284.71 367.54L1452.03 375.57" stroke="rgba(204, 211, 225, 1)" stroke-width="1.5"></path>
        <path d="M1284.71 367.54L1395.11 225.47" stroke="rgba(204, 211, 225, 1)" stroke-width="1.5"></path>
        <path d="M1284.71 367.54L1106.95 338.66" stroke="rgba(204, 211, 225, 1)" stroke-width="1.5"></path>
        <path d="M1255.83 510.45L1255.83 510.45" stroke="rgba(204, 211, 225, 1)" stroke-width="1.5"></path>
        <path d="M1247.21 683.7L1247.21 683.7" stroke="rgba(204, 211, 225, 1)" stroke-width="1.5"></path>
        <path d="M1247.21 683.7L1255.83 510.45" stroke="rgba(204, 211, 225, 1)" stroke-width="1.5"></path>
        <path d="M1247.21 683.7L1430.46 707.41" stroke="rgba(204, 211, 225, 1)" stroke-width="1.5"></path>
        <path d="M1408.21 -54.4L1408.21 -54.4" stroke="rgba(204, 211, 225, 1)" stroke-width="1.5"></path>
        <path d="M1408.21 -54.4L1416.13 94.54" stroke="rgba(204, 211, 225, 1)" stroke-width="1.5"></path>
        <path d="M1408.21 -54.4L1559.38 -103.79" stroke="rgba(204, 211, 225, 1)" stroke-width="1.5"></path>
        <path d="M1416.13 94.54L1416.13 94.54" stroke="rgba(204, 211, 225, 1)" stroke-width="1.5"></path>
        <path d="M1416.13 94.54L1395.11 225.47" stroke="rgba(204, 211, 225, 1)" stroke-width="1.5"></path>
        <path d="M1416.13 94.54L1311.48 221.45" stroke="rgba(204, 211, 225, 1)" stroke-width="1.5"></path>
        <path d="M1416.13 94.54L1591.47 52.25" stroke="rgba(204, 211, 225, 1)" stroke-width="1.5"></path>
        <path d="M1395.11 225.47L1395.11 225.47" stroke="rgba(204, 211, 225, 1)" stroke-width="1.5"></path>
        <path d="M1395.11 225.47L1452.03 375.57" stroke="rgba(204, 211, 225, 1)" stroke-width="1.5"></path>
        <path d="M1395.11 225.47L1580.48 222.53" stroke="rgba(204, 211, 225, 1)" stroke-width="1.5"></path>
        <path d="M1452.03 375.57L1452.03 375.57" stroke="rgba(204, 211, 225, 1)" stroke-width="1.5"></path>
        <path d="M1452.03 375.57L1457.68 496.19" stroke="rgba(204, 211, 225, 1)" stroke-width="1.5"></path>
        <path d="M1452.03 375.57L1598.16 374.38" stroke="rgba(204, 211, 225, 1)" stroke-width="1.5"></path>
        <path d="M1457.68 496.19L1457.68 496.19" stroke="rgba(204, 211, 225, 1)" stroke-width="1.5"></path>
        <path d="M1457.68 496.19L1574.79 516.43" stroke="rgba(204, 211, 225, 1)" stroke-width="1.5"></path>
        <path d="M1430.46 707.41L1430.46 707.41" stroke="rgba(204, 211, 225, 1)" stroke-width="1.5"></path>
        <path d="M1430.46 707.41L1595.83 695.81" stroke="rgba(204, 211, 225, 1)" stroke-width="1.5"></path>
        <path d="M1430.46 707.41L1457.68 496.19" stroke="rgba(204, 211, 225, 1)" stroke-width="1.5"></path>
        <path d="M1430.46 707.41L1574.79 516.43" stroke="rgba(204, 211, 225, 1)" stroke-width="1.5"></path>
        <path d="M1430.46 707.41L1255.83 510.45" stroke="rgba(204, 211, 225, 1)" stroke-width="1.5"></path>
        <path d="M1430.46 707.41L1112.28 660.19" stroke="rgba(204, 211, 225, 1)" stroke-width="1.5"></path>
        <path d="M1559.38 -103.79L1559.38 -103.79" stroke="rgba(204, 211, 225, 1)" stroke-width="1.5"></path>
        <path d="M1559.38 -103.79L1591.47 52.25" stroke="rgba(204, 211, 225, 1)" stroke-width="1.5"></path>
        <path d="M1591.47 52.25L1591.47 52.25" stroke="rgba(204, 211, 225, 1)" stroke-width="1.5"></path>
        <path d="M1591.47 52.25L1580.48 222.53" stroke="rgba(204, 211, 225, 1)" stroke-width="1.5"></path>
        <path d="M1580.48 222.53L1580.48 222.53" stroke="rgba(204, 211, 225, 1)" stroke-width="1.5"></path>
        <path d="M1580.48 222.53L1598.16 374.38" stroke="rgba(204, 211, 225, 1)" stroke-width="1.5"></path>
        <path d="M1580.48 222.53L1452.03 375.57" stroke="rgba(204, 211, 225, 1)" stroke-width="1.5"></path>
        <path d="M1598.16 374.38L1598.16 374.38" stroke="rgba(204, 211, 225, 1)" stroke-width="1.5"></path>
        <path d="M1598.16 374.38L1574.79 516.43" stroke="rgba(204, 211, 225, 1)" stroke-width="1.5"></path>
        <path d="M1574.79 516.43L1574.79 516.43" stroke="rgba(204, 211, 225, 1)" stroke-width="1.5"></path>
        <path d="M1574.79 516.43L1595.83 695.81" stroke="rgba(204, 211, 225, 1)" stroke-width="1.5"></path>
        <path d="M1574.79 516.43L1452.03 375.57" stroke="rgba(204, 211, 225, 1)" stroke-width="1.5"></path>
        <path d="M1574.79 516.43L1580.48 222.53" stroke="rgba(204, 211, 225, 1)" stroke-width="1.5"></path>
        <path d="M1595.83 695.81L1595.83 695.81" stroke="rgba(204, 211, 225, 1)" stroke-width="1.5"></path>
        <path d="M1595.83 695.81L1457.68 496.19" stroke="rgba(204, 211, 225, 1)" stroke-width="1.5"></path>
        <path d="M1595.83 695.81L1598.16 374.38" stroke="rgba(204, 211, 225, 1)" stroke-width="1.5"></path>
        <circle r="5" cx="-86.6" cy="363.95" fill="rgba(204, 211, 225, 1)"></circle>
        <circle r="5" cx="-109.78" cy="508.31" fill="rgba(204, 211, 225, 1)"></circle>
        <circle r="5" cx="-108.86" cy="700.13" fill="rgba(204, 211, 225, 1)"></circle>
        <circle r="5" cx="110.35" cy="407.44" fill="rgba(204, 211, 225, 1)"></circle>
        <circle r="5" cx="66.51" cy="654.48" fill="rgba(204, 211, 225, 1)"></circle>
        <circle r="5" cx="247.09" cy="399.69" fill="rgba(204, 211, 225, 1)"></circle>
        <circle r="5" cx="207.55" cy="538.88" fill="rgba(204, 211, 225, 1)"></circle>
        <circle r="5" cx="197.87" cy="670.19" fill="rgba(204, 211, 225, 1)"></circle>
        <circle r="5" cx="382.21" cy="410.13" fill="rgba(204, 211, 225, 1)"></circle>
        <circle r="5" cx="378.05" cy="519.18" fill="rgba(204, 211, 225, 1)"></circle>
        <circle r="5" cx="549.28" cy="345.57" fill="rgba(204, 211, 225, 1)"></circle>
        <circle r="5" cx="515.62" cy="495.62" fill="rgba(204, 211, 225, 1)"></circle>
        <circle r="5" cx="560.93" cy="664.42" fill="rgba(204, 211, 225, 1)"></circle>
        <circle r="5" cx="674.8" cy="246.69" fill="rgba(204, 211, 225, 1)"></circle>
        <circle r="5" cx="705.28" cy="374.66" fill="rgba(204, 211, 225, 1)"></circle>
        <circle r="5" cx="647.08" cy="523.41" fill="rgba(204, 211, 225, 1)"></circle>
        <circle r="5" cx="646.63" cy="701.13" fill="rgba(204, 211, 225, 1)"></circle>
        <circle r="5" cx="808.61" cy="253.42" fill="rgba(204, 211, 225, 1)"></circle>
        <circle r="5" cx="844.41" cy="377.33" fill="rgba(204, 211, 225, 1)"></circle>
        <circle r="5" cx="814.44" cy="532.17" fill="rgba(204, 211, 225, 1)"></circle>
        <circle r="5" cx="816.21" cy="679.09" fill="rgba(204, 211, 225, 1)"></circle>
        <circle r="5" cx="959.4" cy="-81.21" fill="rgba(204, 211, 225, 1)"></circle>
        <circle r="5" cx="967.8" cy="52.37" fill="rgba(204, 211, 225, 1)"></circle>
        <circle r="5" cx="951.54" cy="196.96" fill="rgba(204, 211, 225, 1)"></circle>
        <circle r="5" cx="990.92" cy="411.28" fill="rgba(204, 211, 225, 1)"></circle>
        <circle r="5" cx="969.99" cy="490.14" fill="rgba(204, 211, 225, 1)"></circle>
        <circle r="5" cx="984.79" cy="707.47" fill="rgba(204, 211, 225, 1)"></circle>
        <circle r="5" cx="1120.81" cy="-81.04" fill="rgba(204, 211, 225, 1)"></circle>
        <circle r="5" cx="1162.49" cy="262.12" fill="rgba(204, 211, 225, 1)"></circle>
        <circle r="5" cx="1106.95" cy="338.66" fill="rgba(204, 211, 225, 1)"></circle>
        <circle r="5" cx="1131.89" cy="522.33" fill="rgba(204, 211, 225, 1)"></circle>
        <circle r="5" cx="1112.28" cy="660.19" fill="rgba(204, 211, 225, 1)"></circle>
        <circle r="5" cx="1269.46" cy="-83.99" fill="rgba(204, 211, 225, 1)"></circle>
        <circle r="5" cx="1286.52" cy="62.49" fill="rgba(204, 211, 225, 1)"></circle>
        <circle r="5" cx="1311.48" cy="221.45" fill="rgba(204, 211, 225, 1)"></circle>
        <circle r="5" cx="1284.71" cy="367.54" fill="rgba(204, 211, 225, 1)"></circle>
        <circle r="5" cx="1255.83" cy="510.45" fill="rgba(204, 211, 225, 1)"></circle>
        <circle r="5" cx="1247.21" cy="683.7" fill="rgba(204, 211, 225, 1)"></circle>
        <circle r="5" cx="1408.21" cy="-54.4" fill="rgba(204, 211, 225, 1)"></circle>
        <circle r="5" cx="1416.13" cy="94.54" fill="rgba(204, 211, 225, 1)"></circle>
        <circle r="5" cx="1395.11" cy="225.47" fill="rgba(204, 211, 225, 1)"></circle>
        <circle r="5" cx="1452.03" cy="375.57" fill="rgba(204, 211, 225, 1)"></circle>
        <circle r="5" cx="1457.68" cy="496.19" fill="rgba(204, 211, 225, 1)"></circle>
        <circle r="5" cx="1430.46" cy="707.41" fill="rgba(204, 211, 225, 1)"></circle>
        <circle r="5" cx="1559.38" cy="-103.79" fill="rgba(204, 211, 225, 1)"></circle>
        <circle r="5" cx="1591.47" cy="52.25" fill="rgba(204, 211, 225, 1)"></circle>
        <circle r="5" cx="1580.48" cy="222.53" fill="rgba(204, 211, 225, 1)"></circle>
        <circle r="5" cx="1598.16" cy="374.38" fill="rgba(204, 211, 225, 1)"></circle>
        <circle r="5" cx="1574.79" cy="516.43" fill="rgba(204, 211, 225, 1)"></circle>
        <circle r="5" cx="1595.83" cy="695.81" fill="rgba(204, 211, 225, 1)"></circle>
        <path d="M-44.53 662.58L-44.53 662.58" stroke="hsl(0, 0%, 100%)" stroke-width="1.5"></path>
        <path d="M-44.53 662.58L78.47 694.79" stroke="hsl(0, 0%, 100%)" stroke-width="1.5"></path>
        <path d="M-44.53 662.58L-53.11 500.25" stroke="hsl(0, 0%, 100%)" stroke-width="1.5"></path>
        <path d="M1104.52 226.65L1104.52 226.65" stroke="hsl(0, 0%, 100%)" stroke-width="1.5"></path>
        <path d="M1104.52 226.65L1009.48 247.52" stroke="hsl(0, 0%, 100%)" stroke-width="1.5"></path>
        <path d="M1104.52 226.65L1124.85 395.03" stroke="hsl(0, 0%, 100%)" stroke-width="1.5"></path>
        <path d="M1104.52 226.65L1290.39 205.71" stroke="hsl(0, 0%, 100%)" stroke-width="1.5"></path>
        <path d="M1104.52 226.65L941.39 342.88" stroke="hsl(0, 0%, 100%)" stroke-width="1.5"></path>
        <path d="M1104.52 226.65L1277.75 63.12" stroke="hsl(0, 0%, 100%)" stroke-width="1.5"></path>
        <path d="M1104.52 226.65L1119.19 496.54" stroke="hsl(0, 0%, 100%)" stroke-width="1.5"></path>
        <path d="M1277.75 63.12L1277.75 63.12" stroke="hsl(0, 0%, 100%)" stroke-width="1.5"></path>
        <path d="M1277.75 63.12L1253.08 -49.66" stroke="hsl(0, 0%, 100%)" stroke-width="1.5"></path>
        <path d="M1277.75 63.12L1290.39 205.71" stroke="hsl(0, 0%, 100%)" stroke-width="1.5"></path>
        <path d="M1277.75 63.12L1449.12 64.28" stroke="hsl(0, 0%, 100%)" stroke-width="1.5"></path>
        <path d="M1277.75 63.12L1412.77 -92.25" stroke="hsl(0, 0%, 100%)" stroke-width="1.5"></path>
        <path d="M1277.75 63.12L1423.37 217.8" stroke="hsl(0, 0%, 100%)" stroke-width="1.5"></path>
        <path d="M1290.39 205.71L1290.39 205.71" stroke="hsl(0, 0%, 100%)" stroke-width="1.5"></path>
        <path d="M1290.39 205.71L1423.37 217.8" stroke="hsl(0, 0%, 100%)" stroke-width="1.5"></path>
        <path d="M1290.39 205.71L1449.12 64.28" stroke="hsl(0, 0%, 100%)" stroke-width="1.5"></path>
        <path d="M1449.12 64.28L1449.12 64.28" stroke="hsl(0, 0%, 100%)" stroke-width="1.5"></path>
        <path d="M1449.12 64.28L1591.01 108.68" stroke="hsl(0, 0%, 100%)" stroke-width="1.5"></path>
        <path d="M1449.12 64.28L1423.37 217.8" stroke="hsl(0, 0%, 100%)" stroke-width="1.5"></path>
        <path d="M1449.12 64.28L1412.77 -92.25" stroke="hsl(0, 0%, 100%)" stroke-width="1.5"></path>
        <path d="M1423.37 217.8L1423.37 217.8" stroke="hsl(0, 0%, 100%)" stroke-width="1.5"></path>
        <path d="M1423.37 217.8L1413.14 382.72" stroke="hsl(0, 0%, 100%)" stroke-width="1.5"></path>
        <path d="M1423.37 217.8L1611.03 229.28" stroke="hsl(0, 0%, 100%)" stroke-width="1.5"></path>
        <path d="M1423.37 217.8L1591.01 108.68" stroke="hsl(0, 0%, 100%)" stroke-width="1.5"></path>
        <path d="M1427.1 662.48L1427.1 662.48" stroke="hsl(0, 0%, 100%)" stroke-width="1.5"></path>
        <path d="M1427.1 662.48L1461.84 551.34" stroke="hsl(0, 0%, 100%)" stroke-width="1.5"></path>
        <path d="M1612.2 709.66L1612.2 709.66" stroke="hsl(0, 0%, 100%)" stroke-width="1.5"></path>
        <path d="M1612.2 709.66L1606.96 549.73" stroke="hsl(0, 0%, 100%)" stroke-width="1.5"></path>
        <path d="M1612.2 709.66L1427.1 662.48" stroke="hsl(0, 0%, 100%)" stroke-width="1.5"></path>
        <path d="M1612.2 709.66L1461.84 551.34" stroke="hsl(0, 0%, 100%)" stroke-width="1.5"></path>
        <path d="M1612.2 709.66L1290.59 561.42" stroke="hsl(0, 0%, 100%)" stroke-width="1.5"></path>
        <path d="M1612.2 709.66L1238.87 687.71" stroke="hsl(0, 0%, 100%)" stroke-width="1.5"></path>
        <path d="M1612.2 709.66L1413.14 382.72" stroke="hsl(0, 0%, 100%)" stroke-width="1.5"></path>
        <path d="M-53.11 500.25L-53.11 500.25" stroke="hsl(0, 0%, 100%)" stroke-width="1.5"></path>
        <path d="M-53.11 500.25L112.49 515.69" stroke="hsl(0, 0%, 100%)" stroke-width="1.5"></path>
        <path d="M-53.11 500.25L78.47 694.79" stroke="hsl(0, 0%, 100%)" stroke-width="1.5"></path>
        <path d="M-53.11 500.25L196.54 551.67" stroke="hsl(0, 0%, 100%)" stroke-width="1.5"></path>
        <path d="M-53.11 500.25L244.57 673.54" stroke="hsl(0, 0%, 100%)" stroke-width="1.5"></path>
        <path d="M-53.11 500.25L364.69 533.36" stroke="hsl(0, 0%, 100%)" stroke-width="1.5"></path>
        <path d="M112.49 515.69L112.49 515.69" stroke="hsl(0, 0%, 100%)" stroke-width="1.5"></path>
        <path d="M112.49 515.69L196.54 551.67" stroke="hsl(0, 0%, 100%)" stroke-width="1.5"></path>
        <path d="M112.49 515.69L78.47 694.79" stroke="hsl(0, 0%, 100%)" stroke-width="1.5"></path>
        <path d="M112.49 515.69L244.57 673.54" stroke="hsl(0, 0%, 100%)" stroke-width="1.5"></path>
        <path d="M112.49 515.69L-44.53 662.58" stroke="hsl(0, 0%, 100%)" stroke-width="1.5"></path>
        <path d="M112.49 515.69L364.69 533.36" stroke="hsl(0, 0%, 100%)" stroke-width="1.5"></path>
        <path d="M78.47 694.79L78.47 694.79" stroke="hsl(0, 0%, 100%)" stroke-width="1.5"></path>
        <path d="M78.47 694.79L244.57 673.54" stroke="hsl(0, 0%, 100%)" stroke-width="1.5"></path>
        <path d="M196.54 551.67L196.54 551.67" stroke="hsl(0, 0%, 100%)" stroke-width="1.5"></path>
        <path d="M196.54 551.67L244.57 673.54" stroke="hsl(0, 0%, 100%)" stroke-width="1.5"></path>
        <path d="M196.54 551.67L364.69 533.36" stroke="hsl(0, 0%, 100%)" stroke-width="1.5"></path>
        <path d="M196.54 551.67L78.47 694.79" stroke="hsl(0, 0%, 100%)" stroke-width="1.5"></path>
        <path d="M244.57 673.54L244.57 673.54" stroke="hsl(0, 0%, 100%)" stroke-width="1.5"></path>
        <path d="M244.57 673.54L399.57 668.08" stroke="hsl(0, 0%, 100%)" stroke-width="1.5"></path>
        <path d="M244.57 673.54L364.69 533.36" stroke="hsl(0, 0%, 100%)" stroke-width="1.5"></path>
        <path d="M244.57 673.54L528.51 653.04" stroke="hsl(0, 0%, 100%)" stroke-width="1.5"></path>
        <path d="M364.69 533.36L364.69 533.36" stroke="hsl(0, 0%, 100%)" stroke-width="1.5"></path>
        <path d="M364.69 533.36L496.54 537.42" stroke="hsl(0, 0%, 100%)" stroke-width="1.5"></path>
        <path d="M364.69 533.36L399.57 668.08" stroke="hsl(0, 0%, 100%)" stroke-width="1.5"></path>
        <path d="M399.57 668.08L399.57 668.08" stroke="hsl(0, 0%, 100%)" stroke-width="1.5"></path>
        <path d="M399.57 668.08L528.51 653.04" stroke="hsl(0, 0%, 100%)" stroke-width="1.5"></path>
        <path d="M496.54 537.42L496.54 537.42" stroke="hsl(0, 0%, 100%)" stroke-width="1.5"></path>
        <path d="M496.54 537.42L528.51 653.04" stroke="hsl(0, 0%, 100%)" stroke-width="1.5"></path>
        <path d="M496.54 537.42L653.82 527.74" stroke="hsl(0, 0%, 100%)" stroke-width="1.5"></path>
        <path d="M496.54 537.42L399.57 668.08" stroke="hsl(0, 0%, 100%)" stroke-width="1.5"></path>
        <path d="M496.54 537.42L706.64 697.27" stroke="hsl(0, 0%, 100%)" stroke-width="1.5"></path>
        <path d="M496.54 537.42L244.57 673.54" stroke="hsl(0, 0%, 100%)" stroke-width="1.5"></path>
        <path d="M528.51 653.04L528.51 653.04" stroke="hsl(0, 0%, 100%)" stroke-width="1.5"></path>
        <path d="M528.51 653.04L653.82 527.74" stroke="hsl(0, 0%, 100%)" stroke-width="1.5"></path>
        <path d="M528.51 653.04L706.64 697.27" stroke="hsl(0, 0%, 100%)" stroke-width="1.5"></path>
        <path d="M653.82 527.74L653.82 527.74" stroke="hsl(0, 0%, 100%)" stroke-width="1.5"></path>
        <path d="M653.82 527.74L706.64 697.27" stroke="hsl(0, 0%, 100%)" stroke-width="1.5"></path>
        <path d="M653.82 527.74L802.49 645.41" stroke="hsl(0, 0%, 100%)" stroke-width="1.5"></path>
        <path d="M706.64 697.27L706.64 697.27" stroke="hsl(0, 0%, 100%)" stroke-width="1.5"></path>
        <path d="M706.64 697.27L802.49 645.41" stroke="hsl(0, 0%, 100%)" stroke-width="1.5"></path>
        <path d="M848.61 400.2L848.61 400.2" stroke="hsl(0, 0%, 100%)" stroke-width="1.5"></path>
        <path d="M848.61 400.2L845.2 487.85" stroke="hsl(0, 0%, 100%)" stroke-width="1.5"></path>
        <path d="M848.61 400.2L941.39 342.88" stroke="hsl(0, 0%, 100%)" stroke-width="1.5"></path>
        <path d="M848.61 400.2L1009.48 247.52" stroke="hsl(0, 0%, 100%)" stroke-width="1.5"></path>
        <path d="M848.61 400.2L653.82 527.74" stroke="hsl(0, 0%, 100%)" stroke-width="1.5"></path>
        <path d="M845.2 487.85L845.2 487.85" stroke="hsl(0, 0%, 100%)" stroke-width="1.5"></path>
        <path d="M845.2 487.85L802.49 645.41" stroke="hsl(0, 0%, 100%)" stroke-width="1.5"></path>
        <path d="M845.2 487.85L941.39 342.88" stroke="hsl(0, 0%, 100%)" stroke-width="1.5"></path>
        <path d="M845.2 487.85L653.82 527.74" stroke="hsl(0, 0%, 100%)" stroke-width="1.5"></path>
        <path d="M845.2 487.85L971.64 658.62" stroke="hsl(0, 0%, 100%)" stroke-width="1.5"></path>
        <path d="M845.2 487.85L706.64 697.27" stroke="hsl(0, 0%, 100%)" stroke-width="1.5"></path>
        <path d="M802.49 645.41L802.49 645.41" stroke="hsl(0, 0%, 100%)" stroke-width="1.5"></path>
        <path d="M802.49 645.41L971.64 658.62" stroke="hsl(0, 0%, 100%)" stroke-width="1.5"></path>
        <path d="M802.49 645.41L848.61 400.2" stroke="hsl(0, 0%, 100%)" stroke-width="1.5"></path>
        <path d="M802.49 645.41L528.51 653.04" stroke="hsl(0, 0%, 100%)" stroke-width="1.5"></path>
        <path d="M1009.48 247.52L1009.48 247.52" stroke="hsl(0, 0%, 100%)" stroke-width="1.5"></path>
        <path d="M1009.48 247.52L941.39 342.88" stroke="hsl(0, 0%, 100%)" stroke-width="1.5"></path>
        <path d="M1009.48 247.52L1124.85 395.03" stroke="hsl(0, 0%, 100%)" stroke-width="1.5"></path>
        <path d="M941.39 342.88L941.39 342.88" stroke="hsl(0, 0%, 100%)" stroke-width="1.5"></path>
        <path d="M941.39 342.88L1124.85 395.03" stroke="hsl(0, 0%, 100%)" stroke-width="1.5"></path>
        <path d="M941.39 342.88L1119.19 496.54" stroke="hsl(0, 0%, 100%)" stroke-width="1.5"></path>
        <path d="M971.64 658.62L971.64 658.62" stroke="hsl(0, 0%, 100%)" stroke-width="1.5"></path>
        <path d="M971.64 658.62L1138.5 666.66" stroke="hsl(0, 0%, 100%)" stroke-width="1.5"></path>
        <path d="M971.64 658.62L1119.19 496.54" stroke="hsl(0, 0%, 100%)" stroke-width="1.5"></path>
        <path d="M971.64 658.62L706.64 697.27" stroke="hsl(0, 0%, 100%)" stroke-width="1.5"></path>
        <path d="M1124.85 395.03L1124.85 395.03" stroke="hsl(0, 0%, 100%)" stroke-width="1.5"></path>
        <path d="M1124.85 395.03L1119.19 496.54" stroke="hsl(0, 0%, 100%)" stroke-width="1.5"></path>
        <path d="M1119.19 496.54L1119.19 496.54" stroke="hsl(0, 0%, 100%)" stroke-width="1.5"></path>
        <path d="M1119.19 496.54L1138.5 666.66" stroke="hsl(0, 0%, 100%)" stroke-width="1.5"></path>
        <path d="M1119.19 496.54L1290.59 561.42" stroke="hsl(0, 0%, 100%)" stroke-width="1.5"></path>
        <path d="M1138.5 666.66L1138.5 666.66" stroke="hsl(0, 0%, 100%)" stroke-width="1.5"></path>
        <path d="M1138.5 666.66L1238.87 687.71" stroke="hsl(0, 0%, 100%)" stroke-width="1.5"></path>
        <path d="M1253.08 -49.66L1253.08 -49.66" stroke="hsl(0, 0%, 100%)" stroke-width="1.5"></path>
        <path d="M1290.59 561.42L1290.59 561.42" stroke="hsl(0, 0%, 100%)" stroke-width="1.5"></path>
        <path d="M1290.59 561.42L1238.87 687.71" stroke="hsl(0, 0%, 100%)" stroke-width="1.5"></path>
        <path d="M1290.59 561.42L1427.1 662.48" stroke="hsl(0, 0%, 100%)" stroke-width="1.5"></path>
        <path d="M1290.59 561.42L1461.84 551.34" stroke="hsl(0, 0%, 100%)" stroke-width="1.5"></path>
        <path d="M1238.87 687.71L1238.87 687.71" stroke="hsl(0, 0%, 100%)" stroke-width="1.5"></path>
        <path d="M1412.77 -92.25L1412.77 -92.25" stroke="hsl(0, 0%, 100%)" stroke-width="1.5"></path>
        <path d="M1412.77 -92.25L1253.08 -49.66" stroke="hsl(0, 0%, 100%)" stroke-width="1.5"></path>
        <path d="M1412.77 -92.25L1607.24 -97.1" stroke="hsl(0, 0%, 100%)" stroke-width="1.5"></path>
        <path d="M1413.14 382.72L1413.14 382.72" stroke="hsl(0, 0%, 100%)" stroke-width="1.5"></path>
        <path d="M1413.14 382.72L1461.84 551.34" stroke="hsl(0, 0%, 100%)" stroke-width="1.5"></path>
        <path d="M1461.84 551.34L1461.84 551.34" stroke="hsl(0, 0%, 100%)" stroke-width="1.5"></path>
        <path d="M1461.84 551.34L1606.96 549.73" stroke="hsl(0, 0%, 100%)" stroke-width="1.5"></path>
        <path d="M1607.24 -97.1L1607.24 -97.1" stroke="hsl(0, 0%, 100%)" stroke-width="1.5"></path>
        <path d="M1607.24 -97.1L1591.01 108.68" stroke="hsl(0, 0%, 100%)" stroke-width="1.5"></path>
        <path d="M1607.24 -97.1L1449.12 64.28" stroke="hsl(0, 0%, 100%)" stroke-width="1.5"></path>
        <path d="M1591.01 108.68L1591.01 108.68" stroke="hsl(0, 0%, 100%)" stroke-width="1.5"></path>
        <path d="M1591.01 108.68L1611.03 229.28" stroke="hsl(0, 0%, 100%)" stroke-width="1.5"></path>
        <path d="M1611.03 229.28L1611.03 229.28" stroke="hsl(0, 0%, 100%)" stroke-width="1.5"></path>
        <path d="M1611.03 229.28L1449.12 64.28" stroke="hsl(0, 0%, 100%)" stroke-width="1.5"></path>
        <path d="M1611.03 229.28L1413.14 382.72" stroke="hsl(0, 0%, 100%)" stroke-width="1.5"></path>
        <path d="M1611.03 229.28L1606.96 549.73" stroke="hsl(0, 0%, 100%)" stroke-width="1.5"></path>
        <path d="M1606.96 549.73L1606.96 549.73" stroke="hsl(0, 0%, 100%)" stroke-width="1.5"></path>
        <path d="M1606.96 549.73L1427.1 662.48" stroke="hsl(0, 0%, 100%)" stroke-width="1.5"></path>
        <path d="M1606.96 549.73L1413.14 382.72" stroke="hsl(0, 0%, 100%)" stroke-width="1.5"></path>
        <circle r="25" cx="-44.53" cy="662.58" fill="url(#SvgjsRadialGradient1409)"></circle>
        <circle r="25" cx="1104.52" cy="226.65" fill="url(#SvgjsRadialGradient1409)"></circle>
        <circle r="25" cx="1277.75" cy="63.12" fill="url(#SvgjsRadialGradient1409)"></circle>
        <circle r="25" cx="1290.39" cy="205.71" fill="url(#SvgjsRadialGradient1409)"></circle>
        <circle r="25" cx="1449.12" cy="64.28" fill="url(#SvgjsRadialGradient1409)"></circle>
        <circle r="25" cx="1423.37" cy="217.8" fill="url(#SvgjsRadialGradient1409)"></circle>
        <circle r="25" cx="1427.1" cy="662.48" fill="url(#SvgjsRadialGradient1409)"></circle>
        <circle r="25" cx="1612.2" cy="709.66" fill="url(#SvgjsRadialGradient1409)"></circle>
        <circle r="5" cx="-53.11" cy="500.25" fill="#ffffff"></circle>
        <circle r="5" cx="112.49" cy="515.69" fill="#ffffff"></circle>
        <circle r="5" cx="78.47" cy="694.79" fill="#ffffff"></circle>
        <circle r="5" cx="196.54" cy="551.67" fill="#ffffff"></circle>
        <circle r="5" cx="244.57" cy="673.54" fill="#ffffff"></circle>
        <circle r="5" cx="364.69" cy="533.36" fill="#ffffff"></circle>
        <circle r="5" cx="399.57" cy="668.08" fill="#ffffff"></circle>
        <circle r="5" cx="496.54" cy="537.42" fill="#ffffff"></circle>
        <circle r="5" cx="528.51" cy="653.04" fill="#ffffff"></circle>
        <circle r="5" cx="653.82" cy="527.74" fill="#ffffff"></circle>
        <circle r="5" cx="706.64" cy="697.27" fill="#ffffff"></circle>
        <circle r="5" cx="848.61" cy="400.2" fill="#ffffff"></circle>
        <circle r="5" cx="845.2" cy="487.85" fill="#ffffff"></circle>
        <circle r="5" cx="802.49" cy="645.41" fill="#ffffff"></circle>
        <circle r="5" cx="1009.48" cy="247.52" fill="#ffffff"></circle>
        <circle r="5" cx="941.39" cy="342.88" fill="#ffffff"></circle>
        <circle r="5" cx="971.64" cy="658.62" fill="#ffffff"></circle>
        <circle r="5" cx="1124.85" cy="395.03" fill="#ffffff"></circle>
        <circle r="5" cx="1119.19" cy="496.54" fill="#ffffff"></circle>
        <circle r="5" cx="1138.5" cy="666.66" fill="#ffffff"></circle>
        <circle r="5" cx="1253.08" cy="-49.66" fill="#ffffff"></circle>
        <circle r="5" cx="1290.59" cy="561.42" fill="#ffffff"></circle>
        <circle r="5" cx="1238.87" cy="687.71" fill="#ffffff"></circle>
        <circle r="5" cx="1412.77" cy="-92.25" fill="#ffffff"></circle>
        <circle r="5" cx="1413.14" cy="382.72" fill="#ffffff"></circle>
        <circle r="5" cx="1461.84" cy="551.34" fill="#ffffff"></circle>
        <circle r="5" cx="1607.24" cy="-97.1" fill="#ffffff"></circle>
        <circle r="5" cx="1591.01" cy="108.68" fill="#ffffff"></circle>
        <circle r="5" cx="1611.03" cy="229.28" fill="#ffffff"></circle>
        <circle r="5" cx="1606.96" cy="549.73" fill="#ffffff"></circle>
    </g>
    <defs>
        <mask id="SvgjsMask1407">
            <rect width="1440" height="560" fill="#ffffff"></rect>
        </mask>
        <linearGradient x1="15.28%" y1="139.29%" x2="84.72%" y2="-39.29%" gradientUnits="userSpaceOnUse" id="SvgjsLinearGradient1408">
            <stop stop-color="#0e2a47" offset="0"></stop>
            <stop stop-color="rgba(255, 255, 255, 1)" offset="0"></stop>
            <stop stop-color="rgba(255, 255, 255, 1)" offset="0.03"></stop>
            <stop stop-color="rgba(255, 255, 255, 1)" offset="0.11"></stop>
            <stop stop-color="rgba(255, 255, 255, 1)" offset="0.3"></stop>
            <stop stop-color="rgba(255, 255, 255, 1)" offset="0.53"></stop>
            <stop stop-color="rgba(255, 255, 255, 1)" offset="0.66"></stop>
            <stop stop-color="rgba(255, 255, 255, 1)" offset="0.83"></stop>
            <stop stop-color="rgba(255, 255, 255, 1)" offset="0.87"></stop>
            <stop stop-color="rgba(255, 255, 255, 1)" offset="0.95"></stop>
            <stop stop-color="rgba(255, 255, 255, 1)" offset="0.97"></stop>
            <stop stop-color="rgba(221, 225, 229, 1)" offset="1"></stop>
        </linearGradient>
        <radialGradient id="SvgjsRadialGradient1409">
            <stop stop-color="#ffffff" offset="0.1"></stop>
            <stop stop-color="rgba(255, 255, 255, 1)" offset="0.2"></stop>
            <stop stop-color="rgba(255, 255, 255, 0)" offset="1"></stop>
        </radialGradient>
    </defs>
</svg>